<svg width="604" height="32" viewBox="0 0 604 32" fill="none" xmlns="http://www.w3.org/2000/svg" preserveAspectRatio="none">
<path d="M0 0H4V32H0V0Z" fill="white"/>
<path d="M8 0H12V32H8V0Z" fill="white"/>
<path d="M16 0H20V32H16V0Z" fill="white"/>
<path d="M24 0H28V32H24V0Z" fill="white"/>
<path d="M32 0H36V32H32V0Z" fill="white"/>
<path d="M40 0H44V32H40V0Z" fill="white"/>
<path d="M48 0H52V32H48V0Z" fill="white"/>
<path d="M56 0H60V32H56V0Z" fill="white"/>
<path d="M64 0H68V32H64V0Z" fill="white"/>
<path d="M72 0H76V32H72V0Z" fill="white"/>
<path d="M80 0H84V32H80V0Z" fill="white"/>
<path d="M88 0H92V32H88V0Z" fill="white"/>
<path d="M96 0H100V32H96V0Z" fill="white"/>
<path d="M104 0H108V32H104V0Z" fill="white"/>
<path d="M112 0H116V32H112V0Z" fill="white"/>
<path d="M120 0H124V32H120V0Z" fill="white"/>
<path d="M128 0H132V32H128V0Z" fill="white"/>
<path d="M136 0H140V32H136V0Z" fill="white"/>
<path d="M144 0H148V32H144V0Z" fill="white"/>
<path d="M152 0H156V32H152V0Z" fill="white"/>
<path d="M160 0H164V32H160V0Z" fill="white"/>
<path d="M168 0H172V32H168V0Z" fill="white"/>
<path d="M176 0H180V32H176V0Z" fill="white"/>
<path d="M184 0H188V32H184V0Z" fill="white"/>
<path d="M192 0H196V32H192V0Z" fill="white"/>
<path d="M200 0H204V32H200V0Z" fill="white"/>
<path d="M208 0H212V32H208V0Z" fill="white"/>
<path d="M216 0H220V32H216V0Z" fill="white"/>
<path d="M224 0H228V32H224V0Z" fill="white"/>
<path d="M232 0H236V32H232V0Z" fill="white"/>
<path d="M240 0H244V32H240V0Z" fill="white"/>
<path d="M248 0H252V32H248V0Z" fill="white"/>
<path d="M256 0H260V32H256V0Z" fill="white"/>
<path d="M264 0H268V32H264V0Z" fill="white"/>
<path d="M272 0H276V32H272V0Z" fill="white"/>
<path d="M280 0H284V32H280V0Z" fill="white"/>
<path d="M288 0H292V32H288V0Z" fill="white"/>
<path d="M296 0H300V32H296V0Z" fill="white"/>
<path d="M304 0H308V32H304V0Z" fill="white"/>
<path d="M312 0H316V32H312V0Z" fill="white"/>
<path d="M320 0H324V32H320V0Z" fill="white"/>
<path d="M328 0H332V32H328V0Z" fill="white"/>
<path d="M336 0H340V32H336V0Z" fill="white"/>
<path d="M344 0H348V32H344V0Z" fill="white"/>
<path d="M352 0H356V32H352V0Z" fill="white"/>
<path d="M360 0H364V32H360V0Z" fill="white"/>
<path d="M368 0H372V32H368V0Z" fill="white"/>
<path d="M376 0H380V32H376V0Z" fill="white"/>
<path d="M384 0H388V32H384V0Z" fill="white"/>
<path d="M392 0H396V32H392V0Z" fill="white"/>
<path d="M400 0H404V32H400V0Z" fill="white"/>
<path d="M408 0H412V32H408V0Z" fill="white"/>
<path d="M416 0H420V32H416V0Z" fill="white"/>
<path d="M424 0H428V32H424V0Z" fill="white"/>
<path d="M432 0H436V32H432V0Z" fill="white"/>
<path d="M440 0H444V32H440V0Z" fill="white"/>
<path d="M448 0H452V32H448V0Z" fill="white"/>
<path d="M456 0H460V32H456V0Z" fill="white"/>
<path d="M464 0H468V32H464V0Z" fill="white"/>
<path d="M472 0H476V32H472V0Z" fill="white"/>
<path d="M480 0H484V32H480V0Z" fill="white"/>
<path d="M488 0H492V32H488V0Z" fill="white"/>
<path d="M496 0H500V32H496V0Z" fill="white"/>
<path d="M504 0H508V32H504V0Z" fill="white"/>
<path d="M512 0H516V32H512V0Z" fill="white"/>
<path d="M520 0H524V32H520V0Z" fill="white"/>
<path d="M528 0H532V32H528V0Z" fill="white"/>
<path d="M536 0H540V32H536V0Z" fill="white"/>
<path d="M544 0H548V32H544V0Z" fill="white"/>
<path d="M552 0H556V32H552V0Z" fill="white"/>
<path d="M560 0H564V32H560V0Z" fill="white"/>
<path d="M568 0H572V32H568V0Z" fill="white"/>
<path d="M576 0H580V32H576V0Z" fill="white"/>
<path d="M584 0H588V32H584V0Z" fill="white"/>
<path d="M592 0H596V32H592V0Z" fill="white"/>
<path d="M600 0H604V32H600V0Z" fill="white"/>
</svg>
