<svg width="198" height="52" viewBox="0 0 198 52" fill="none" xmlns="http://www.w3.org/2000/svg">
<path fill-rule="evenodd" clip-rule="evenodd" d="M197 3C197 1.89543 196.105 1 195 1V1C193.895 1 193 1.89543 193 3V49C193 50.1046 193.895 51 195 51V51C196.105 51 197 50.1046 197 49V3ZM185 6.45395C185 5.70588 185.549 4.95837 186.216 4.61916V4.61916C187.543 3.94415 189 4.96717 189 6.45577V49C189 50.1046 188.105 51 187 51V51C185.895 51 185 50.1046 185 49V6.45395ZM177 10.3636C177 9.59198 177.5 8.86624 178.198 8.53766V8.53766C179.522 7.91452 181 8.90077 181 10.3641V49C181 50.1046 180.105 51 179 51V51C177.895 51 177 50.1046 177 49V10.3636ZM169 14.0041C169 13.2138 169.501 12.4847 170.225 12.1662V12.1662C171.545 11.5851 173 12.5623 173 14.0043V49C173 50.1046 172.105 51 171 51V51C169.895 51 169 50.1046 169 49V14.0041ZM161 17.4176C161 16.6106 161.512 15.8743 162.258 15.5659V15.5659C163.572 15.0222 165 15.9949 165 17.4178V49C165 50.1046 164.105 51 163 51V51C161.895 51 161 50.1046 161 49V17.4176ZM153 20.6264C153 19.8038 153.525 19.0593 154.292 18.7611V18.7611C155.601 18.2518 157 19.2215 157 20.6265V49C157 50.1046 156.105 51 155 51V51C153.895 51 153 50.1046 153 49V20.6264ZM145 23.6443C145 22.8068 145.54 22.0538 146.327 21.7661V21.7661C147.63 21.2894 149 22.2566 149 23.6444V49C149 50.1046 148.105 51 147 51V51C145.895 51 145 50.1046 145 49V23.6443ZM137 26.4811C137 25.629 137.556 24.8676 138.361 24.5907V24.5907C139.658 24.1451 141 25.1099 141 26.4811V49C141 50.1046 140.105 51 139 51V51C137.895 51 137 50.1046 137 49V26.4811ZM129 29.1437C129 28.2773 129.572 27.5074 130.396 27.2417V27.2417C131.686 26.8262 133 27.7886 133 29.1437V49C133 50.1046 132.105 51 131 51V51C129.895 51 129 50.1046 129 49V29.1437ZM121 31.6372C121 30.7567 121.588 29.9785 122.431 29.7245V29.7245C123.714 29.3381 125 30.298 125 31.6372V49C125 50.1046 124.105 51 123 51V51C121.895 51 121 50.1046 121 49V31.6372ZM113 33.9656C113 33.0711 113.605 32.2846 114.467 32.0427V32.0427C115.741 31.6848 117 32.6421 117 33.9656V49C117 50.1046 116.105 51 115 51V51C113.895 51 113 50.1046 113 49V33.9656ZM105 36.1318C105 35.2233 105.623 34.4287 106.502 34.1995V34.1995C107.768 33.8694 109 34.8238 109 36.1318V49C109 50.1046 108.105 51 107 51V51C105.895 51 105 50.1046 105 49V36.1318ZM97 38.138C97 37.2157 97.6408 36.4129 98.5375 36.1969V36.1969C99.7941 35.8942 101 36.8455 101 38.1381V49C101 50.1046 100.105 51 99 51V51C97.8954 51 97 50.1046 97 49V38.138ZM89 39.9861C89 39.0497 89.6591 38.239 90.5734 38.0368V38.0368C91.8205 37.761 93 38.7089 93 39.9861V49C93 50.1046 92.1046 51 91 51V51C89.8954 51 89 50.1046 89 49V39.9861ZM81 41.6771C81 40.7266 81.6779 39.9081 82.6097 39.7203V39.7203C83.8466 39.4709 85 40.4152 85 41.6771V49C85 50.1046 84.1046 51 83 51V51C81.8954 51 81 50.1046 81 49V41.6771ZM73 43.2119C73 42.2472 73.6972 41.4209 74.6462 41.2481V41.2481C75.8726 41.0248 77 41.9653 77 43.2119V49C77 50.1046 76.1046 51 75 51V51C73.8954 51 73 50.1046 73 49V43.2119ZM65 44.5908C65 43.6119 65.7169 42.778 66.6832 42.6208V42.6208C67.8984 42.4232 69 43.3596 69 44.5908V49C69 50.1046 68.1046 51 67 51V51C65.8954 51 65 50.1046 65 49V44.5908ZM57 45.8143C57 44.8209 57.7372 43.9795 58.7205 43.8387V43.8387C59.9241 43.6663 61 44.5984 61 45.8143V49C61 50.1046 60.1046 51 59 51V51C57.8954 51 57 50.1046 57 49V45.8143ZM49 46.882C49 45.8741 49.7579 45.0253 50.7582 44.9015V44.9015C51.9496 44.7541 53 45.6815 53 46.882V49C53 50.1046 52.1046 51 51 51V51C49.8954 51 49 50.1046 49 49V46.882ZM41 47.7939C41 46.7712 41.7792 45.9151 42.7963 45.8091V45.8091C43.975 45.6863 45 46.6088 45 47.7939V49C45 50.1046 44.1046 51 43 51V51C41.8954 51 41 50.1046 41 49V47.7939ZM33 48.5493C33 47.5117 33.801 46.6485 34.8349 46.561V46.561C36.0003 46.4623 37 47.3797 37 48.5492V49C37 50.1046 36.1046 51 35 51V51C33.8954 51 33 50.1046 33 49V48.5493ZM25 49.0808C25 48.0656 25.7905 47.2266 26.8035 47.161C26.8494 47.158 26.8953 47.155 26.9412 47.152C28.0543 47.0796 29 47.9608 29 49.0763V49.0763C29 50.1387 28.1387 51 27.0763 51H26.9192C25.8593 51 25 50.1407 25 49.0808V49.0808ZM17 49.3047C17 48.395 17.718 47.6478 18.6268 47.6074C18.8198 47.5988 19.0127 47.5901 19.2055 47.5813C20.1817 47.5365 21 48.3143 21 49.2916V49.2916C21 50.2351 20.2351 51 19.2916 51H18.6953C17.759 51 17 50.241 17 49.3047V49.3047ZM9 49.4438C9 48.5967 9.67767 47.9055 10.5246 47.8851C10.8117 47.8781 11.0987 47.8709 11.3854 47.8634C12.2691 47.8402 13 48.5489 13 49.433V49.433C13 50.2984 12.2984 51 11.433 51H10.5562C9.69672 51 9 50.3033 9 49.4438V49.4438ZM1 50C1 49.4477 1.44772 49 2 49H4C4.55228 49 5 49.4477 5 50V50C5 50.5523 4.55228 51 4 51H2C1.44772 51 1 50.5523 1 50V50Z" fill="#D9D9D9"/>
</svg>
