<svg width="93" height="108" viewBox="0 0 93 108" fill="none" xmlns="http://www.w3.org/2000/svg">
<path d="M45.008 100C17.637 100 4.41976 90.7376 4.62791 68.4661H30.4379C30.8542 75.543 36.1618 77.3122 44.3836 77.3122C53.7501 77.3122 59.0578 74.7104 59.0578 70.0272C59.0578 67.6335 57.6008 61.4932 43.9673 61.4932H39.18V45.2579H43.9673C57.3926 45.2579 58.7456 40.0543 58.7456 37.6606C58.7456 32.7692 53.2297 30.6878 45.6324 30.6878C37.4107 30.6878 32.2071 33.0815 32.2071 39.8462H6.60528C6.39714 17.7828 20.3428 8 45.8406 8C71.7546 8 84.7637 17.7828 84.7637 32.6652C84.7637 42.552 79.1438 47.8597 72.275 51.19V52.6471C81.0171 55.2489 87.5736 62.3258 87.5736 73.5656C87.5736 90.2172 71.4424 100 45.008 100Z" fill="white"/>
</svg>
