<svg width="93" height="108" viewBox="0 0 93 108" fill="none" xmlns="http://www.w3.org/2000/svg">
<path d="M44.9561 99C18.2276 99 5.48977 88.6636 5.9074 67.9907H31.5919C32.6359 74.0464 37.9608 76.4478 44.7473 76.4478C55.0837 76.4478 59.2601 71.123 59.2601 65.4849C59.2601 59.4292 55.0837 54.9397 45.687 54.9397C37.5431 54.9397 34.0977 58.3852 32.2183 60.5777H6.74267L16.6615 9H78.8888V30.8213H38.0652L35.5594 42.7239C38.1696 40.949 43.8076 38.4432 54.1441 38.4432C71.3714 38.4432 86.3018 47.7355 86.3018 67.051C86.3018 86.7842 72.3111 99 44.9561 99Z" fill="white"/>
</svg>
