<svg width="93" height="108" viewBox="0 0 93 108" fill="none" xmlns="http://www.w3.org/2000/svg">
<path d="M51.8235 41.7195C71.0769 41.7195 86.7918 49.9412 86.7918 69.6109C86.7918 87.8235 73.4706 100 46.9321 100C13.9412 100 5.40723 78.5611 5.40723 53.5837C5.40723 19.448 24.9728 8 47.9728 8C70.6606 8 85.543 17.3665 85.0226 37.1403H62.1267C60.9819 31.4163 54.6335 29.4389 47.9728 29.4389C40.6878 29.4389 31.9457 31.9367 32.466 45.2579C37.2534 42.6561 44.2262 41.7195 51.8235 41.7195ZM46.6199 78.7692C55.8823 78.7692 60.8778 74.5023 60.8778 68.8824C60.8778 63.0543 55.8823 59.2036 46.6199 59.2036C37.4615 59.2036 32.6742 62.638 32.6742 68.8824C32.6742 74.5023 37.3575 78.7692 46.6199 78.7692Z" fill="white"/>
</svg>
