<svg width="93" height="108" viewBox="0 0 93 108" fill="none" xmlns="http://www.w3.org/2000/svg">
<path d="M46.0997 100C14.1495 100 4.05444 86.5747 4.05444 72.3167C4.05444 62.2217 9.15399 54.7285 19.0409 49.629V47.9638C13.8372 44.7376 10.4029 38.4932 10.4029 31.7285C10.4029 18.1991 21.5386 8 46.0997 8C70.6608 8 82.0047 18.1991 82.0047 31.7285C82.0047 38.4932 78.3621 44.7376 73.1585 47.9638V49.629C83.0454 54.7285 88.1449 62.2217 88.1449 72.3167C88.1449 86.5747 78.0499 100 46.0997 100ZM46.0997 42.552C53.4888 42.552 56.611 39.638 56.611 35.1629C56.611 30.2715 52.8644 27.5656 46.0997 27.5656C39.335 27.5656 35.5884 30.2715 35.5884 35.1629C35.5884 39.638 38.7105 42.552 46.0997 42.552ZM46.0997 78.3529C56.7151 78.3529 60.1495 73.9819 60.1495 68.6742C60.1495 63.4706 56.611 58.9955 46.0997 58.9955C35.5884 58.9955 32.0499 63.4706 32.0499 68.6742C32.0499 73.9819 35.4843 78.3529 46.0997 78.3529Z" fill="white"/>
</svg>
