<svg width="93" height="108" viewBox="0 0 93 108" fill="none" xmlns="http://www.w3.org/2000/svg">
<path d="M45.267 8C78.2579 8 86.7918 29.4389 86.7918 54.4163C86.7918 88.552 67.2262 100 44.2262 100C21.5384 100 6.6561 90.6335 7.17646 70.8597H30.0724C31.2172 76.5837 37.5656 78.5611 44.2262 78.5611C51.5113 78.5611 60.2534 76.0634 59.733 62.7421C54.9457 65.3439 47.9728 66.2805 40.3756 66.2805C21.1222 66.2805 5.40723 58.0588 5.40723 38.3891C5.40723 20.1765 18.7285 8 45.267 8ZM45.5792 48.7964C54.7375 48.7964 59.5249 45.362 59.5249 39.1177C59.5249 33.4977 54.8416 29.2308 45.5792 29.2308C36.3167 29.2308 31.3213 33.4977 31.3213 39.1177C31.3213 44.9457 36.3167 48.7964 45.5792 48.7964Z" fill="white"/>
</svg>
