<svg width="94" height="108" viewBox="0 0 94 108" fill="none" xmlns="http://www.w3.org/2000/svg">
<g clip-path="url(#clip0_2373_6230)">
<path d="M79.4286 52.6071C88.1072 57 93.3572 63.3214 93.3572 73.6071C93.3572 88.0714 83.1786 99 55.0001 99H0.785767V9H56.5001C83.7143 9 91.0001 21 91.0001 32.8929C91.0001 43.0714 85.7501 47.4643 79.4286 50.8929V52.6071ZM53.3929 31.7143H30.4643V45.2143H53.3929C60.3572 45.2143 62.6072 41.7857 62.6072 38.5714C62.6072 35.1429 60.3572 31.7143 53.3929 31.7143ZM54.0358 76.2857C61.0001 76.2857 63.3572 72 63.3572 68.6786C63.3572 65.25 61.0001 61.3929 54.0358 61.3929H30.4643V76.2857H54.0358Z" fill="white"/>
</g>
<defs>
<clipPath id="clip0_2373_6230">
<rect width="92.5714" height="108" fill="white" transform="translate(0.785767)"/>
</clipPath>
</defs>
</svg>
