<svg width="99" height="108" viewBox="0 0 99 108" fill="none" xmlns="http://www.w3.org/2000/svg">
<g clip-path="url(#clip0_2373_6235)">
<path d="M98.5715 49.2857V99H82.7143L82.2858 87.1071C76.0715 95.6786 64.8215 102 48.9643 102C21.3215 102 0.107178 82.8214 0.107178 54C0.107178 25.1786 20.25 6 51.5358 6C72.8572 6 94.6072 16.2857 98.1429 40.5H68.6786C66.8572 36 60.9643 31.6071 52.1786 31.6071C38.8929 31.6071 29.5715 40.3929 29.5715 54C29.5715 67.6071 39.1072 76.3929 51.3215 76.3929C55.7143 76.3929 66.9643 75.2143 69.9643 64.7143H50.1429V49.2857H98.5715Z" fill="white"/>
</g>
<defs>
<clipPath id="clip0_2373_6235">
<rect width="98.4643" height="108" fill="white" transform="translate(0.107178)"/>
</clipPath>
</defs>
</svg>
