<svg width="116" height="108" viewBox="0 0 116 108" fill="none" xmlns="http://www.w3.org/2000/svg">
<g clip-path="url(#clip0_2373_6220)">
<path d="M35.5085 102L23.1763 93.7076L80.7976 6L93.1298 14.2924L35.5085 102ZM25.1962 55.8605C8.18627 55.8605 0.957031 44.9103 0.957031 32.0465C0.957031 19.289 8.18627 8.33887 25.1962 8.33887C42.2062 8.33887 49.4354 19.289 49.4354 32.0465C49.4354 44.9103 42.2062 55.8605 25.1962 55.8605ZM25.1962 37.7874C29.3424 37.7874 30.9371 34.8106 30.9371 32.0465C30.9371 29.1761 29.3424 26.412 25.1962 26.412C21.0501 26.412 19.4554 29.1761 19.4554 32.0465C19.4554 34.8106 21.0501 37.7874 25.1962 37.7874ZM91.0035 100.193C73.9936 100.193 66.7643 89.2425 66.7643 76.3787C66.7643 63.6213 73.9936 52.6711 91.0035 52.6711C108.014 52.6711 115.243 63.6213 115.243 76.3787C115.243 89.2425 108.014 100.193 91.0035 100.193ZM91.0035 82.1196C95.1497 82.1196 96.7444 79.1429 96.7444 76.3787C96.7444 73.5083 95.1497 70.7442 91.0035 70.7442C86.8574 70.7442 85.2627 73.5083 85.2627 76.3787C85.2627 79.1429 86.8574 82.1196 91.0035 82.1196Z" fill="white"/>
</g>
<defs>
<clipPath id="clip0_2373_6220">
<rect width="114.286" height="108" fill="white" transform="translate(0.957031)"/>
</clipPath>
</defs>
</svg>
