<svg width="99" height="108" viewBox="0 0 99 108" fill="none" xmlns="http://www.w3.org/2000/svg">
<g clip-path="url(#clip0_2373_6245)">
<path d="M98.678 51.3563C98.678 63.3685 94.0181 72.6883 86.6658 80.1442L98.0567 91.7421C93.2932 97.9553 88.1155 103.029 82.1094 108L67.9226 95.0558C62.4343 97.2304 56.014 98.7837 49.3866 98.7837C19.4597 98.7837 0.0952148 80.2477 0.0952148 52.3919C0.0952148 24.536 19.4597 6 49.3866 6C79.3135 6 98.678 24.536 98.678 51.3563ZM28.5724 52.3919C28.5724 66.1645 37.9957 74.0345 49.3866 74.0345C60.7775 74.0345 70.2008 66.1645 70.2008 52.3919C70.2008 38.6193 60.7775 30.7492 49.3866 30.7492C37.9957 30.7492 28.5724 38.6193 28.5724 52.3919Z" fill="white"/>
</g>
<defs>
<clipPath id="clip0_2373_6245">
<rect width="98.5828" height="108" fill="white" transform="translate(0.0952148)"/>
</clipPath>
</defs>
</svg>
