<svg width="85" height="108" viewBox="0 0 85 108" fill="none" xmlns="http://www.w3.org/2000/svg">
<g clip-path="url(#clip0_2373_6219)">
<path d="M28.287 66.3554C24.8975 41.3166 54.4191 48.205 54.4191 36.9431C54.4191 32.7882 49.3895 30.0547 42.2824 30.0547C36.0501 30.0547 27.631 31.8041 27.631 41.9727H0.296114C-0.79728 17.4806 14.9476 6 42.0638 6C67.3212 6 84.4875 14.3098 84.4875 33.4442C84.4875 58.2642 57.59 50.7198 57.3713 66.3554H28.287ZM42.7198 102C34.5193 102 27.631 95.221 27.631 87.1298C27.631 79.0387 34.5193 72.2597 42.7198 72.2597C50.9203 72.2597 57.8086 79.0387 57.8086 87.1298C57.8086 95.221 50.9203 102 42.7198 102Z" fill="white"/>
</g>
<defs>
<clipPath id="clip0_2373_6219">
<rect width="84.2448" height="108" fill="white" transform="translate(0.242676)"/>
</clipPath>
</defs>
</svg>
