<svg width="92" height="108" viewBox="0 0 92 108" fill="none" xmlns="http://www.w3.org/2000/svg">
<g clip-path="url(#clip0_2373_6247)">
<path d="M45.1923 101.999C14.1545 101.892 -0.508141 92.2492 0.241045 68.8923H26.8907C27.2118 74.9994 32.3491 78.7494 45.1923 78.8565C56.5371 78.9636 61.7814 75.7494 61.7814 71.5708C61.7814 68.678 60.176 65.678 51.3998 64.3923L39.8409 62.5709C22.8237 59.7852 2.38158 57.7495 2.38158 34.714C2.38158 16.9285 16.8302 6 45.4063 6C71.1997 6 89.1802 13.1785 88.6451 38.8926H62.2095C61.1392 32.8926 56.109 29.1426 44.7642 29.1426C34.9177 29.1426 30.8507 32.1426 30.8507 36.214C30.8507 38.7854 32.4561 41.8925 39.3058 42.964L48.8312 44.5711C66.7046 47.5711 91.2137 48.1068 91.2137 72.7494C91.2137 92.3564 76.016 102.106 45.1923 101.999Z" fill="white"/>
</g>
<defs>
<clipPath id="clip0_2373_6247">
<rect width="91" height="108" fill="white" transform="translate(0.213745)"/>
</clipPath>
</defs>
</svg>
