<svg width="547" height="155" viewBox="0 0 547 155" fill="none" xmlns="http://www.w3.org/2000/svg">
<path d="M1 25.48C1 11.9601 11.9601 1 25.48 1H521.2C534.72 1 545.68 11.9601 545.68 25.48V129.52C545.68 143.04 534.72 154 521.2 154H25.48C11.9601 154 1 143.04 1 129.52V25.48Z" fill="#FFDD00"/>
<path d="M109.859 50.9755L109.792 50.9355L109.636 50.8874C109.699 50.9409 109.777 50.9719 109.859 50.9755Z" fill="#0D0C22"/>
<path d="M109.887 50.9637C109.878 50.9626 109.87 50.9606 109.862 50.9578C109.861 50.9633 109.861 50.9688 109.862 50.9743C109.871 50.9731 109.879 50.9694 109.887 50.9637Z" fill="#0D0C22"/>
<path d="M109.861 50.9782H109.874V50.9704L109.861 50.9782Z" fill="#0D0C22"/>
<path d="M110.787 58.0496L110.9 57.9843L110.942 57.9602L110.98 57.9188C110.909 57.9502 110.843 57.9945 110.787 58.0496Z" fill="#0D0C22"/>
<path d="M110.053 51.1311L109.942 51.0243L109.867 50.983C109.908 51.0551 109.974 51.1083 110.053 51.1311Z" fill="#0D0C22"/>
<path d="M82.1318 119.9C82.0433 119.939 81.9659 119.999 81.9065 120.076L81.9763 120.031C82.0237 119.987 82.0909 119.935 82.1318 119.9Z" fill="#0D0C22"/>
<path d="M98.3477 116.679C98.3477 116.577 98.2989 116.595 98.3108 116.956C98.3108 116.927 98.3227 116.897 98.3279 116.869C98.3345 116.805 98.3398 116.742 98.3477 116.679Z" fill="#0D0C22"/>
<path d="M96.6725 119.9C96.5841 119.939 96.5067 119.999 96.4473 120.076L96.5171 120.031C96.5645 119.987 96.6317 119.935 96.6725 119.9Z" fill="#0D0C22"/>
<path d="M70.7052 120.667C70.6381 120.608 70.5559 120.569 70.4681 120.555C70.5392 120.59 70.6103 120.624 70.6578 120.651L70.7052 120.667Z" fill="#0D0C22"/>
<path d="M68.1395 118.182C68.1291 118.077 68.0972 117.975 68.046 117.883C68.0823 117.978 68.1126 118.077 68.1369 118.177L68.1395 118.182Z" fill="#0D0C22"/>
<path d="M85.3992 73.725C81.8711 75.2504 77.8673 76.9799 72.6782 76.9799C70.5075 76.9755 68.3473 76.6747 66.2563 76.0857L69.8452 113.3C69.9722 114.855 70.6739 116.306 71.8107 117.362C72.9474 118.42 74.4363 119.007 75.9817 119.006C75.9817 119.006 81.0703 119.273 82.7683 119.273C84.5958 119.273 90.0756 119.006 90.0756 119.006C91.6206 119.006 93.1092 118.419 94.2458 117.362C95.3823 116.305 96.0838 114.855 96.2107 113.3L100.055 72.1769C98.3369 71.5844 96.6033 71.1907 94.6488 71.1907C91.2688 71.1894 88.5454 72.365 85.3992 73.725Z" fill="white"/>
<path d="M55.1539 57.8485L55.2145 57.9058L55.254 57.9299C55.2236 57.8993 55.19 57.8719 55.1539 57.8485Z" fill="#0D0C22"/>
<path d="M116.657 54.414L116.118 51.6609C115.632 49.1906 114.532 46.8565 112.021 45.9637C111.217 45.6781 110.303 45.5553 109.686 44.9642C109.069 44.373 108.887 43.4548 108.744 42.6033C108.48 41.0406 108.232 39.4765 107.961 37.9165C107.727 36.5753 107.541 35.0685 106.933 33.8381C106.14 32.1859 104.495 31.2198 102.859 30.5805C102.021 30.2644 101.165 29.9971 100.297 29.7798C96.2096 28.6907 91.9124 28.2904 87.7077 28.0622C82.661 27.781 77.6008 27.8657 72.566 28.3158C68.8186 28.66 64.8716 29.0765 61.3105 30.3856C60.0089 30.8648 58.6678 31.4399 57.678 32.4555C56.4637 33.7033 56.0673 35.6331 56.9539 37.1891C57.5842 38.2941 58.6519 39.0748 59.7843 39.5913C61.2593 40.2568 62.7998 40.7631 64.38 41.102C68.7803 42.0842 73.3378 42.4699 77.8331 42.634C82.8155 42.8372 87.806 42.6725 92.7647 42.1416C93.9909 42.0055 95.215 41.8422 96.4369 41.6519C97.8758 41.429 98.7994 39.5286 98.3753 38.2047C97.8678 36.622 96.5043 36.008 94.9621 36.2469C94.7349 36.283 94.5089 36.3163 94.2816 36.3498L94.1178 36.3738C93.5954 36.4404 93.073 36.5027 92.5506 36.5606C91.4715 36.678 90.3898 36.7741 89.3053 36.8488C86.8767 37.0196 84.4413 37.0984 82.0073 37.1024C79.6157 37.1024 77.2226 37.0343 74.8362 36.8755C73.7473 36.8034 72.6612 36.7118 71.5776 36.6006C71.0847 36.5485 70.5932 36.4938 70.1016 36.4324L69.6339 36.3723L69.5322 36.3578L69.0472 36.2869C68.0561 36.1362 67.0651 35.9627 66.0847 35.7532C65.9858 35.731 65.8972 35.6755 65.8338 35.5956C65.7704 35.5158 65.7358 35.4164 65.7358 35.3141C65.7358 35.2118 65.7704 35.1125 65.8338 35.0327C65.8972 34.9528 65.9858 34.8972 66.0847 34.875H66.1031C66.9528 34.6922 67.8091 34.5361 68.6679 34.3999C68.9543 34.3546 69.2415 34.31 69.5295 34.2665H69.5374C70.0752 34.2304 70.6157 34.1331 71.1508 34.0689C75.8069 33.5798 80.4907 33.4131 85.1694 33.5699C87.4408 33.6365 89.711 33.7714 91.9718 34.0036C92.4581 34.0543 92.9418 34.1077 93.4254 34.1677C93.6104 34.1904 93.7967 34.2171 93.983 34.2398L94.3583 34.2945C95.4524 34.4591 96.5408 34.6588 97.6234 34.8938C99.2276 35.246 101.287 35.3608 102.001 37.1358C102.228 37.699 102.331 38.3248 102.457 38.9161L102.617 39.67C102.621 39.6836 102.624 39.6975 102.626 39.7114C103.005 41.4908 103.383 43.2701 103.761 45.0496C103.789 45.181 103.79 45.3169 103.763 45.4486C103.737 45.5803 103.684 45.7051 103.607 45.8151C103.531 45.9252 103.433 46.0182 103.32 46.0883C103.206 46.1584 103.079 46.2041 102.947 46.2226H102.936L102.706 46.2547L102.477 46.2854C101.753 46.3806 101.027 46.4695 100.302 46.5523C98.8721 46.7168 97.4402 46.8593 96.006 46.9793C93.1563 47.2187 90.3008 47.3757 87.4395 47.4504C85.9816 47.4896 84.5241 47.5078 83.0671 47.5051C77.2675 47.5005 71.473 47.1601 65.712 46.4855C65.0883 46.4108 64.4647 46.3307 63.841 46.2493C64.3246 46.3121 63.4895 46.2013 63.3204 46.1773C62.924 46.1212 62.5275 46.063 62.1311 46.0024C60.8004 45.8009 59.4778 45.5527 58.1498 45.3352C56.5443 45.0682 55.0088 45.2018 53.5567 46.0024C52.3646 46.6612 51.3998 47.6715 50.791 48.8984C50.1646 50.2062 49.9784 51.6302 49.6982 53.0355C49.4181 54.4408 48.982 55.9528 49.1472 57.3954C49.5026 60.5089 51.6578 63.0392 54.7578 63.605C57.674 64.1388 60.6062 64.5713 63.5463 64.9396C75.0956 66.3682 86.7634 66.5391 98.3488 65.4494C99.2923 65.3604 100.235 65.2634 101.175 65.1585C101.469 65.1259 101.767 65.16 102.046 65.2586C102.324 65.357 102.578 65.5173 102.788 65.7276C102.998 65.938 103.159 66.1931 103.258 66.4743C103.358 66.7554 103.394 67.0555 103.364 67.3525L103.07 70.2324C102.479 76.0518 101.888 81.8709 101.297 87.6895C100.68 93.7999 100.06 99.91 99.4351 106.019C99.2588 107.74 99.0827 109.46 98.9064 111.181C98.7373 112.873 98.7135 114.621 98.3951 116.295C97.893 118.926 96.1289 120.542 93.5549 121.133C91.1966 121.675 88.7876 121.96 86.3692 121.982C83.6882 121.996 81.0083 121.877 78.3273 121.891C75.4652 121.907 71.9595 121.641 69.7501 119.489C67.8091 117.599 67.5408 114.64 67.2765 112.082C66.9242 108.696 66.5749 105.309 66.2287 101.922L64.2862 83.0934L63.0296 70.9103C63.0085 70.7088 62.9874 70.5099 62.9675 70.3071C62.8169 68.8539 61.7981 67.4312 60.1927 67.5046C58.8183 67.5659 57.2565 68.7457 57.4177 70.3071L58.3493 79.3393L60.2758 98.0229C60.8247 103.33 61.3722 108.638 61.9184 113.946C62.0241 114.963 62.1232 115.984 62.2341 117C62.838 122.557 67.04 125.552 72.2436 126.395C75.2828 126.889 78.396 126.991 81.4801 127.041C85.4336 127.105 89.4269 127.259 93.3158 126.536C99.0783 125.468 103.402 121.582 104.019 115.553C104.195 113.814 104.372 112.072 104.547 110.332C105.133 104.573 105.718 98.8148 106.303 93.0557L108.213 74.2386L109.089 65.6149C109.132 65.1873 109.312 64.7852 109.599 64.4682C109.887 64.1512 110.268 63.936 110.685 63.8547C112.333 63.5303 113.908 62.9765 115.081 61.71C116.946 59.6935 117.318 57.0644 116.657 54.414ZM54.6732 56.2744C54.6983 56.2624 54.652 56.4799 54.6323 56.5814C54.6283 56.4279 54.6362 56.2918 54.6732 56.2744ZM54.8331 57.5236C54.8463 57.5142 54.886 57.5676 54.9269 57.6317C54.8648 57.5729 54.8252 57.5289 54.8318 57.5236H54.8331ZM54.9904 57.7331C55.0775 57.8919 55.0472 57.8305 54.9904 57.7331ZM55.3061 57.992H55.3141C55.3141 58.0013 55.3286 58.0107 55.3339 58.02C55.3251 58.0097 55.3154 58.0003 55.3048 57.992H55.3061ZM110.609 57.6049C110.017 58.1734 109.124 58.4378 108.244 58.5699C98.3595 60.0512 88.3314 60.8012 78.3391 60.4702C71.1879 60.2233 64.1118 59.4212 57.0319 58.411C56.3381 58.3122 55.5863 58.1842 55.1092 57.6677C54.2107 56.6935 54.652 54.7316 54.886 53.5547C55.1 52.4763 55.5097 51.039 56.7795 50.8855C58.7616 50.6507 61.0634 51.4954 63.0244 51.7957C65.3852 52.1596 67.7549 52.4509 70.1334 52.6698C80.2842 53.604 90.6055 53.4585 100.711 52.092C102.553 51.842 104.389 51.5515 106.217 51.2205C107.847 50.9255 109.653 50.3718 110.638 52.076C111.313 53.237 111.402 54.7904 111.298 56.1022C111.266 56.6738 111.019 57.2114 110.607 57.6049H110.609Z" fill="#0D0C22"/>
<path fill-rule="evenodd" clip-rule="evenodd" d="M170.56 85.3409C169.983 86.4533 169.19 87.4222 168.18 88.2444C167.17 89.0671 165.992 89.7369 164.645 90.2527C163.299 90.7696 161.944 91.1165 160.582 91.2933C159.218 91.4708 157.895 91.4554 156.614 91.2448C155.331 91.0355 154.24 90.6082 153.343 89.9622L154.354 79.3638C155.283 79.0415 156.453 78.7105 157.864 78.3717C159.275 78.0333 160.725 77.7908 162.217 77.6459C163.708 77.5004 165.117 77.5175 166.449 77.6944C167.779 77.8718 168.829 78.2991 169.598 78.977C170.016 79.3638 170.369 79.7832 170.656 80.235C170.945 80.6869 171.121 81.1548 171.186 81.6386C171.346 82.9936 171.138 84.2277 170.56 85.3409ZM155.892 62.7644C156.565 62.3451 157.376 61.9736 158.321 61.6506C159.266 61.329 160.236 61.1023 161.231 60.9735C162.224 60.8451 163.194 60.8279 164.14 60.9249C165.085 61.0219 165.92 61.2878 166.641 61.7231C167.362 62.1591 167.899 62.7884 168.252 63.6105C168.604 64.4338 168.7 65.4744 168.54 66.7325C168.413 67.7327 168.018 68.5799 167.362 69.2732C166.705 69.9675 165.903 70.5477 164.958 71.0156C164.012 71.4841 163.01 71.8549 161.953 72.1281C160.893 72.4032 159.875 72.6052 158.898 72.7335C157.92 72.8631 157.071 72.9441 156.35 72.9754C155.628 73.008 155.155 73.0239 154.93 73.0239L155.892 62.7644ZM175.754 78.4926C175.242 77.3641 174.552 76.3719 173.687 75.516C172.821 74.6614 171.794 74.0407 170.608 73.6533C171.121 73.2339 171.626 72.5726 172.124 71.6689C172.621 70.7663 173.045 69.7815 173.398 68.7169C173.75 67.6516 173.992 66.5796 174.119 65.4985C174.247 64.4178 174.198 63.4901 173.976 62.7152C173.429 60.7801 172.572 59.2635 171.402 58.1663C170.231 57.0698 168.869 56.3115 167.314 55.8916C165.758 55.4735 164.044 55.3838 162.168 55.6258C160.293 55.8676 158.377 56.3434 156.422 57.0532C156.422 56.8923 156.438 56.7229 156.47 56.5454C156.501 56.3687 156.517 56.1826 156.517 55.9886C156.517 55.5048 156.277 55.086 155.796 54.7305C155.315 54.3756 154.763 54.1663 154.138 54.1012C153.512 54.0374 152.903 54.1736 152.309 54.5126C151.716 54.8515 151.307 55.4735 151.083 56.3753C150.827 59.2795 150.57 62.2965 150.314 65.4254C150.057 68.5554 149.784 71.7174 149.496 74.9119C149.208 78.1057 148.919 81.2757 148.631 84.4211C148.342 87.5671 148.053 90.5915 147.765 93.495C147.861 94.3662 148.101 95.0441 148.486 95.5279C148.871 96.0123 149.32 96.3027 149.832 96.3992C150.345 96.4961 150.883 96.4065 151.443 96.1326C152.004 95.8594 152.494 95.3824 152.911 94.7052C154.193 95.415 155.636 95.8748 157.239 96.0848C158.842 96.2941 160.468 96.2941 162.121 96.0848C163.771 95.8748 165.398 95.48 167.001 94.8986C168.604 94.3183 170.064 93.5921 171.378 92.7214C172.693 91.8502 173.798 90.8574 174.697 89.7449C175.594 88.6311 176.187 87.4295 176.475 86.1396C176.764 84.8165 176.845 83.4941 176.716 82.1709C176.588 80.8484 176.267 79.6229 175.754 78.4926Z" fill="#0D0C23"/>
<path fill-rule="evenodd" clip-rule="evenodd" d="M222.673 104.045C222.498 105.109 222.248 106.231 221.928 107.409C221.607 108.585 221.231 109.659 220.799 110.627C220.365 111.595 219.885 112.376 219.356 112.974C218.827 113.57 218.257 113.821 217.648 113.724C217.167 113.659 216.862 113.353 216.735 112.805C216.606 112.255 216.606 111.578 216.735 110.772C216.862 109.965 217.11 109.053 217.479 108.037C217.848 107.021 218.298 106.012 218.827 105.013C219.356 104.012 219.957 103.053 220.63 102.133C221.303 101.214 222.008 100.447 222.746 99.8346C222.906 100.028 222.978 100.512 222.962 101.287C222.945 102.061 222.85 102.981 222.673 104.045ZM238.977 83.0412C238.544 82.5574 238.015 82.2835 237.39 82.2185C236.765 82.154 236.131 82.5088 235.491 83.2831C235.073 84.0573 234.544 84.7996 233.903 85.5094C233.262 86.2197 232.597 86.8644 231.908 87.4452C231.218 88.0254 230.561 88.5264 229.936 88.9452C229.311 89.3651 228.821 89.6715 228.469 89.8649C228.341 88.8328 228.268 87.7197 228.252 86.5255C228.235 85.3319 228.26 84.1224 228.325 82.8962C228.42 81.1539 228.621 79.396 228.926 77.621C229.23 75.8467 229.671 74.1042 230.249 72.3936C230.249 71.4911 230.039 70.7568 229.623 70.1919C229.205 69.6277 228.701 69.2722 228.108 69.1273C227.514 68.9824 226.906 69.0628 226.28 69.3692C225.655 69.6762 225.119 70.233 224.669 71.0386C224.285 72.1039 223.844 73.2974 223.347 74.6199C222.85 75.943 222.289 77.2901 221.664 78.6611C221.038 80.0333 220.341 81.3638 219.572 82.6538C218.802 83.945 217.961 85.0907 217.047 86.0902C216.133 87.0904 215.139 87.8732 214.066 88.4374C212.991 89.0022 211.83 89.2522 210.579 89.1877C210.001 89.0262 209.584 88.5909 209.328 87.8806C209.072 87.1714 208.919 86.2835 208.872 85.2189C208.824 84.1543 208.872 82.9847 209.015 81.71C209.16 80.4361 209.352 79.1694 209.593 77.9114C209.833 76.6528 210.098 75.4592 210.386 74.3301C210.674 73.201 210.946 72.2488 211.203 71.4746C211.588 70.5394 211.588 69.756 211.203 69.1273C210.819 68.498 210.29 68.0792 209.617 67.8686C208.944 67.6593 208.238 67.6678 207.501 67.8932C206.763 68.1192 206.234 68.6189 205.914 69.3931C205.368 70.7169 204.871 72.2002 204.422 73.8457C203.974 75.4912 203.613 77.1937 203.341 78.9515C203.068 80.7105 202.915 82.453 202.883 84.1789C202.881 84.2912 202.887 84.398 202.887 84.5098C202.187 86.3855 201.521 87.8032 200.888 88.7518C200.071 89.9784 199.148 90.5108 198.123 90.3487C197.672 90.1553 197.378 89.704 197.233 88.9936C197.088 88.2845 197.041 87.4133 197.088 86.38C197.137 85.3485 197.257 84.1789 197.449 82.8717C197.642 81.5652 197.881 80.2102 198.17 78.8066C198.459 77.4025 198.764 75.9922 199.084 74.572C199.405 73.1525 199.693 71.8134 199.95 70.5548C199.918 69.4257 199.589 68.5631 198.963 67.9657C198.34 67.3695 197.465 67.1356 196.343 67.2639C195.574 67.5868 195.004 68.0068 194.636 68.5226C194.267 69.0382 193.97 69.7002 193.746 70.5063C193.617 70.9263 193.425 71.7649 193.169 73.0235C192.912 74.281 192.584 75.7257 192.183 77.3545C191.782 78.9847 191.309 80.686 190.764 82.4603C190.22 84.2347 189.61 85.8409 188.938 87.2757C188.264 88.7113 187.526 89.8649 186.725 90.7361C185.923 91.6067 185.058 91.9622 184.128 91.8007C183.614 91.7038 183.286 91.1714 183.142 90.2038C182.997 89.2355 182.974 88.0426 183.07 86.6225C183.166 85.203 183.359 83.6459 183.646 81.9526C183.935 80.2586 184.231 78.6537 184.536 77.1366C184.841 75.6207 185.122 74.281 185.379 73.12C185.635 71.9583 185.811 71.1841 185.907 70.7973C185.907 69.8616 185.698 69.112 185.282 68.5465C184.865 67.9828 184.361 67.6273 183.767 67.4818C183.173 67.337 182.564 67.4174 181.94 67.7238C181.314 68.0307 180.778 68.5876 180.328 69.3931C180.168 70.2644 179.959 71.2732 179.703 72.4182C179.446 73.5632 179.199 74.7409 178.958 75.951C178.717 77.1611 178.493 78.3467 178.285 79.5083C178.076 80.67 177.924 81.6861 177.828 82.5574C177.763 83.2346 177.691 84.0659 177.612 85.0495C177.531 86.0343 177.49 87.0744 177.49 88.1709C177.49 89.2688 177.571 90.3573 177.732 91.4379C177.892 92.5191 178.181 93.5113 178.597 94.4139C179.013 95.3176 179.599 96.0593 180.353 96.6401C181.106 97.2209 182.06 97.5432 183.214 97.6084C184.4 97.6722 185.434 97.5844 186.317 97.3418C187.197 97.0999 187.999 96.7205 188.721 96.2042C189.442 95.689 190.099 95.0757 190.693 94.3653C191.285 93.6562 191.871 92.882 192.447 92.0427C192.993 93.2694 193.698 94.2205 194.564 94.8982C195.43 95.5754 196.343 95.9795 197.305 96.1078C198.266 96.2361 199.245 96.1004 200.239 95.6964C201.232 95.2936 202.13 94.6079 202.932 93.6396C203.46 93.0459 203.958 92.3711 204.425 91.6252C204.624 91.9745 204.835 92.3115 205.072 92.6228C205.858 93.6562 206.924 94.3653 208.271 94.7527C209.713 95.1401 211.123 95.2053 212.502 94.9467C213.88 94.6889 215.195 94.2205 216.445 93.5432C217.696 92.8654 218.858 92.0513 219.933 91.099C221.006 90.1473 221.944 89.1557 222.746 88.1225C222.713 88.8648 222.697 89.5671 222.697 90.2277C222.697 90.8896 222.681 91.6067 222.65 92.3815C221.046 93.5113 219.532 94.8663 218.105 96.4467C216.678 98.0271 215.427 99.713 214.354 101.504C213.279 103.294 212.438 105.109 211.83 106.948C211.22 108.788 210.923 110.506 210.939 112.104C210.955 113.7 211.331 115.095 212.07 116.289C212.806 117.483 214.009 118.337 215.676 118.854C217.408 119.403 218.93 119.418 220.246 118.902C221.56 118.386 222.705 117.531 223.683 116.337C224.661 115.144 225.463 113.7 226.089 112.006C226.714 110.312 227.21 108.546 227.579 106.707C227.948 104.868 228.18 103.06 228.277 101.287C228.373 99.5116 228.373 97.93 228.277 96.5431C231.034 95.382 233.294 93.914 235.057 92.139C236.821 90.3659 238.279 88.4939 239.434 86.5255C239.786 86.0416 239.906 85.4608 239.795 84.7836C239.682 84.1058 239.41 83.525 238.977 83.0412Z" fill="#0D0C23"/>
<path fill-rule="evenodd" clip-rule="evenodd" d="M299.645 79.9451C299.741 79.2034 299.886 78.4206 300.077 77.5979C300.27 76.7752 300.511 75.9763 300.799 75.2022C301.087 74.428 301.424 73.7587 301.809 73.1938C302.194 72.6296 302.603 72.2263 303.035 71.9837C303.469 71.7424 303.908 71.7663 304.358 72.0562C304.839 72.3472 305.135 72.9599 305.248 73.895C305.359 74.8319 305.248 75.8315 304.911 76.8961C304.574 77.9614 303.973 78.9609 303.107 79.8966C302.242 80.8329 301.071 81.445 299.597 81.7355C299.533 81.2848 299.549 80.6874 299.645 79.9451ZM316.308 81.9289C315.779 81.7686 315.275 81.7521 314.793 81.8809C314.313 82.0099 314.008 82.3488 313.881 82.8978C313.623 83.9298 313.214 84.9864 312.653 86.067C312.092 87.1483 311.403 88.1723 310.586 89.1406C309.769 90.1082 308.846 90.9635 307.821 91.7052C306.794 92.4475 305.721 92.9797 304.598 93.3021C303.476 93.6576 302.546 93.6975 301.809 93.4231C301.071 93.1498 300.486 92.6814 300.054 92.0202C299.621 91.3589 299.308 90.5601 299.116 89.6245C298.924 88.6887 298.811 87.7211 298.779 86.7203C300.607 86.8499 302.234 86.5196 303.661 85.7282C305.087 84.9386 306.297 83.8892 307.291 82.5827C308.284 81.2762 309.039 79.8082 309.551 78.1787C310.064 76.5498 310.353 74.9283 310.417 73.3148C310.449 71.7982 310.225 70.5163 309.744 69.4677C309.263 68.4195 308.613 67.6036 307.796 67.0234C306.979 66.4426 306.04 66.1037 304.983 66.0073C303.926 65.9103 302.851 66.0557 301.76 66.4426C300.445 66.8945 299.332 67.6281 298.418 68.645C297.504 69.6611 296.743 70.8393 296.134 72.1777C295.525 73.5168 295.044 74.9602 294.692 76.5087C294.339 78.0577 294.082 79.5823 293.922 81.0828C293.778 82.4292 293.701 83.7167 293.673 84.9595C293.604 85.1172 293.538 85.2688 293.465 85.4377C292.967 86.584 292.39 87.7051 291.734 88.8016C291.077 89.8989 290.346 90.8186 289.546 91.5602C288.744 92.3026 287.911 92.5604 287.045 92.3345C286.532 92.2062 286.252 91.6081 286.204 90.5441C286.155 89.4789 286.211 88.1564 286.371 86.5754C286.532 84.995 286.716 83.2839 286.925 81.445C287.132 79.6062 287.237 77.8484 287.237 76.1704C287.237 74.7183 286.964 73.3234 286.419 71.9837C285.874 70.6459 285.128 69.5321 284.183 68.645C283.237 67.7571 282.139 67.1683 280.889 66.8786C279.638 66.5875 278.292 66.7815 276.85 67.4587C275.406 68.1366 274.26 69.0882 273.411 70.3143C272.561 71.541 271.783 72.831 271.078 74.186C270.821 73.1533 270.445 72.1943 269.948 71.3065C269.451 70.4193 268.842 69.6451 268.121 68.9832C267.399 68.3226 266.588 67.8062 265.693 67.4347C264.795 67.0646 263.848 66.8786 262.854 66.8786C261.893 66.8786 261.003 67.0646 260.186 67.4347C259.368 67.8062 258.623 68.2815 257.949 68.8623C257.276 69.4437 256.667 70.0964 256.121 70.8226C255.576 71.5484 255.095 72.2668 254.679 72.9759C254.613 72.1372 254.542 71.4035 254.463 70.7735C254.382 70.1449 254.237 69.6125 254.03 69.1772C253.821 68.7413 253.525 68.411 253.14 68.185C252.755 67.9597 252.21 67.8461 251.505 67.8461C251.152 67.8461 250.799 67.9186 250.447 68.0635C250.094 68.209 249.781 68.411 249.509 68.6689C249.236 68.928 249.028 69.2417 248.884 69.6125C248.739 69.9834 248.7 70.4113 248.763 70.8951C248.796 71.2506 248.884 71.6774 249.028 72.1777C249.172 72.6781 249.308 73.332 249.437 74.1375C249.565 74.9443 249.669 75.9205 249.75 77.0656C249.83 78.2113 249.853 79.6148 249.822 81.2762C249.789 82.9383 249.669 84.8815 249.461 87.1077C249.252 89.334 248.923 91.9151 248.475 94.8506C248.41 95.5283 248.667 96.0773 249.245 96.4966C249.822 96.9153 250.479 97.1572 251.216 97.2223C251.953 97.2868 252.651 97.1572 253.308 96.8355C253.965 96.5119 254.343 95.9477 254.438 95.1415C254.534 93.6251 254.719 92.0122 254.992 90.3016C255.263 88.5923 255.6 86.8984 256.002 85.2203C256.402 83.543 256.858 81.9461 257.372 80.4289C257.885 78.9124 258.454 77.574 259.079 76.4123C259.705 75.2507 260.354 74.3235 261.027 73.6298C261.7 72.936 262.405 72.589 263.144 72.589C264.04 72.589 264.738 72.9998 265.235 73.8226C265.732 74.6459 266.084 75.7031 266.293 76.9925C266.501 78.2837 266.597 79.6958 266.582 81.2277C266.565 82.7602 266.501 84.2361 266.39 85.6556C266.277 87.0758 266.149 88.3418 266.004 89.455C265.86 90.5681 265.756 91.3349 265.693 91.7536C265.693 92.496 265.972 93.0842 266.533 93.5201C267.094 93.9553 267.719 94.2139 268.409 94.2943C269.099 94.3754 269.747 94.2458 270.357 93.9069C270.966 93.5679 271.319 92.9964 271.415 92.1889C271.735 89.8663 272.176 87.5357 272.737 85.1964C273.298 82.8572 273.94 80.7605 274.661 78.905C275.382 77.0496 276.184 75.5331 277.065 74.3555C277.947 73.1786 278.885 72.589 279.879 72.589C280.392 72.589 280.785 72.9445 281.057 73.6537C281.33 74.3634 281.466 75.3311 281.466 76.5572C281.466 77.461 281.394 78.3887 281.25 79.3404C281.105 80.292 280.937 81.2762 280.745 82.2923C280.552 83.3091 280.384 84.3492 280.239 85.4138C280.096 86.4791 280.024 87.5915 280.024 88.7532C280.024 89.5599 280.104 90.4956 280.264 91.5602C280.424 92.6243 280.728 93.6337 281.177 94.5847C281.626 95.5369 282.243 96.3431 283.03 97.0044C283.815 97.6656 284.816 97.9966 286.034 97.9966C287.863 97.9966 289.481 97.6012 290.892 96.811C292.302 96.0208 293.513 94.9887 294.523 93.7141C294.575 93.6472 294.623 93.5759 294.675 93.5097C294.752 93.6981 294.82 93.8977 294.907 94.0769C295.596 95.4964 296.534 96.593 297.721 97.3679C298.907 98.1421 300.302 98.5694 301.906 98.6504C303.508 98.7303 305.255 98.4319 307.148 97.7547C308.557 97.2383 309.784 96.593 310.826 95.8188C311.867 95.0446 312.805 94.1009 313.639 92.9878C314.473 91.8746 315.234 90.592 315.924 89.1406C316.614 87.688 317.31 86.0271 318.015 84.1551C318.144 83.64 318.023 83.1801 317.655 82.7762C317.286 82.3734 316.838 82.0909 316.308 81.9289Z" fill="#0D0C23"/>
<path fill-rule="evenodd" clip-rule="evenodd" d="M342.445 76.5307C342.285 77.483 342.069 78.5322 341.796 79.6767C341.524 80.8224 341.179 82.008 340.762 83.2341C340.346 84.4601 339.832 85.5653 339.223 86.5489C338.615 87.5337 337.916 88.3153 337.132 88.8961C336.346 89.4769 335.441 89.7189 334.415 89.6218C333.901 89.558 333.508 89.2031 333.236 88.5572C332.963 87.9126 332.82 87.0892 332.803 86.089C332.787 85.0894 332.875 83.9923 333.068 82.7982C333.26 81.6052 333.556 80.435 333.958 79.2893C334.359 78.1448 334.847 77.0876 335.424 76.1193C336.002 75.1517 336.667 74.4014 337.42 73.8692C338.173 73.3368 339 73.0876 339.897 73.1189C340.794 73.1514 341.756 73.6026 342.782 74.4739C342.717 74.8939 342.606 75.5796 342.445 76.5307ZM359.542 80.233C359.044 79.975 358.532 79.9192 358.003 80.0641C357.475 80.209 357.097 80.7014 356.874 81.5401C356.745 82.4439 356.456 83.5079 356.008 84.7339C355.559 85.9601 355.005 87.1224 354.349 88.2183C353.691 89.3155 352.938 90.2272 352.088 90.9529C351.238 91.6793 350.333 92.0102 349.372 91.9445C348.569 91.8807 348.007 91.4693 347.688 90.7111C347.366 89.9528 347.199 89.0017 347.183 87.8554C347.166 86.711 347.279 85.4204 347.519 83.9844C347.76 82.5489 348.049 81.1213 348.385 79.7006C348.722 78.2817 349.067 76.9181 349.42 75.6115C349.772 74.3051 350.06 73.1999 350.285 72.2968C350.541 71.49 350.461 70.8048 350.045 70.2393C349.627 69.6756 349.107 69.2716 348.482 69.0298C347.856 68.7879 347.222 68.7234 346.581 68.8363C345.94 68.9494 345.524 69.2962 345.331 69.8764C343.439 68.231 341.62 67.3438 339.873 67.2149C338.125 67.0859 336.514 67.4733 335.04 68.3765C333.564 69.2796 332.258 70.5862 331.121 72.2968C329.982 74.0072 329.06 75.8701 328.354 77.8864C327.649 79.9026 327.209 81.96 327.032 84.0568C326.855 86.1541 326.992 88.066 327.441 89.7919C327.891 91.5178 328.683 92.9299 329.822 94.0258C330.959 95.123 332.507 95.672 334.463 95.672C335.328 95.672 336.162 95.4945 336.964 95.1396C337.764 94.7841 338.502 94.3648 339.175 93.881C339.848 93.3971 340.441 92.8888 340.956 92.3565C341.467 91.8241 341.869 91.3809 342.157 91.0254C342.381 92.187 342.75 93.1718 343.264 93.978C343.775 94.7841 344.361 95.4466 345.018 95.9617C345.675 96.4775 346.365 96.8569 347.087 97.0994C347.808 97.3413 348.506 97.4623 349.178 97.4623C350.686 97.4623 352.095 96.9459 353.411 95.9132C354.725 94.8818 355.904 93.6145 356.946 92.1146C357.987 90.614 358.846 89.0336 359.518 87.3716C360.192 85.7102 360.64 84.2342 360.865 82.943C361.09 82.4592 361.049 81.9514 360.745 81.4192C360.44 80.8868 360.039 80.492 359.542 80.233Z" fill="#0D0C23"/>
<path fill-rule="evenodd" clip-rule="evenodd" d="M446.109 106.951C445.837 108.047 445.412 108.976 444.834 109.734C444.257 110.492 443.536 110.887 442.67 110.92C442.126 110.952 441.708 110.661 441.419 110.049C441.132 109.435 440.931 108.645 440.819 107.677C440.706 106.709 440.658 105.628 440.674 104.435C440.69 103.241 440.738 102.063 440.819 100.902C440.898 99.7406 440.995 98.6587 441.108 97.6592C441.219 96.6584 441.307 95.8854 441.371 95.3365C442.462 95.4654 443.368 95.9406 444.089 96.764C444.81 97.5867 445.364 98.5624 445.748 99.692C446.133 100.821 446.357 102.04 446.422 103.345C446.485 104.652 446.381 105.854 446.109 106.951ZM428.699 106.951C428.428 108.047 428.002 108.976 427.425 109.734C426.849 110.492 426.127 110.887 425.261 110.92C424.716 110.952 424.3 110.661 424.011 110.049C423.722 109.435 423.522 108.645 423.41 107.677C423.297 106.709 423.249 105.628 423.266 104.435C423.281 103.241 423.329 102.063 423.41 100.902C423.489 99.7406 423.586 98.6587 423.698 97.6592C423.81 96.6584 423.898 95.8854 423.963 95.3365C425.052 95.4654 425.959 95.9406 426.679 96.764C427.401 97.5867 427.954 98.5624 428.339 99.692C428.725 100.821 428.948 102.04 429.012 103.345C429.076 104.652 428.971 105.854 428.699 106.951ZM410.835 79.4628C410.801 80.2364 410.729 80.9223 410.617 81.5191C410.505 82.1171 410.353 82.4952 410.16 82.6567C409.807 82.4627 409.374 81.9636 408.861 81.1562C408.349 80.3501 407.949 79.4377 407.659 78.4215C407.371 77.4054 407.282 76.4059 407.395 75.4211C407.506 74.4375 408.012 73.6718 408.91 73.1223C409.262 72.9289 409.567 73.0013 409.823 73.3403C410.08 73.6792 410.288 74.1709 410.449 74.8163C410.609 75.4622 410.72 76.2039 410.785 77.0426C410.85 77.8818 410.866 78.688 410.835 79.4628ZM406.577 89.1176C406.08 89.6493 405.526 90.1091 404.918 90.4966C404.308 90.884 403.684 91.1743 403.043 91.3678C402.401 91.5618 401.824 91.6097 401.311 91.5127C399.869 91.2229 398.762 90.5929 397.993 89.6253C397.224 88.6577 396.734 87.5206 396.527 86.2141C396.318 84.907 396.341 83.5114 396.599 82.0274C396.855 80.5435 397.287 79.1645 397.897 77.8898C398.506 76.6152 399.244 75.518 400.109 74.599C400.974 73.6792 401.92 73.107 402.946 72.8804C402.561 74.5258 402.434 76.2284 402.561 77.9863C402.689 79.7447 403.107 81.3981 403.812 82.9465C404.26 83.8835 404.798 84.7375 405.423 85.5117C406.049 86.2866 406.81 86.9478 407.708 87.4961C407.451 88.045 407.074 88.5852 406.577 89.1176ZM459.791 79.9467C459.887 79.205 460.031 78.4215 460.224 77.5988C460.416 76.7767 460.657 75.978 460.945 75.2037C461.233 74.4289 461.57 73.7596 461.956 73.1953C462.341 72.6312 462.748 72.2272 463.181 71.9852C463.615 71.7433 464.055 71.7673 464.503 72.0577C464.985 72.3487 465.281 72.9614 465.393 73.8965C465.506 74.8329 465.393 75.8324 465.057 76.8976C464.72 77.9623 464.119 78.9625 463.254 79.8975C462.389 80.8344 461.217 81.4466 459.743 81.737C459.679 81.2857 459.695 80.6889 459.791 79.9467ZM479.173 79.9467C479.269 79.205 479.412 78.4215 479.605 77.5988C479.797 76.7767 480.038 75.978 480.327 75.2037C480.615 74.4289 480.951 73.7596 481.336 73.1953C481.721 72.6312 482.131 72.2272 482.563 71.9852C482.996 71.7433 483.437 71.7673 483.885 72.0577C484.366 72.3487 484.662 72.9614 484.775 73.8965C484.887 74.8329 484.775 75.8324 484.439 76.8976C484.102 77.9623 483.501 78.9625 482.635 79.8975C481.77 80.8344 480.599 81.4466 479.124 81.737C479.06 81.2857 479.076 80.6889 479.173 79.9467ZM497.183 82.7777C496.814 82.3749 496.365 82.0924 495.837 81.9304C495.307 81.7695 494.803 81.7536 494.321 81.8825C493.841 82.0114 493.535 82.3504 493.407 82.8987C493.15 83.9314 492.742 84.988 492.182 86.0679C491.62 87.1498 490.931 88.1739 490.113 89.1415C489.296 90.1091 488.374 90.965 487.349 91.7067C486.322 92.449 485.248 92.9813 484.127 93.303C483.003 93.6591 482.073 93.699 481.336 93.4246C480.599 93.1507 480.014 92.6829 479.581 92.0217C479.148 91.3598 478.836 90.5616 478.643 89.6253C478.451 88.6903 478.338 87.7226 478.307 86.7219C480.134 86.8514 481.761 86.5211 483.188 85.7297C484.614 84.9395 485.825 83.8901 486.82 82.5837C487.813 81.2777 488.566 79.8097 489.079 78.1803C489.592 76.5507 489.88 74.9298 489.946 73.3163C489.977 71.7998 489.752 70.5172 489.272 69.4686C488.791 68.4205 488.142 67.6051 487.325 67.0249C486.506 66.4435 485.569 66.1052 484.51 66.0082C483.453 65.9112 482.378 66.0573 481.288 66.4435C479.973 66.896 478.86 67.6297 477.947 68.6458C477.033 69.6626 476.271 70.8408 475.662 72.1786C475.052 73.5183 474.571 74.9611 474.218 76.5102C473.865 78.0587 473.609 79.5838 473.45 81.0837C473.293 82.5394 473.209 83.9326 473.19 85.2661C473.069 85.5319 472.939 85.7991 472.8 86.0679C472.238 87.1498 471.549 88.1739 470.732 89.1415C469.915 90.1091 468.992 90.965 467.967 91.7067C466.941 92.449 465.867 92.9813 464.745 93.303C463.622 93.6591 462.693 93.699 461.956 93.4246C461.217 93.1507 460.633 92.6829 460.2 92.0217C459.768 91.3598 459.455 90.5616 459.262 89.6253C459.07 88.6903 458.957 87.7226 458.925 86.7219C460.753 86.8514 462.38 86.5211 463.807 85.7297C465.233 84.9395 466.443 83.8901 467.437 82.5837C468.432 81.2777 469.185 79.8097 469.697 78.1803C470.21 76.5507 470.5 74.9298 470.563 73.3163C470.595 71.7998 470.371 70.5172 469.891 69.4686C469.41 68.4205 468.76 67.6051 467.942 67.0249C467.124 66.4435 466.188 66.1052 465.129 66.0082C464.071 65.9112 462.997 66.0573 461.907 66.4435C460.591 66.896 459.478 67.6297 458.565 68.6458C457.651 69.6626 456.889 70.8408 456.28 72.1786C455.671 73.5183 455.191 74.9611 454.838 76.5102C454.485 78.0587 454.228 79.5838 454.068 81.0837C453.977 81.9297 453.917 82.75 453.872 83.5555C453.562 83.8209 453.26 84.0879 452.938 84.3501C451.832 85.2538 450.669 86.0679 449.451 86.7943C448.232 87.5206 446.966 88.1174 445.653 88.5852C444.336 89.0531 442.99 89.3355 441.612 89.432L444.594 57.2971C444.787 56.6193 444.691 56.0232 444.305 55.5068C443.921 54.9904 443.424 54.6356 442.815 54.4422C442.206 54.2482 441.556 54.2647 440.867 54.4901C440.177 54.7166 439.609 55.233 439.16 56.0385C438.935 57.2652 438.702 58.9425 438.462 61.0718C438.222 63.2011 437.981 65.5244 437.741 68.041C437.5 70.5577 437.26 73.1548 437.02 75.8324C436.779 78.5111 436.571 81.0113 436.394 83.334C436.386 83.4371 436.38 83.5304 436.372 83.6323C436.091 83.8718 435.819 84.113 435.528 84.3501C434.423 85.2538 433.259 86.0679 432.042 86.7943C430.823 87.5206 429.557 88.1174 428.243 88.5852C426.928 89.0531 425.581 89.3355 424.203 89.432L427.185 57.2971C427.377 56.6193 427.281 56.0232 426.897 55.5068C426.512 54.9904 426.014 54.6356 425.405 54.4422C424.796 54.2482 424.146 54.2647 423.457 54.4901C422.768 54.7166 422.199 55.233 421.75 56.0385C421.525 57.2652 421.294 58.9425 421.054 61.0718C420.812 63.2011 420.572 65.5244 420.332 68.041C420.091 70.5577 419.851 73.1548 419.61 75.8324C419.371 78.5111 419.161 81.0113 418.986 83.334C418.982 83.3806 418.979 83.4229 418.975 83.4696C418.471 83.7048 417.922 83.9111 417.325 84.0842C416.717 84.2622 416.027 84.3672 415.258 84.3992C415.386 83.8177 415.49 83.1725 415.57 82.4627C415.65 81.7536 415.716 81.0113 415.764 80.2364C415.812 79.4628 415.827 78.688 415.812 77.9137C415.795 77.1389 415.755 76.4298 415.691 75.7838C415.53 74.3976 415.234 73.0824 414.802 71.8398C414.368 70.5982 413.784 69.5582 413.046 68.7183C412.308 67.8796 411.387 67.3148 410.28 67.0249C409.174 66.7345 407.883 66.8309 406.41 67.3148C404.228 67.0249 402.265 67.2269 400.518 67.9201C398.77 68.6145 397.255 69.622 395.973 70.9445C394.691 72.2683 393.641 73.8241 392.823 75.6151C392.006 77.4054 391.46 79.2449 391.188 81.1317C391.073 81.9316 391.017 82.728 391 83.5224C390.503 84.5453 389.959 85.4392 389.361 86.1895C388.511 87.2542 387.629 88.1254 386.715 88.8026C385.802 89.4804 384.896 89.9967 383.999 90.3516C383.1 90.7071 382.299 90.949 381.594 91.0774C380.76 91.2389 379.959 91.2554 379.189 91.1259C378.42 90.9976 377.714 90.6261 377.074 90.0127C376.56 89.5614 376.167 88.8351 375.895 87.8349C375.622 86.8348 375.463 85.6984 375.415 84.4231C375.367 83.1485 375.415 81.8174 375.558 80.4304C375.703 79.0435 375.95 77.7283 376.303 76.4863C376.656 75.2442 377.104 74.1311 377.651 73.1462C378.194 72.1633 378.836 71.4609 379.574 71.0416C379.99 71.1066 380.248 71.3559 380.344 71.7912C380.44 72.2272 380.463 72.7435 380.415 73.3403C380.368 73.9376 380.296 74.5504 380.199 75.1791C380.103 75.8085 380.055 76.3334 380.055 76.7521C380.215 77.6234 380.527 78.3012 380.993 78.785C381.457 79.2688 381.979 79.5519 382.556 79.6317C383.132 79.7127 383.701 79.5758 384.264 79.2203C384.824 78.866 385.28 78.3012 385.634 77.5263C385.665 77.5589 385.713 77.5749 385.778 77.5749L386.452 71.429C386.643 70.5896 386.515 69.848 386.066 69.2027C385.617 68.5574 385.024 68.186 384.287 68.0896C383.357 66.7345 382.098 66.0168 380.511 65.9358C378.924 65.8553 377.297 66.3796 375.63 67.5088C374.604 68.2517 373.698 69.2752 372.913 70.5817C372.127 71.8889 371.487 73.3403 370.99 74.9372C370.492 76.5341 370.139 78.2208 369.932 79.9952C369.723 81.7695 369.683 83.4961 369.81 85.1728C369.939 86.8514 370.236 88.4324 370.701 89.9157C371.166 91.4003 371.815 92.6424 372.649 93.642C373.354 94.5132 374.155 95.151 375.053 95.5545C375.95 95.9579 376.888 96.2072 377.866 96.3041C378.844 96.4006 379.814 96.36 380.776 96.1832C381.738 96.0064 382.652 95.7565 383.518 95.4329C384.639 95.0142 385.795 94.4812 386.98 93.836C388.166 93.1913 389.304 92.4165 390.395 91.5127C390.968 91.0375 391.52 90.5193 392.054 89.9636C392.297 90.5702 392.568 91.1572 392.895 91.7067C393.761 93.1581 394.931 94.3363 396.406 95.2395C397.88 96.1426 399.692 96.5773 401.84 96.546C404.149 96.5135 406.281 95.9253 408.237 94.7797C410.193 93.6352 411.795 91.948 413.046 89.7223C414.919 89.7223 416.762 89.4117 418.573 88.7946C418.558 88.9898 418.542 89.1955 418.528 89.384C418.401 91.094 418.336 92.255 418.336 92.8683C418.304 93.9329 418.232 95.2475 418.12 96.8119C418.008 98.3769 417.935 100.022 417.903 101.748C417.872 103.474 417.935 105.217 418.096 106.975C418.256 108.733 418.592 110.331 419.106 111.767C419.617 113.202 420.347 114.42 421.294 115.421C422.239 116.42 423.481 117.018 425.021 117.211C426.656 117.436 428.066 117.147 429.253 116.34C430.439 115.533 431.401 114.428 432.139 113.025C432.876 111.621 433.396 110 433.702 108.162C434.006 106.322 434.094 104.475 433.967 102.619C433.837 100.764 433.5 99.0142 432.955 97.3694C432.411 95.7233 431.657 94.3682 430.696 93.303C431.273 93.1427 431.961 92.8364 432.764 92.3839C433.564 91.9326 434.39 91.4243 435.241 90.8594C435.449 90.7207 435.655 90.5745 435.863 90.4321C435.785 91.5753 435.745 92.3906 435.745 92.8683C435.714 93.9329 435.642 95.2475 435.528 96.8119C435.417 98.3769 435.345 100.022 435.313 101.748C435.281 103.474 435.345 105.217 435.505 106.975C435.665 108.733 436.002 110.331 436.514 111.767C437.027 113.202 437.757 114.42 438.702 115.421C439.648 116.42 440.891 117.018 442.431 117.211C444.065 117.436 445.475 117.147 446.662 116.34C447.848 115.533 448.81 114.428 449.547 113.025C450.285 111.621 450.805 110 451.11 108.162C451.415 106.322 451.502 104.475 451.375 102.619C451.247 100.764 450.91 99.0142 450.366 97.3694C449.819 95.7233 449.067 94.3682 448.104 93.303C448.682 93.1427 449.371 92.8364 450.172 92.3839C450.974 91.9326 451.799 91.4243 452.65 90.8594C453.091 90.566 453.53 90.2633 453.968 89.952C454.133 91.5298 454.488 92.9138 455.053 94.0779C455.744 95.498 456.68 96.5946 457.867 97.3694C459.053 98.1429 460.448 98.5709 462.052 98.6513C463.655 98.7311 465.401 98.4334 467.294 97.7556C468.704 97.2398 469.93 96.5946 470.972 95.8203C472.014 95.0455 472.951 94.1018 473.786 92.9892C473.834 92.9248 473.879 92.8548 473.926 92.7898C474.075 93.2416 474.239 93.6757 474.435 94.0779C475.125 95.498 476.063 96.5946 477.249 97.3694C478.434 98.1429 479.83 98.5709 481.432 98.6513C483.035 98.7311 484.783 98.4334 486.675 97.7556C488.086 97.2398 489.312 96.5946 490.354 95.8203C491.395 95.0455 492.333 94.1018 493.168 92.9892C494.001 91.8756 494.761 90.5929 495.452 89.1415C496.141 87.6895 496.838 86.0286 497.544 84.1567C497.671 83.6409 497.551 83.1811 497.183 82.7777Z" fill="#0D0C23"/>
</svg>
