<svg width="48" height="48" viewBox="0 0 48 48" fill="none" xmlns="http://www.w3.org/2000/svg" preserveaspectratio="none">
<path fill-rule="evenodd" clip-rule="evenodd" d="M32 24C32 28.4183 28.4183 32 24 32C19.5817 32 16 28.4183 16 24C16 19.5817 19.5817 16 24 16C28.4183 16 32 19.5817 32 24ZM28 24C28 26.2091 26.2091 28 24 28C21.7909 28 20 26.2091 20 24C20 21.7909 21.7909 20 24 20C26.2091 20 28 21.7909 28 24Z" fill="white"/>
<path fill-rule="evenodd" clip-rule="evenodd" d="M24 45C29.799 45 35.049 42.6495 38.8492 38.8493L40.2634 40.2635C42.3992 38.1277 44.0934 35.5922 45.2492 32.8017C46.4051 30.0113 47 27.0204 47 24C47 20.9796 46.4051 17.9888 45.2492 15.1983C44.0934 12.4078 42.3992 9.87232 40.2634 7.73657L38.8492 9.15076C35.049 5.35051 29.799 3 24 3C12.402 3 3 12.402 3 24C3 35.598 12.402 45 24 45ZM24 43C29.2467 43 33.9967 40.8734 37.435 37.4351L33.7581 33.7581C35.0395 32.4767 36.056 30.9554 36.7495 29.2811C37.443 27.6068 37.8 25.8123 37.8 24C37.8 22.1878 37.443 20.3933 36.7495 18.719C36.056 17.0447 35.0395 15.5234 33.7581 14.242L37.435 10.565C33.9967 7.12665 29.2467 5 24 5C13.5066 5 5 13.5066 5 24C5 34.4934 13.5066 43 24 43Z" fill="white"/>
</svg>
