<svg width="48" height="48" viewBox="0 0 48 48" fill="none" xmlns="http://www.w3.org/2000/svg" preserveaspectratio="none">
<path d="M24 1C19.451 1 15.0042 2.34893 11.2219 4.8762C7.43956 7.40347 4.4916 10.9956 2.75078 15.1983C1.00997 19.401 0.554489 24.0255 1.44195 28.4871C2.32941 32.9486 4.51995 37.0468 7.73655 40.2634C10.9532 43.4801 15.0514 45.6706 19.5129 46.558C23.9745 47.4455 28.599 46.99 32.8017 45.2492C37.0044 43.5084 40.5965 40.5604 43.1238 36.7781C45.6511 32.9958 47 28.549 47 24C46.9934 17.902 44.5681 12.0557 40.2562 7.74383C35.9443 3.43192 30.098 1.0066 24 1ZM40.5734 14.4167H34.3998C33.0179 11.2139 31.1982 8.21833 28.9929 5.51567C33.8737 6.84378 38.0344 10.0418 40.5734 14.4167ZM32.625 24C32.6093 25.9514 32.3018 27.8895 31.7127 29.75H16.2873C15.6983 27.8895 15.3907 25.9514 15.375 24C15.3907 22.0486 15.6983 20.1105 16.2873 18.25H31.7127C32.3018 20.1105 32.6093 22.0486 32.625 24ZM17.8245 33.5833H30.1755C28.5487 36.7951 26.469 39.7566 24 42.377C21.5301 39.7573 19.4503 36.7957 17.8245 33.5833ZM17.8245 14.4167C19.4513 11.2049 21.531 8.24339 24 5.623C26.4699 8.24265 28.5497 11.2042 30.1755 14.4167H17.8245ZM19.0167 5.51567C16.808 8.21775 14.9851 11.2133 13.6002 14.4167H7.42659C9.96781 10.0398 14.1324 6.84153 19.0167 5.51567ZM5.71693 18.25H12.3083C11.8115 20.1267 11.5539 22.0587 11.5417 24C11.5539 25.9413 11.8115 27.8733 12.3083 29.75H5.71693C4.53883 26.0072 4.53883 21.9928 5.71693 18.25ZM7.42659 33.5833H13.6002C14.9851 36.7867 16.808 39.7822 19.0167 42.4843C14.1324 41.1585 9.96781 37.9602 7.42659 33.5833ZM28.9929 42.4843C31.1982 39.7817 33.0179 36.7861 34.3998 33.5833H40.5734C38.0344 37.9582 33.8737 41.1562 28.9929 42.4843ZM42.2831 29.75H35.6917C36.1886 27.8733 36.4461 25.9413 36.4583 24C36.4461 22.0587 36.1886 20.1267 35.6917 18.25H42.2793C43.4574 21.9928 43.4574 26.0072 42.2793 29.75H42.2831Z" fill="white"/>
</svg>
