<svg width="48" height="48" viewBox="0 0 48 48" fill="none" xmlns="http://www.w3.org/2000/svg" preserveaspectratio="none">
<path d="M40.4645 8.37295C42.5365 10.4251 44.1801 12.8614 45.3015 15.5427C46.4228 18.224 47 21.0978 47 24C47 26.9022 46.4228 29.776 45.3015 32.4573C44.1801 35.1386 42.5365 37.5749 40.4645 39.6271L38.0978 37.283C39.859 35.5387 41.2561 33.4678 42.2092 31.1887C43.1624 28.9096 43.653 26.4669 43.653 24C43.653 21.5331 43.1624 19.0904 42.2093 16.8113C41.2561 14.5322 39.859 12.4614 38.0978 10.717L40.4645 8.37295Z" fill="white"/>
<path d="M7.53545 39.6271C5.46346 37.5749 3.81986 35.1386 2.69851 32.4573C1.57715 29.776 1 26.9022 1 24C1 21.0978 1.57715 18.224 2.69851 15.5427C3.81986 12.8614 5.46346 10.4251 7.53545 8.37295L9.90215 10.717C8.14096 12.4614 6.7439 14.5322 5.79075 16.8113C4.8376 19.0904 4.34702 21.5331 4.34702 24C4.34702 26.4669 4.8376 28.9096 5.79075 31.1887C6.7439 33.4678 8.14096 35.5387 9.90215 37.283L7.53545 39.6271Z" fill="white"/>
<path d="M14.1913 24.9248H16.2418L15.4363 22.5312H14.9969L14.1913 24.9248Z" fill="white"/>
<path d="M25.1215 22.096H23.1626V23.2384H25.1215C25.7166 23.2384 25.9088 22.9483 25.9088 22.6763C25.9088 22.3861 25.7166 22.096 25.1215 22.096Z" fill="white"/>
<path d="M25.1765 25.8677C25.7715 25.8677 25.9729 25.5051 25.9729 25.224C25.9729 24.9339 25.7715 24.6075 25.1765 24.6075H23.1626V25.8677H25.1765Z" fill="white"/>
<path fill-rule="evenodd" clip-rule="evenodd" d="M24 41C33.4795 41 41.1642 33.3888 41.1642 24C41.1642 14.6112 33.4795 7 24 7C14.5205 7 6.83582 14.6112 6.83582 24C6.83582 33.3888 14.5205 41 24 41ZM29.3365 25.2421C29.2725 27.2187 30.5266 28.0347 33.1812 28.0437C35.8177 28.0528 37.1176 27.2277 37.1176 25.5685C37.1176 23.7134 35.4585 23.4727 34.016 23.2635L33.81 23.2334C33.7021 23.2174 33.596 23.2012 33.4925 23.184L32.6778 23.048C32.092 22.9573 31.9546 22.6944 31.9546 22.4768C31.9546 22.1323 32.3025 21.8784 33.1447 21.8784C34.1151 21.8784 34.5452 22.1957 34.6368 22.7035H36.8979C36.9437 20.5275 35.4058 19.92 33.1996 19.92C30.7554 19.92 29.5196 20.8448 29.5196 22.3499C29.5196 24.2003 31.0951 24.4494 32.5 24.6716C32.5751 24.6834 32.6497 24.6952 32.7236 24.7072L33.7123 24.8613C34.4629 24.9701 34.6002 25.224 34.6002 25.4688C34.6002 25.8224 34.1517 26.0944 33.1812 26.0853C32.0828 26.0763 31.6433 25.7589 31.6159 25.2421H29.3365ZM17.203 27.7899L16.8643 26.7835H13.5687L13.2301 27.7899H10.6119L13.4406 20.1739H16.9924L19.8211 27.7899H17.203ZM27.346 23.864C28.0876 24.2357 28.5361 24.7707 28.5361 25.6411C28.5361 26.8651 27.6664 27.7899 25.2589 27.7899H20.6268V20.1739H25.387C27.7122 20.1739 28.3347 21.1893 28.3347 22.1957C28.3347 23.0571 27.8862 23.4288 27.346 23.7189V23.864Z" fill="white"/>
</svg>
