<svg width="48" height="48" viewBox="0 0 48 48" fill="none" xmlns="http://www.w3.org/2000/svg" preserveaspectratio="none">
<path d="M39.5691 1.57308L25.9167 5.21475V1H22.0833V6.23633L8.17025 9.947L1 29.4088V30.7083C1 35.4636 4.86975 39.3333 9.625 39.3333C14.3802 39.3333 18.25 35.4636 18.25 30.7083V29.4088L12.1492 12.8527L22.0833 10.2038V43.1667H8.66667V47H39.3333V43.1667H25.9167V9.18033L35.3007 6.67908L29.75 21.7422V23.0417C29.75 27.7969 33.6197 31.6667 38.375 31.6667C43.1302 31.6667 47 27.7969 47 23.0417V21.7422L39.5691 1.57308ZM13.5848 27.8333H5.66517L9.625 17.0866L13.5848 27.8333ZM38.375 9.41992L42.3348 20.1667H34.4152L38.375 9.41992Z" fill="white"/>
</svg>
