<svg width="17" height="66" viewBox="0 0 17 66" fill="none" xmlns="http://www.w3.org/2000/svg">
<path d="M15.4619 36.2418C15.8663 36.9414 15.6145 37.9293 14.9218 38.3397C14.5071 38.621 13.9819 38.6152 13.5205 38.4758L2.47411 35.477C1.50459 35.2408 1.02729 33.9763 1.57533 33.1406C1.92968 32.5285 2.71238 32.2553 3.37201 32.4662L14.3181 35.4303C14.7852 35.5364 15.2364 35.7991 15.4619 36.2418Z" fill="white"/>
<path d="M14.9876 43.9717C15.6051 43.5567 15.8376 42.6669 15.5038 41.9995C15.3044 41.5557 14.884 41.2502 14.4215 41.1373L3.58819 38.195C2.86021 37.908 1.93281 38.1294 1.55111 38.8637C1.04181 39.6902 1.51684 40.8993 2.4499 41.1448L13.6352 44.1828C14.0887 44.3164 14.6002 44.253 14.9876 43.9717Z" fill="white"/>
<path fill-rule="evenodd" clip-rule="evenodd" d="M13.6486 3.82011C14.7491 5.50068 14.9597 7.73804 14.1861 9.59737C13.671 10.8884 12.6958 11.9559 11.5166 12.6602C11.6358 12.6604 11.7557 12.6589 11.8761 12.6574C12.5461 12.6491 13.228 12.6406 13.851 12.9171C15.1315 13.4289 16.0246 14.7752 15.9995 16.1699C15.9982 17.1269 15.9987 18.0838 15.9992 19.0407C16.0001 20.7152 16.001 22.3897 15.9923 24.0636C14.9566 24.0602 13.9222 24.0602 12.8866 24.0614C12.883 25.1658 12.8838 26.2701 12.8846 27.3745L12.8846 27.3772C12.8851 28.039 12.8856 28.7008 12.8852 29.3626C13.1215 29.4471 13.383 29.5086 13.6484 29.571C14.4517 29.7598 15.2913 29.9572 15.5772 30.8253C15.9998 31.9261 14.8776 33.1791 13.7554 32.8552L2.57804 29.8346C1.99245 29.7009 1.49575 29.2191 1.37843 28.6163C1.20872 27.882 1.64624 27.0682 2.35033 26.8169C2.82171 26.6199 3.311 26.7615 3.78192 26.8978C3.89263 26.9298 4.00232 26.9616 4.11052 26.9885C4.11626 26.0122 4.11745 25.0382 4.11181 24.0642C3.6339 24.0626 3.1555 24.0625 2.67696 24.0624L2.67205 24.0624C2.11524 24.0623 1.55824 24.0622 1.00156 24.0597C0.99827 21.4304 1.00068 18.8 1.00423 16.1707C0.98834 14.8797 1.74261 13.6232 2.8842 13.0445C3.6233 12.6271 4.48081 12.6431 5.30334 12.6584L5.30565 12.6585C5.36609 12.6596 5.42634 12.6607 5.48634 12.6617C4.06456 11.8226 2.9618 10.4256 2.55402 8.80491C1.93777 6.53529 2.74793 3.95668 4.5458 2.4627C5.87198 1.31917 7.69258 0.800359 9.41288 1.07C11.1275 1.31775 12.7076 2.35163 13.6486 3.82011ZM7.34604 4.97314C8.55713 4.27801 10.2375 4.88078 10.7832 6.16831C11.3585 7.34979 10.8138 8.90825 9.64489 9.48005C8.4976 10.1198 6.92313 9.62888 6.31481 8.45778C5.60168 7.27054 6.119 5.57837 7.34604 4.97314Z" fill="white"/>
<path fill-rule="evenodd" clip-rule="evenodd" d="M15.6436 48.5594C15.5569 49.4147 14.6819 50.0741 13.8469 49.9024C13.3691 49.794 12.8967 49.6622 12.4243 49.5304C12.0633 49.4298 11.7018 49.3289 11.3382 49.2386C11.3326 49.8906 11.3332 50.5429 11.3339 51.1954C11.3346 51.8763 11.3353 52.5574 11.3289 53.2384C12.369 53.8251 13.2793 54.6653 13.858 55.7258C14.7579 57.3142 14.8922 59.3083 14.2394 61.0132C13.64 62.6108 12.356 63.9284 10.786 64.5556C9.29922 65.1677 7.57548 65.1436 6.10127 64.5074C4.57922 63.8666 3.34772 62.5699 2.75993 61.0137C2.16416 59.4634 2.22121 57.6698 2.9208 56.1644C3.48253 54.9183 4.47946 53.9004 5.66435 53.2502C5.66139 52.2766 5.66159 51.3029 5.6618 50.3291L5.6618 50.3276C5.66199 49.4515 5.66218 48.5753 5.66006 47.6989C5.1848 47.5663 4.70817 47.4384 4.23149 47.3104C3.63883 47.1513 3.04558 46.9921 2.4553 46.8241C1.60768 46.6006 1.11328 45.5747 1.44599 44.7609C1.71262 43.9955 2.60698 43.5655 3.3646 43.8156C7.05925 44.8125 10.7528 45.8128 14.4451 46.8189C15.205 46.986 15.7655 47.7767 15.6436 48.5594ZM10.5597 57.3363C9.79869 56.156 8.03167 55.8759 6.95728 56.7809C5.81796 57.6247 5.65951 59.4563 6.64152 60.4845C7.50049 61.4942 9.15245 61.6071 10.1277 60.7079C11.0984 59.9102 11.3013 58.3564 10.5597 57.3363Z" fill="white"/>
</svg>
