<svg width="48" height="48" viewBox="0 0 48 48" fill="none" xmlns="http://www.w3.org/2000/svg" preserveaspectratio="none">
<path d="M13.9767 11.8111C17.2151 10.8774 20.5812 10.3971 24 10.3971C30.6387 10.3971 37.0799 12.2035 42.7682 15.6401L33.0147 30.9202C30.2352 29.4467 27.1605 28.6752 24.0026 28.6752C23.1182 28.6752 22.2417 28.7374 21.3758 28.8569L13.9767 11.8111ZM14.9901 30.9202L5.23212 15.6396C7.38693 14.3378 9.65021 13.2704 11.991 12.4462L19.2906 29.2622C17.8021 29.639 16.3598 30.194 14.9901 30.9202ZM33.7323 34.1274L46 14.9093C39.6996 10.545 32.1356 8 24 8C15.8639 8 8.30028 10.545 2 14.9093L14.2724 34.1274C16.0637 32.8869 18.0863 31.9812 20.2577 31.4908L22.3904 36.4041C21.7212 37.3231 21.8277 38.6377 22.6659 39.4235C23.5498 40.2527 24.913 40.1785 25.7098 39.2582C26.5062 38.3378 26.4354 36.9197 25.551 36.0904C25.1818 35.7442 24.729 35.5574 24.2688 35.5222L22.3724 31.1524C22.9096 31.1011 23.4526 31.0718 24.0026 31.0718C27.6005 31.0718 30.9458 32.1973 33.7323 34.1274Z" fill="white"/>
</svg>
