<svg width="48" height="48" viewBox="0 0 48 48" fill="none" xmlns="http://www.w3.org/2000/svg">
<path d="M24 1C18.1652 1 12.5695 3.2551 8.44365 7.2692C4.31785 11.2833 2 16.7276 2 22.4044V33.634C1.99916 35.5916 2.7003 37.4881 3.98257 38.9966C5.26484 40.5051 7.04787 41.5311 9.02429 41.8976L35.7386 46.8512C36.9885 47.0831 38.2757 47.0435 39.5081 46.7354C40.7405 46.4273 41.8878 45.8582 42.8681 45.0689C43.8483 44.2795 44.6373 43.2892 45.1787 42.1689C45.7201 41.0485 46.0005 39.8256 46 38.5876V22.4044C46 16.7276 43.6821 11.2833 39.5563 7.2692C35.4305 3.2551 29.8348 1 24 1ZM41.2857 38.5876C41.2856 39.1504 41.1578 39.7062 40.9113 40.2154C40.6649 40.7245 40.3059 41.1744 39.8601 41.533C39.4142 41.8916 38.8925 42.1499 38.3322 42.2896C37.7718 42.4293 37.1867 42.4468 36.6186 42.341L9.90429 37.3874C9.00692 37.2203 8.19749 36.7541 7.61526 36.0691C7.03304 35.384 6.71444 34.5229 6.71429 33.634V22.4044C6.72163 18.7487 7.95307 15.1949 10.2221 12.2811C12.4912 9.36731 15.6743 7.25218 19.2895 6.256C22.9047 5.25981 26.7551 5.43682 30.2577 6.76023C33.7602 8.08364 36.7241 10.4814 38.7007 13.5904L39.4471 14.76H26.09C23.7869 14.7546 21.567 15.597 19.8759 17.1181C18.1847 18.6392 17.1475 20.7263 16.9725 22.9606C16.7975 25.1948 17.4975 27.4108 18.9322 29.1637C20.3668 30.9165 22.4298 32.0766 24.7071 32.4109L41.2857 34.8954V38.5876ZM41.0893 20.004C41.2139 20.7985 41.2795 21.6007 41.2857 22.4044V30.2552L25.3829 27.8778C24.2793 27.7196 23.2784 27.1602 22.582 26.3124C21.8856 25.4647 21.5455 24.3915 21.6302 23.3094C21.7149 22.2272 22.2182 21.2166 23.0385 20.4812C23.8588 19.7458 24.9353 19.3404 26.0507 19.3466H40.9793L41.0893 20.004Z" fill="white"/>
</svg>
