<svg width="48" height="48" viewBox="0 0 48 48" fill="none" xmlns="http://www.w3.org/2000/svg">
<path d="M11.0028 7.95244C11.2554 7.3868 11.8591 6.99621 12.4875 7.00228C18.5176 6.99924 24.5476 6.99924 30.5787 7.00228C31.3539 6.98609 32.0665 7.59727 32.1887 8.34607C32.241 8.9785 32.2041 9.617 32.2113 10.2515C32.2267 11.1065 31.4453 11.8735 30.5777 11.8553C28.3856 11.8604 26.1925 11.8553 23.9993 11.8583C23.9993 12.937 23.9993 14.0157 23.9993 15.0944C26.2264 15.0994 28.4534 15.0883 30.6794 15.1004C32.2852 15.1156 33.7267 16.4564 33.8386 18.0349C33.8787 19.2127 33.8448 20.3926 33.8561 21.5715C35.4989 21.5715 37.1417 21.5715 38.7835 21.5715C38.7865 19.9494 38.7814 18.3284 38.7865 16.7063C38.7773 16.0577 39.2137 15.4354 39.8287 15.2067C40.1798 15.062 40.5679 15.0994 40.9396 15.0944C41.7076 15.1055 42.491 15.0448 43.2436 15.238C44.6441 15.5669 45.867 16.5424 46.4943 17.8194C46.8424 18.5095 47.0036 19.2826 46.9984 20.0516C46.9995 24.5727 46.9984 29.0938 46.9984 33.616C46.9974 34.3344 47.0313 35.067 46.8301 35.7673C46.4204 37.3438 45.1441 38.6633 43.5681 39.148C42.5526 39.4819 41.4684 39.3585 40.418 39.3787C39.5515 39.3929 38.767 38.6279 38.7865 37.7718C38.7814 36.1498 38.7865 34.5277 38.7845 32.9056C37.1417 32.9036 35.4989 32.9046 33.8571 32.9046C33.854 34.5247 33.8592 36.1457 33.854 37.7657C33.854 38.5662 33.5419 39.3605 32.9906 39.9484C32.3807 40.6102 31.4833 40.9987 30.5756 40.9977C26.0559 41.0008 21.5352 41.0008 17.0154 40.9977C16.0431 41.0169 15.1468 40.5312 14.4753 39.8685C13.0892 38.6724 11.701 37.4774 10.3169 36.2793C9.64237 35.6904 9.23065 34.8191 9.21832 33.9297C9.20806 32.509 9.2173 31.0873 9.21422 29.6666C8.11868 29.6666 7.02417 29.6656 5.92863 29.6676C5.92658 31.2886 5.93171 32.9097 5.92658 34.5307C5.93582 35.1824 5.49227 35.7976 4.88135 36.0314C4.49632 36.1862 4.07228 36.1346 3.66671 36.1427C3.25807 36.1356 2.8484 36.1609 2.43975 36.1275C1.65121 36.0435 0.988962 35.3241 1.00231 34.5378C0.99923 29.6737 0.99923 24.8085 1.00231 19.9443C0.993069 19.2937 1.43252 18.6684 2.05062 18.4427C2.63381 18.2403 3.26628 18.3709 3.87104 18.3324C4.38441 18.3051 4.94604 18.3557 5.34031 18.7169C5.70172 19.0175 5.92966 19.4738 5.92658 19.9433C5.93274 21.5654 5.92658 23.1875 5.92863 24.8095C7.02417 24.8095 8.11868 24.8095 9.21319 24.8095C9.21627 22.6481 9.21114 20.4857 9.21627 18.3243C9.21422 17.4531 9.58898 16.5899 10.2317 15.9929C10.8334 15.4212 11.663 15.0944 12.4988 15.0974C14.6899 15.0923 16.8799 15.0974 19.071 15.0944C19.071 14.0157 19.072 12.937 19.071 11.8573C16.8768 11.8553 14.6827 11.8604 12.4895 11.8553C11.6938 11.8644 10.9504 11.2188 10.8714 10.4366C10.8396 10.0349 10.8642 9.63218 10.857 9.23046C10.8642 8.80344 10.8077 8.35011 11.0028 7.95244Z" fill="white"/>
</svg>
