<svg width="48" height="48" viewBox="0 0 48 48" fill="none" xmlns="http://www.w3.org/2000/svg" preserveaspectratio="none">
<path d="M14.8464 41.2014C15.4449 40.9802 16.0834 40.9969 16.7067 41.0028C21.7745 41.0038 26.8432 41.0019 31.911 41.0028C32.4704 41.0009 33.0324 41.111 33.5446 41.3617C34.8135 41.9634 35.7455 43.328 35.9509 44.8341C36.0167 45.3208 36.0558 45.8625 35.8015 46.2961C35.5925 46.6923 35.203 46.9263 34.802 47H13.2022C12.6064 46.9223 12.0773 46.3944 12.0088 45.7259C11.8826 43.7409 13.1248 41.7736 14.8464 41.2014Z" fill="white"/>
<path d="M14 2C14 1.44772 14.4477 1 15 1H33C33.5523 1 34 1.44772 34 2V5H14V2Z" fill="white"/>
<path d="M23.5861 24.1682C24.404 23.8503 25.3527 24.5764 25.2738 25.4226C25.2729 26.6363 25.2729 27.8509 25.2729 29.0647H22.7273C22.728 28.5987 22.7275 28.1327 22.7271 27.6668C22.7264 26.89 22.7257 26.1132 22.7299 25.3365C22.7248 24.8215 23.0846 24.3297 23.5861 24.1682Z" fill="white" fill-opacity="0.5"/>
<path fill-rule="evenodd" clip-rule="evenodd" d="M20 7H28L28 11.6754C28.4053 11.6751 28.6291 11.6777 29.0343 11.6778C29.845 11.678 30.6557 11.6782 31.4663 11.6754C31.7353 11.6737 32.0153 11.7011 32.2529 11.836C32.7833 12.1117 33.0505 12.7848 32.8325 13.3354C32.6636 13.8189 32.1638 14.1617 31.6403 14.1584C30.883 14.1638 30.1254 14.1628 29.3679 14.1618C28.8514 14.1611 28.5163 14.1571 28 14.1584C27.9822 15.0708 28 17 28 17C28.5405 18.9688 30.0357 20.5733 31.8635 21.5586C31.9093 21.5839 31.9559 21.6087 32.0028 21.6337C32.261 21.7711 32.5261 21.9122 32.6891 22.1588C32.8724 22.408 32.9156 22.7218 32.9114 23.0207C32.9087 24.3148 32.9091 25.6092 32.9095 26.9035V26.9059C32.9098 27.6255 32.91 28.3452 32.9097 29.0647C33.3643 29.064 33.819 29.0643 34.2738 29.0646C34.9234 29.065 35.573 29.0655 36.2224 29.063C36.2763 29.0634 36.3308 29.063 36.3856 29.0625C36.7113 29.0599 37.0483 29.0572 37.3373 29.2195C37.8736 29.4927 38.1434 30.1716 37.9228 30.7239C37.7539 31.2057 37.2567 31.5469 36.7349 31.5452C35.9771 31.5506 35.2191 31.5496 34.4609 31.5486C33.9439 31.5479 33.4268 31.5472 32.9097 31.5485C32.9104 31.9914 32.9101 32.4343 32.9098 32.8772C32.9093 33.5098 32.9089 34.1424 32.9114 34.775C32.9105 34.8362 32.9109 34.898 32.9114 34.9602C32.9135 35.2495 32.9157 35.5452 32.7816 35.8083C32.5822 36.2305 32.1206 36.512 31.6445 36.5129C31.2134 36.5208 30.7819 36.5186 30.3503 36.5164C29.9276 36.5143 29.5043 36.5121 29.082 36.5195C28.4973 36.5145 27.9492 36.9525 27.8474 37.5155C27.8064 37.8321 27.8119 38.1512 27.8173 38.4704C27.8203 38.647 27.8234 38.8237 27.8185 39H20.1818C20.178 38.8272 20.1804 38.6542 20.1827 38.4812C20.1867 38.1842 20.1908 37.887 20.1639 37.5908C20.1003 37.0262 19.5835 36.5518 19.0023 36.5253C18.617 36.5099 18.2313 36.5129 17.8457 36.5159C17.6064 36.5177 17.3671 36.5195 17.1279 36.517C17.0238 36.5147 16.9188 36.5164 16.8137 36.5181C16.5395 36.5226 16.2636 36.5271 15.9968 36.4607C15.4733 36.3133 15.088 35.8108 15.094 35.2784C15.0884 34.5397 15.0895 33.8008 15.0905 33.0617C15.0912 32.5576 15.092 32.0527 15.0906 31.5485C14.6483 31.5488 14.2061 31.5487 13.7638 31.5485C12.9901 31.5483 12.2164 31.5481 11.4428 31.5502C11.1144 31.5576 10.7707 31.5005 10.5085 31.2952C10.0546 30.9731 9.86959 30.3372 10.0978 29.8338C10.5837 29.381 10.7622 29.0663 11.262 29.068C12.0206 29.0626 12.7792 29.0636 13.5377 29.0646C14.0551 29.0653 14.5732 29.066 15.0906 29.0647C15.0903 28.3479 15.0905 27.6311 15.0908 26.9143L15.0908 26.9066C15.0912 25.6116 15.0916 24.3166 15.0889 23.0215C15.0846 22.7226 15.1262 22.408 15.3104 22.1588C15.4749 21.9095 15.7438 21.768 16.0054 21.6304C16.0513 21.6063 16.097 21.5822 16.1419 21.5577C18.0333 20.5402 19.4977 19.0492 20 17C20 17 20.0136 15.0062 20 14.1634C19.5576 14.1637 19.2969 14.1619 18.8544 14.1617C18.0797 14.1615 17.3049 14.1613 16.5305 14.1634C16.2039 14.1708 15.8611 14.112 15.5997 13.9084C15.1457 13.5855 14.9608 12.9513 15.189 12.4479C15.374 11.9933 15.856 11.6787 16.3566 11.6804C17.1005 11.6755 17.8441 11.6766 18.5878 11.6777C19.1191 11.6785 19.4686 11.6768 20 11.6754L20 7ZM23.2789 21.6819C22.0036 21.9129 20.8903 22.8278 20.4346 24.0117C20.5429 24.4862 20.175 24.9987 20.1809 25.5062C20.1824 26.1924 20.1819 26.8788 20.1815 27.5652C20.181 28.4804 20.1804 29.3957 20.1843 30.3107C20.1707 30.9698 20.774 31.5576 21.4495 31.546C23.1491 31.5502 24.8478 31.5502 26.5466 31.546C27.2254 31.5601 27.8295 30.9698 27.816 30.3083C27.8211 28.6507 27.8194 26.9932 27.8168 25.3356C27.8202 24.2411 27.2975 23.1606 26.4278 22.4685C25.5691 21.7631 24.3786 21.4724 23.2789 21.6819Z" fill="white" fill-opacity="0.5"/>
<path d="M35 8C35 7.44772 35.4477 7 36 7H40C40.5523 7 41 7.44772 41 8V18C41 18.5523 40.5523 19 40 19H36C35.4477 19 35 18.5523 35 18V8Z" fill="white" fill-opacity="0.5"/>
<path d="M39 25C39 24.4477 39.4477 24 40 24H46C46.5523 24 47 24.4477 47 25V35C47 35.5523 46.5523 36 46 36H40C39.4477 36 39 35.5523 39 35V25Z" fill="white" fill-opacity="0.5"/>
<path d="M1 25C1 24.4477 1.44772 24 2 24H8C8.55228 24 9 24.4477 9 25V35C9 35.5523 8.55228 36 8 36H2C1.44772 36 1 35.5523 1 35V25Z" fill="white" fill-opacity="0.5"/>
<path d="M7 8C7 7.44772 7.44772 7 8 7H12C12.5523 7 13 7.44772 13 8V18C13 18.5523 12.5523 19 12 19H8C7.44772 19 7 18.5523 7 18V8Z" fill="white" fill-opacity="0.5"/>
</svg>
