<svg width="48" height="48" viewBox="0 0 48 48" fill="none" xmlns="http://www.w3.org/2000/svg" preserveaspectratio="none">
<path fill-rule="evenodd" clip-rule="evenodd" d="M24.3011 1C27.9132 1.05928 31.513 1.95056 34.7079 3.64419L26.5871 8.18542C24.3359 7.82053 22.0089 7.93603 19.8067 8.52885L24.3011 1ZM27.311 3.2885C26.9572 3.5103 27.0615 4.11948 27.4735 4.20635C27.8406 4.32185 28.2168 3.92732 28.0941 3.56549C28.0123 3.23944 27.5799 3.0851 27.311 3.2885ZM24.9554 5.64037C24.5792 5.75178 24.4882 6.30577 24.8072 6.53165C25.0914 6.77594 25.5821 6.57969 25.6251 6.20969C25.7028 5.84479 25.303 5.50648 24.9554 5.64037Z" fill="white"/>
<path fill-rule="evenodd" clip-rule="evenodd" d="M12.7482 3.9406C15.8992 2.16519 19.4775 1.16046 23.0916 1.02248L18.3335 9.00821C16.1957 9.81363 14.247 11.0913 12.6306 12.7021L12.7482 3.9406ZM16.6772 4.20941C16.3613 4.41077 16.4073 4.93818 16.7508 5.08638C17.0841 5.26832 17.5299 4.95964 17.4787 4.58453C17.4624 4.20839 16.9778 3.97535 16.6772 4.20941ZM15.8532 7.4822C15.4882 7.59872 15.4054 8.13431 15.7131 8.35815C15.9902 8.60244 16.4799 8.42254 16.531 8.05663C16.6189 7.68663 16.2038 7.33093 15.8532 7.4822Z" fill="white"/>
<path fill-rule="evenodd" clip-rule="evenodd" d="M35.7538 4.23089L28.1095 8.50739C30.3137 9.09511 32.3851 10.1581 34.1517 11.5993L43.4513 11.724C41.5211 8.66889 38.8608 6.07886 35.7538 4.23089ZM36.994 8.66071C36.6709 8.47366 36.6903 7.95239 37.0205 7.78374C37.3518 7.57421 37.8251 7.87777 37.7781 8.26515C37.7679 8.63516 37.2986 8.87433 36.994 8.66071ZM33.5536 9.44671C33.2827 9.20345 33.3962 8.70977 33.7418 8.60143C34.0904 8.45935 34.4973 8.80483 34.4114 9.17279C34.3583 9.55812 33.8205 9.73597 33.5536 9.44671Z" fill="white"/>
<path fill-rule="evenodd" clip-rule="evenodd" d="M4.22357 12.2514C6.07101 9.14417 8.66275 6.48362 11.7197 4.55388L11.596 13.8479C10.1534 15.6162 9.08703 17.688 8.50019 19.8937L8.49923 19.892C8.50019 19.8937 4.22357 12.2514 4.22357 12.2514ZM8.08203 10.244C7.71398 10.3308 7.58107 10.8552 7.86938 11.1025C8.12702 11.3734 8.6331 11.2344 8.71591 10.8715C8.83246 10.5077 8.44396 10.1234 8.08203 10.244ZM8.90198 13.6139C8.56153 13.7191 8.44907 14.2036 8.70977 14.4479C8.95003 14.7147 9.44282 14.6145 9.55324 14.2711C9.72091 13.8898 9.28538 13.4524 8.90198 13.6139Z" fill="white"/>
<path d="M23.6314 22.1229C24.3195 21.9818 25.0689 22.2588 25.5003 22.8128C25.9645 23.3852 26.0463 24.2325 25.6997 24.8836C25.3194 25.6461 24.3911 26.0764 23.5629 25.8669C22.7164 25.6839 22.0641 24.8642 22.0846 23.9964C22.0682 23.1082 22.7573 22.2772 23.6314 22.1229Z" fill="white"/>
<path fill-rule="evenodd" clip-rule="evenodd" d="M22.6213 12.2309C25.2223 11.9253 27.9224 12.4997 30.1552 13.8734C32.5445 15.3187 34.392 17.6348 35.259 20.2902C36.1679 23.0264 36.0288 26.0938 34.8694 28.7339C33.7632 31.2892 31.7226 33.4213 29.2208 34.6447C26.6986 35.8917 23.7234 36.1861 21.0039 35.4686C18.3406 34.7858 15.9472 33.13 14.3533 30.8926C12.8596 28.8177 12.0734 26.2481 12.1501 23.6918C12.2094 20.8074 13.3841 17.967 15.3716 15.8758C17.2589 13.8581 19.8752 12.5416 22.6213 12.2309ZM22.5201 14.5705C21.784 14.6809 21.0653 14.8915 20.3741 15.1685C20.1257 15.2666 19.8813 15.4199 19.7566 15.6662C19.4438 16.2458 19.8128 17.0665 20.459 17.2076C20.7555 17.2769 21.034 17.1664 21.3076 17.0578C21.3972 17.0223 21.4864 16.9869 21.5754 16.9582C23.2869 16.3633 25.2131 16.4318 26.8836 17.1309C27.314 17.3384 27.8712 17.2055 28.136 16.7997C28.5061 16.3265 28.3967 15.5293 27.8283 15.2645C26.1802 14.5153 24.3052 14.2976 22.5201 14.5705ZM15.6538 19.7639C15.435 19.8783 15.2857 20.0889 15.1917 20.3117C14.203 22.6411 14.2041 25.3701 15.1947 27.6985C15.298 27.9479 15.48 28.1758 15.7366 28.279C16.3112 28.5244 17.0657 28.1595 17.2017 27.5421C17.2728 27.2469 17.1625 26.9688 17.054 26.6955C17.0176 26.6036 16.9813 26.5121 16.9522 26.4209C16.3817 24.7681 16.4165 22.9109 17.0637 21.2848C17.1649 21.0262 17.2732 20.7471 17.2037 20.4661C17.0637 19.816 16.2345 19.445 15.6538 19.7639ZM31.3985 19.7536C30.874 19.9601 30.6163 20.6143 30.873 21.1202C31.6387 22.9416 31.6377 25.0625 30.873 26.8849C30.6327 27.3643 30.8454 27.9847 31.3289 28.2157C31.8268 28.5162 32.5568 28.3189 32.7736 27.7619C33.8051 25.3987 33.8051 22.6063 32.7736 20.2422C32.567 19.7138 31.8923 19.4971 31.3985 19.7536ZM23.3257 20.4855C22.5518 20.6306 21.8331 21.0435 21.3137 21.6343C20.1625 22.8874 20.1226 24.9684 21.2247 26.2645C22.2747 27.6024 24.3185 27.9847 25.7784 27.1087C27.2394 26.3064 27.9581 24.4145 27.3887 22.8455C26.8601 21.1958 25.0229 20.1236 23.3257 20.4855ZM20.4631 30.7955C19.8435 30.9273 19.4744 31.6857 19.7208 32.2622C19.8149 32.4952 20.0142 32.6721 20.2402 32.7753C22.4383 33.733 25.0004 33.7984 27.2517 32.9797C27.293 32.9639 27.3351 32.9483 27.3776 32.9326C27.6881 32.8177 28.018 32.6956 28.2015 32.4043C28.5798 31.8258 28.2117 30.9406 27.5379 30.7955C27.2578 30.726 26.9797 30.8333 26.7221 30.9345C24.9943 31.6213 23.0037 31.6213 21.2748 30.9335C21.0192 30.8333 20.7422 30.727 20.4631 30.7955Z" fill="white"/>
<path fill-rule="evenodd" clip-rule="evenodd" d="M30.8259 10.6375C28.4632 9.42218 25.7713 8.86922 23.1202 9.0256C19.2423 9.23206 15.4882 11.0361 12.8893 13.9184C10.7474 16.2642 9.38148 19.307 9.0717 22.4694C8.76805 25.4018 9.3457 28.4211 10.7351 31.0234C12.238 33.8649 14.6784 36.2014 17.5902 37.568C20.1451 38.7833 23.0497 39.2402 25.8561 38.8896C28.9038 38.5267 31.8176 37.1765 34.0843 35.1098C36.4674 32.9562 38.1298 30.0197 38.732 26.8645C39.3618 23.6274 38.8966 20.184 37.3988 17.2434C35.9787 14.4203 33.6405 12.0745 30.8259 10.6375ZM13.6622 16.3245C15.9012 13.2837 19.5327 11.3223 23.3094 11.1475C25.8878 11.0044 28.5051 11.6575 30.7053 13.0108C33.3614 14.6237 35.397 17.2301 36.3049 20.2024C37.2015 23.0929 37.0359 26.2982 35.8356 29.0773C34.6251 31.9116 32.3605 34.2768 29.5786 35.6055C27.2599 36.7309 24.5966 37.1172 22.0498 36.7278C19.3108 36.3179 16.7252 34.9861 14.794 33.0032C12.6275 30.8047 11.2984 27.8028 11.143 24.7191C10.9662 21.7406 11.871 18.7131 13.6622 16.3245Z" fill="white"/>
<path fill-rule="evenodd" clip-rule="evenodd" d="M44.0678 12.7553L35.3019 12.6357C36.9152 14.2506 38.1881 16.2018 38.9978 18.336L46.9847 23.0959C46.8466 19.4828 45.8427 15.9064 44.0678 12.7553ZM39.6828 16.396C39.4129 16.1487 39.5336 15.657 39.8812 15.5538C40.2267 15.4148 40.6275 15.7592 40.5478 16.1221C40.4966 16.5146 39.9497 16.6904 39.6828 16.396ZM42.982 17.2965C42.7397 17.0246 42.9105 16.5534 43.2601 16.4809C43.6333 16.3694 44.0116 16.7875 43.8603 17.1493C43.7427 17.5111 43.208 17.6042 42.982 17.2965Z" fill="white"/>
<path fill-rule="evenodd" clip-rule="evenodd" d="M1 23.7184C1.03578 20.1012 1.94468 16.4952 3.6357 13.297L8.17916 21.4166C7.81213 23.6663 7.93583 25.9916 8.52166 28.1942L1 23.7184ZM3.47927 19.9387C3.14291 20.0807 3.08668 20.5918 3.38624 20.8023C3.68682 21.0589 4.20925 20.8269 4.21334 20.4282C4.25219 20.0531 3.8095 19.7628 3.47927 19.9387ZM5.93094 22.405C5.57107 22.5277 5.49132 23.0632 5.80315 23.283C6.08328 23.5232 6.57505 23.3392 6.62412 22.9723C6.71102 22.5931 6.28264 22.2496 5.93094 22.405Z" fill="white"/>
<path fill-rule="evenodd" clip-rule="evenodd" d="M47 24.2877L39.4773 19.8109C40.0642 22.0146 40.1828 24.3388 39.8208 26.5905L44.3633 34.7081C46.0523 31.5079 46.9591 27.905 47 24.2877ZM41.5252 25.4938C41.245 25.2506 41.3585 24.7405 41.7153 24.6393C42.066 24.5034 42.4709 24.8509 42.3829 25.2178C42.3267 25.6022 41.794 25.7759 41.5252 25.4938ZM43.9983 28.0205C43.6803 27.8171 43.7325 27.2794 44.0831 27.1404C44.4318 26.9605 44.8837 27.2968 44.8039 27.6832C44.7641 28.0481 44.2876 28.2464 43.9983 28.0205Z" fill="white"/>
<path fill-rule="evenodd" clip-rule="evenodd" d="M1.01431 24.9112C1.15029 28.5244 2.15631 32.1007 3.93219 35.2509L12.695 35.3694C11.1298 33.7913 9.69617 31.7503 8.89667 29.6733L1.01431 24.9112ZM4.30638 31.4323C4.0058 31.2227 4.06305 30.7117 4.39839 30.5706C4.72658 30.3897 5.16518 30.6841 5.12837 31.0551C5.12428 31.4496 4.60798 31.6868 4.30638 31.4323ZM7.59334 32.3297C7.33058 32.0895 7.43384 31.6091 7.76918 31.4946C8.126 31.3321 8.55744 31.699 8.45111 32.0772C8.38364 32.4564 7.85404 32.6169 7.59334 32.3297Z" fill="white"/>
<path fill-rule="evenodd" clip-rule="evenodd" d="M39.4978 28.1114L43.7774 35.7537C41.9249 38.8589 39.3362 41.5195 36.2793 43.4512L36.403 34.1562C37.8446 32.3879 38.9099 30.3161 39.4978 28.1114ZM38.7392 33.4356C38.4007 33.5491 38.2985 34.0386 38.5694 34.2758C38.8342 34.562 39.3689 34.3933 39.4241 34.008C39.5151 33.6329 39.0909 33.2823 38.7392 33.4356ZM39.5632 36.8034C39.2197 36.9425 39.1624 37.4586 39.465 37.6722C39.7687 37.9319 40.2942 37.6876 40.287 37.2869C40.3146 36.923 39.8873 36.6389 39.5632 36.8034Z" fill="white"/>
<path fill-rule="evenodd" clip-rule="evenodd" d="M35.3684 35.302C33.753 36.9138 31.8023 38.1904 29.6655 38.9979L24.9074 46.9816C28.5225 46.8436 32.1008 45.8399 35.2518 44.0635L35.3684 35.302ZM31.6663 40.4534C31.3453 40.2367 31.4158 39.6899 31.7839 39.5672C32.1376 39.4088 32.5589 39.7706 32.4679 40.1447C32.4116 40.4973 31.9454 40.6813 31.6663 40.4534ZM30.7677 43.8161C30.4374 43.6373 30.4384 43.1037 30.7758 42.933C31.1102 42.7204 31.5876 43.0342 31.5344 43.4236C31.5181 43.7824 31.0693 44.0175 30.7677 43.8161Z" fill="white"/>
<path fill-rule="evenodd" clip-rule="evenodd" d="M4.54766 36.2811L13.8452 36.4048C15.6139 37.845 17.6853 38.909 19.8895 39.4977L12.2452 43.7742C9.1402 41.9242 6.47792 39.3372 4.54766 36.2811ZM13.9076 38.446C13.5426 38.5666 13.4608 39.1114 13.7808 39.3301C14.0609 39.5601 14.5312 39.3761 14.5874 39.0194C14.6815 38.6453 14.2593 38.2896 13.9076 38.446ZM10.5562 39.2943C10.2321 39.4006 10.1063 39.8524 10.3395 40.1059C10.5746 40.4105 11.1114 40.3011 11.2136 39.9321C11.3639 39.5488 10.9324 39.1359 10.5562 39.2943Z" fill="white"/>
<path fill-rule="evenodd" clip-rule="evenodd" d="M28.1923 39.4752C25.989 40.0609 23.6642 40.1825 21.4118 39.8197L13.2768 44.3578C16.4829 46.0413 20.0858 46.953 23.7081 47L28.1923 39.4752ZM22.5743 42.2901C22.2543 42.0755 22.3238 41.5297 22.6868 41.4009C23.0446 41.2374 23.474 41.5992 23.3789 41.9794C23.3217 42.3341 22.8544 42.5181 22.5743 42.2901ZM20.141 44.7401C19.8036 44.5653 19.8036 44.0267 20.138 43.8509C20.4426 43.6557 20.8843 43.8887 20.9037 44.2454C20.962 44.6399 20.4784 44.9578 20.141 44.7401Z" fill="white"/>
</svg>
