<svg width="48" height="48" viewBox="0 0 48 48" fill="none" xmlns="http://www.w3.org/2000/svg" preserveaspectratio="none">
<path d="M3.09081 18.8441H19.5351C23.4031 18.8441 26.5498 15.7382 26.5498 11.921C26.5498 8.10381 23.4031 5 19.5351 5C16.2169 5 13.3254 7.32684 12.6626 10.5311C12.4326 11.6422 13.1644 12.7226 14.2955 12.9501C15.4287 13.1593 16.5306 12.4581 16.7606 11.349C17.0303 10.0452 18.1969 9.10013 19.5351 9.10013C21.0969 9.10013 22.3681 10.365 22.3681 11.921C22.3681 13.477 21.0969 14.7439 19.5351 14.7439H3.09081C1.93669 14.7439 1 15.6604 1 16.794C1 17.9277 1.93669 18.8441 3.09081 18.8441Z" fill="white"/>
<path d="M46.9979 17.8252C46.9979 13.1469 43.1424 9.33793 38.4026 9.33793C33.8969 9.33793 30.1292 12.8107 29.8261 17.2429C29.7487 18.3746 30.6185 19.3504 31.7726 19.4263C32.9246 19.4878 33.922 18.6472 33.9972 17.5177C34.154 15.2298 36.088 13.436 38.4005 13.436C40.8342 13.436 42.8142 15.4041 42.8142 17.8232C42.8142 20.2422 40.8342 22.2103 38.4005 22.2103H12.7441C11.59 22.2103 10.6533 23.1267 10.6533 24.2603C10.6533 25.394 11.59 26.3104 12.7441 26.3104H31.4757C33.9094 26.3104 35.8894 28.2785 35.8894 30.6976C35.8894 33.1166 33.9094 35.0867 31.4757 35.0867C29.1633 35.0867 27.2293 33.2929 27.0725 31.0051C26.9951 29.8755 26.0082 29.0493 24.8478 29.0964C23.6958 29.1723 22.8239 30.1502 22.9013 31.2798C23.2065 35.712 26.9721 39.1848 31.4778 39.1848C36.2177 39.1848 40.0731 35.3778 40.0731 30.6955C40.0731 29.0882 39.6173 27.5814 38.827 26.2981C43.3703 26.0788 47 22.3599 47 17.8211L46.9979 17.8252Z" fill="white"/>
<path d="M11.0147 29.1559H18.7486C19.9027 29.1559 20.8394 30.0723 20.8394 31.206C20.8394 32.3397 19.9027 33.2561 18.7486 33.2561H11.0147C9.45284 33.2561 8.18163 34.523 8.18163 36.079C8.18163 37.635 9.45284 38.8999 11.0147 38.8999C12.3528 38.8999 13.5195 37.9548 13.7892 36.653C14.0171 35.5439 15.1252 34.8243 16.2522 35.0499C17.3854 35.2774 18.1172 36.3578 17.8872 37.4669C17.2244 40.6732 14.3349 43 11.0147 43C7.14668 43 4 39.8963 4 36.079C4 32.2618 7.14668 29.1559 11.0147 29.1559Z" fill="white"/>
</svg>
