<svg width="48" height="48" viewBox="0 0 48 48" fill="none" xmlns="http://www.w3.org/2000/svg">
<path fill-rule="evenodd" clip-rule="evenodd" d="M2.28995 14.8802C1.57753 14.8802 1 15.4653 1 16.1871V31.8696C1 32.5914 1.57753 33.1765 2.28995 33.1765H11.4084C12.0852 33.1765 12.6469 32.6466 12.6951 31.9627L13.8008 16.2802C13.8541 15.5237 13.2627 14.8802 12.5141 14.8802H2.28995ZM3.06392 16.9712H6.0308L3.06392 18.7066V16.9712ZM8.61069 16.9712L3.06392 20.2156V23.2337L11.5931 18.2448L11.6829 16.9712H8.61069ZM3.06392 24.7428V27.7609L11.2602 22.9667L11.4821 19.8188L3.06392 24.7428ZM3.06392 31.0855H5.1199L10.9273 27.6886L11.1492 24.5406L3.06392 29.27V31.0855ZM10.6878 31.0855L10.8163 29.2625L7.6998 31.0855H10.6878Z" fill="white"/>
<path fill-rule="evenodd" clip-rule="evenodd" d="M18.8879 14.8802C18.1755 14.8802 17.5979 15.4653 17.5979 16.1871V31.8696C17.5979 32.5914 18.1755 33.1765 18.8879 33.1765H28.0064C28.6831 33.1765 29.2448 32.6466 29.293 31.9627L30.3987 16.2802C30.4521 15.5237 29.8607 14.8802 29.112 14.8802H18.8879ZM19.6619 16.9712H22.6287L19.6619 18.7066V16.9712ZM25.2086 16.9712L19.6619 20.2156V23.2337L28.191 18.2448L28.2808 16.9712H25.2086ZM19.6619 24.7428V27.7609L27.8581 22.9667L28.0801 19.8188L19.6619 24.7428ZM19.6619 31.0855H21.7178L27.5252 27.6886L27.7471 24.5406L19.6619 29.27V31.0855ZM27.2857 31.0855L27.4142 29.2625L24.2977 31.0855H27.2857Z" fill="white"/>
<path fill-rule="evenodd" clip-rule="evenodd" d="M34.1959 12.3C34.1959 11.582 34.7691 11 35.4763 11L45.7196 11C46.4267 11 47 11.582 47 12.3V20.75C47 21.109 46.7134 21.4 46.3598 21.4C46.0062 21.4 45.7196 21.691 45.7196 22.05V35.7C45.7196 36.418 45.1463 37 44.4392 37H35.4763C34.7691 37 34.1959 36.418 34.1959 35.7V12.3ZM36.2445 13.08H38.034L36.2445 14.1289V13.08ZM36.2445 34.92H39.1883L43.6709 32.2924V29.2902L36.2445 33.6434V34.92ZM43.6709 34.92V33.7935L41.7492 34.92H43.6709ZM36.2445 32.1423L43.6709 27.7891V24.7868L36.2445 29.1401V32.1423ZM44.9513 19.724V19.5329L36.2445 24.6367V27.6389L43.6709 23.2857V22.05C43.6709 21.0666 44.1831 20.2046 44.9513 19.724ZM44.9513 18.0318V15.0296L36.2445 20.1334V23.1356L44.9513 18.0318ZM44.9513 13.08L40.5948 13.08L36.2445 15.6301V18.6323L44.9513 13.5285V13.08Z" fill="white"/>
</svg>
