<svg width="48" height="48" viewBox="0 0 48 48" fill="none" xmlns="http://www.w3.org/2000/svg" preserveaspectratio="none">
<path fill-rule="evenodd" clip-rule="evenodd" d="M32.9081 40.7932C34.7922 42.0985 36.8981 42.1635 38.8498 40.7932C40.5618 39.5875 42.3912 39.4923 44.0881 40.3675V43.5696C42.3912 42.6939 40.5618 42.7891 38.8498 43.9941C36.8981 45.3701 34.7922 45.3001 32.9081 43.9941C31.0212 42.6889 28.9153 42.6189 26.9658 43.9941C25.0147 45.3701 22.9082 45.3001 21.0241 43.9941C19.1372 42.6889 17.0313 42.6189 15.0819 43.9941C13.133 45.3701 11.0265 45.3001 9.14015 43.9941C7.4829 42.844 5.65636 42.6635 3.91419 43.5645V40.3625C5.65636 39.4575 7.4829 39.6423 9.14015 40.7932C11.0265 42.0985 13.133 42.1635 15.0819 40.7932C17.0313 39.4179 19.1372 39.4822 21.0241 40.7932C22.9082 42.0985 25.0147 42.1635 26.9658 40.7932C28.9153 39.4179 31.0212 39.4822 32.9081 40.7932ZM28.2953 33.5849C28.2953 35.9654 26.3716 37.8919 24.0008 37.8919C21.6273 37.8919 19.7035 35.9654 19.7035 33.5849C19.7035 32.1636 20.3997 30.903 21.4624 30.1179V5.54126C21.4624 4.14071 22.5978 2.99999 24.0008 2.99999C25.4005 2.99999 26.5364 4.14071 26.5364 5.54126V9.09333H36.2161V12.0249H26.5364V16.2468H36.2161V19.1828H26.5364V23.3996H36.2161V26.3362H26.5364V30.1179C27.6014 30.903 28.2953 32.1636 28.2953 33.5849ZM37.9411 31.5387C40.4594 30.2081 43.6336 30.3884 45.8496 31.5387C46.2067 31.7235 46.5933 31.8836 47.0001 32.0287V35.3652C46.5933 35.2252 46.2067 35.06 45.8496 34.8752C43.6336 33.7249 40.4594 33.5446 37.9411 34.8752C36.0945 35.8507 34.1327 36.0607 32.1313 35.5757V32.2387C34.1327 32.7242 36.0945 32.5136 37.9411 31.5387ZM10.0611 34.8752C11.9078 35.8507 13.8696 36.0607 15.871 35.5757V32.2387C13.8696 32.7242 11.9078 32.5136 10.0611 31.5387C7.54342 30.2081 4.36863 30.3884 2.15286 31.5387C1.79599 31.7235 1.40923 31.8836 1 32.0287V35.3652C1.40923 35.2252 1.79599 35.06 2.15286 34.8752C4.36863 33.7249 7.54342 33.5446 10.0611 34.8752Z" fill="white"/>
</svg>
