<svg width="48" height="48" viewBox="0 0 48 48" fill="none" xmlns="http://www.w3.org/2000/svg" preserveaspectratio="none">
<path d="M24.4998 46.9975C12.7536 47.2222 6.46113 32.3303 14.8369 24.1671V10.5119C15.2447 -2.17928 33.7587 -2.162 34.1626 10.5119V24.1671C42.5403 32.3322 36.244 47.2222 24.4998 46.9975ZM24.4998 4.75105C22.9621 4.75105 21.4874 5.358 20.4002 6.43837C19.3129 7.51875 18.702 8.98405 18.702 10.5119V24.9852C18.702 25.2547 18.6449 25.5212 18.5343 25.7674C18.4238 26.0135 18.2623 26.2338 18.0604 26.4139C16.6256 27.719 15.619 29.4227 15.1713 31.3036C14.7236 33.1846 14.8555 35.1558 15.5499 36.9613C16.2443 38.7668 17.469 40.3231 19.0651 41.4279C20.6611 42.5328 22.5547 43.1352 24.4998 43.1569C26.4448 43.1352 28.3384 42.5328 29.9345 41.4279C31.5305 40.3231 32.7553 38.7668 33.4497 36.9613C34.1441 35.1558 34.276 33.1846 33.8283 31.3036C33.3805 29.4227 32.3739 27.719 30.9391 26.4139C30.7372 26.2338 30.5758 26.0135 30.4652 25.7674C30.3547 25.5212 30.2975 25.2547 30.2975 24.9852V10.5119C30.2975 8.98405 29.6867 7.51875 28.5994 6.43837C27.5121 5.358 26.0374 4.75105 24.4998 4.75105ZM24.4998 39.3163C23.1416 39.2994 21.8323 38.8102 20.7993 37.9338C19.7663 37.0573 19.0749 35.8491 18.8452 34.5188C18.6156 33.1886 18.8621 31.8204 19.5421 30.652C20.222 29.4836 21.2923 28.5887 22.5672 28.1229V10.5119C22.5672 10.0026 22.7708 9.5142 23.1332 9.15408C23.4957 8.79395 23.9872 8.59164 24.4998 8.59164C25.0123 8.59164 25.5039 8.79395 25.8663 9.15408C26.2287 9.5142 26.4323 10.0026 26.4323 10.5119V28.1229C27.7072 28.5887 28.7776 29.4836 29.4575 30.652C30.1374 31.8204 30.384 33.1886 30.1543 34.5188C29.9246 35.8491 29.2332 37.0573 28.2003 37.9338C27.1673 38.8102 25.858 39.2994 24.4998 39.3163ZM24.4998 31.6351C23.9872 31.6351 23.4957 31.8375 23.1332 32.1976C22.7708 32.5577 22.5672 33.0461 22.5672 33.5554C22.5672 34.0647 22.7708 34.5532 23.1332 34.9133C23.4957 35.2734 23.9872 35.4757 24.4998 35.4757C25.0123 35.4757 25.5039 35.2734 25.8663 34.9133C26.2287 34.5532 26.4323 34.0647 26.4323 33.5554C26.4323 33.0461 26.2287 32.5577 25.8663 32.1976C25.5039 31.8375 25.0123 31.6351 24.4998 31.6351Z" fill="white"/>
</svg>
