<svg width="48" height="48" viewBox="0 0 48 48" fill="none" xmlns="http://www.w3.org/2000/svg">
<path d="M17.1503 1H17.445C19.9454 1.07367 22.4349 1.80051 24.5301 3.17871C27.3709 5.00523 29.4921 7.92965 30.3142 11.2089C30.8075 13.0049 30.7383 14.8818 30.7383 16.7262C30.7248 17.604 31.015 18.5141 31.6718 19.1197C32.2746 19.7234 33.1389 19.9813 33.9771 19.9705C37.5206 20.0145 41.011 21.567 43.4197 24.1644C44.6739 25.4914 45.6497 27.0825 46.2543 28.8057C46.7296 30.1175 46.9443 31.5091 47 32.899V33.9825C46.9506 35.8378 46.5598 37.694 45.753 39.3705C44.2714 42.5536 41.4593 45.0854 38.1441 46.2372C36.7866 46.7323 35.3446 46.9569 33.9035 47H15.6535C13.924 46.9515 12.1954 46.575 10.6348 45.8204C8.76699 44.939 7.14082 43.5617 5.9432 41.8816C4.59734 40.0012 3.81211 37.7227 3.72137 35.412C3.66387 33.7732 3.71059 32.1327 3.69441 30.493C2.64504 30.0968 1.7484 29.2864 1.31984 28.2424C1.12398 27.7851 1.03414 27.2901 1 26.7959V26.6145C1.03234 26.0871 1.13207 25.5597 1.35039 25.0763C1.79063 24.0674 2.6693 23.2848 3.69441 22.9003C3.69621 20.3919 3.69531 17.8834 3.69441 15.375C3.6998 14.154 3.79234 12.9259 4.08703 11.7381C5.03039 7.63406 7.88113 3.97023 11.7246 2.20301C13.4146 1.39891 15.2843 1.02695 17.1503 1ZM13.3418 10.7364C12.3652 11.7184 11.7839 13.0867 11.7839 14.4748C11.7777 17.2833 11.783 20.0927 11.7812 22.9021C12.6366 23.2246 13.3957 23.814 13.8728 24.5993C14.5619 25.6927 14.6607 27.1293 14.128 28.3071C13.6922 29.3223 12.81 30.1067 11.7812 30.4912C11.7804 31.8326 11.783 33.1739 11.7804 34.5153C11.783 35.0975 11.8235 35.6914 12.0328 36.2412C12.5764 37.8063 14.1612 38.915 15.817 38.9078C21.4493 38.923 27.0825 38.9096 32.7157 38.9141C33.4974 38.9105 34.2952 38.9563 35.0571 38.7425C36.8935 38.278 38.4163 36.7336 38.8018 34.872C39.0336 33.6618 38.9257 32.3716 38.3993 31.2504C37.756 29.8497 36.5467 28.6737 35.0508 28.2352C34.1335 27.9486 33.1578 28.0879 32.2207 27.9289C31.3618 27.8139 30.5173 27.5982 29.7114 27.2811C26.3845 26.0152 23.788 23.027 22.9785 19.5635C22.5508 17.9625 22.6784 16.2932 22.6434 14.6554C22.6029 13.0534 21.8698 11.4973 20.6938 10.4165C19.8537 9.65645 18.7603 9.165 17.6238 9.1048C16.0488 8.9907 14.4415 9.60344 13.3418 10.7364ZM4.795 25.3755C4.23797 25.4707 3.77797 25.9559 3.71148 26.5174C3.58391 27.2883 4.25234 28.0546 5.03219 28.0385C6.77336 28.0502 8.51453 28.0385 10.2557 28.0439C10.6007 28.052 10.9628 27.99 11.2395 27.7689C11.7004 27.4347 11.898 26.7914 11.7031 26.2569C11.5279 25.7268 10.996 25.3477 10.4381 25.3521C8.78945 25.3405 7.14082 25.353 5.49219 25.3459C5.25949 25.3468 5.0259 25.3396 4.795 25.3755Z" fill="white"/>
</svg>
