<svg width="48" height="48" viewBox="0 0 48 48" fill="none" xmlns="http://www.w3.org/2000/svg" preserveaspectratio="none">
<path d="M26.8904 23.3936C27.381 23.9466 27.7006 24.6285 27.811 25.3576C27.9213 26.0868 27.8177 26.832 27.5126 27.504C27.2074 28.1761 26.7137 28.7463 26.0906 29.1462C25.4676 29.5462 24.7417 29.759 24 29.759C23.2583 29.759 22.5324 29.5462 21.9094 29.1462C21.2863 28.7463 20.7926 28.1761 20.4874 27.504C20.1823 26.832 20.0787 26.0868 20.189 25.3576C20.2994 24.6285 20.619 23.9466 21.1096 23.3936V14.4093H26.8904V23.3936ZM40.1863 12.3232C42.7958 15.3914 44.4684 19.1372 45.0072 23.1192C45.546 27.1012 44.9283 31.1533 43.2272 34.7978C41.526 38.4424 38.8121 41.5274 35.4055 43.6894C31.9989 45.8513 28.0416 47 24 47C19.9584 47 16.0011 45.8513 12.5945 43.6894C9.18789 41.5274 6.47404 38.4424 4.77285 34.7978C3.07165 31.1533 2.45403 27.1012 2.9928 23.1192C3.53156 19.1372 5.20424 15.3914 7.81367 12.3232L6.54189 10.921L5.08512 12.3711L1 8.30617L8.22604 1.1226L12.315 5.18755L10.6405 6.8503L12.1088 8.47092C14.8029 6.65481 17.8838 5.48438 21.1096 5.05154V1H26.8904V5.05154C30.1162 5.48438 33.1971 6.65481 35.8912 8.47092L37.3595 6.8503L35.685 5.18755L39.774 1.1226L47 8.30617L42.911 12.3711L41.4543 10.921L40.1863 12.3232ZM39.4155 25.9031C39.4155 22.8721 38.5114 19.9091 36.8176 17.389C35.1237 14.8688 32.7161 12.9046 29.8993 11.7446C27.0824 10.5847 23.9829 10.2812 20.9926 10.8726C18.0023 11.4639 15.2555 12.9234 13.0996 15.0667C10.9437 17.2099 9.47547 19.9406 8.88066 22.9133C8.28584 25.8861 8.59112 28.9674 9.75789 31.7677C10.9247 34.5679 12.9005 36.9614 15.4356 38.6453C17.9707 40.3292 20.9511 41.228 24 41.228C28.087 41.2235 32.0054 39.6074 34.8954 36.7344C37.7853 33.8614 39.411 29.9661 39.4155 25.9031Z" fill="white"/>
</svg>
