<svg width="848" height="350" viewBox="0 0 848 350" fill="none" xmlns="http://www.w3.org/2000/svg">
<path d="M1.00003 151C43 145 61 139 103 121L109 127V289C109 319 120.912 331 139 337V349H1V337C19 331 31 319.082 31 289V211C31 181 19 163 1 163L1.00003 151Z" fill="white"/>
<path d="M19 67C19 67 19 0.999961 103 1C259 1.00007 259 151 259 151C331 121 409 121 409 211V289C409 319 420.912 331 439 337V349H301V337C319 331 331 319.082 331 289V211C331 145.001 301 151 259 163L259 289C259 319 270.912 331 289 337V349H151V337C169 331 181 319.082 181 289V211C181 181 169 163 151 163L151 151C259 151 241 30.9991 163 30.9997C147.356 30.9998 135.3 35.532 126.093 41.6421C115.929 48.3878 110.931 59.6865 105.89 71.084C101.566 80.8601 97.2103 90.709 89.5337 97.8196C82.0424 104.759 72.0165 109 61 109C37.804 109 19 90.196 19 67Z" fill="white"/>
<path fill-rule="evenodd" clip-rule="evenodd" d="M559 31C601 25 619 19 661 1L667 7V289C667 319 678.912 331 697 337V349H607.088C601 349 589 337 589 331C577 349 541 349 529 349C469 349 439 301 439 247V223C439 169 469 121 529 121C541 121 577 121 589 139V91C589 61 577 43 559 43L559 31ZM589 229C589 163 574.539 151 553 151C531.461 151 511 183.461 511 229V241C511 286.539 531.461 319 553 319C574.539 319 589 307 589 241V229Z" fill="white"/>
<path d="M769 109C792.196 109 811 90.196 811 67C811 43.804 792.196 25 769 25C745.804 25 727 43.804 727 67C727 90.196 745.804 109 769 109Z" fill="white"/>
<path d="M811 121C769 139 751 145 709 151L709 163C727 163 739 181 739 211V289C739 319.082 727 331 709 337V349H847V337C828.912 331 817 319 817 289V127L811 121Z" fill="white"/>
</svg>
