<svg width="312" height="18" viewBox="0 0 312 18" fill="none" xmlns="http://www.w3.org/2000/svg" preserveaspectratio="none">
<path d="M3 1H1V17H3V1Z"/>
<path d="M7 1H5V17H7V1Z"/>
<path d="M9 1H11V17H9V1Z"/>
<path d="M15 1H13V17H15V1Z"/>
<path d="M17 1H19V17H17V1Z"/>
<path d="M23 1H21V17H23V1Z"/>
<path d="M25 1H27V17H25V1Z"/>
<path d="M31 1H29V17H31V1Z"/>
<path d="M33 1H35V17H33V1Z"/>
<path d="M39 1H37V17H39V1Z"/>
<path d="M41 1H43V17H41V1Z"/>
<path d="M47 1H45V17H47V1Z"/>
<path d="M49 1H51V17H49V1Z"/>
<path d="M55 1H53V17H55V1Z"/>
<path d="M57 1H59V17H57V1Z"/>
<path d="M63 1H61V17H63V1Z"/>
<path d="M65 1H67V17H65V1Z"/>
<path d="M71 1H69V17H71V1Z"/>
<path d="M73 1H75V17H73V1Z"/>
<path d="M79 1H77V17H79V1Z"/>
<path d="M81 1H83V17H81V1Z"/>
<path d="M87 1H85V17H87V1Z"/>
<path d="M89 1H91V17H89V1Z"/>
<path d="M95 1H93V17H95V1Z"/>
<path d="M97 1H99V17H97V1Z"/>
<path d="M103 1H101V17H103V1Z"/>
<path d="M105 1H107V17H105V1Z"/>
<path d="M111 1H109V17H111V1Z"/>
<path d="M113 1H115V17H113V1Z"/>
<path d="M119 1H117V17H119V1Z"/>
<path d="M121 1H123V17H121V1Z"/>
<path d="M127 1H125V17H127V1Z"/>
<path d="M129 1H131V17H129V1Z"/>
<path d="M135 1H133V17H135V1Z"/>
<path d="M137 1H139V17H137V1Z"/>
<path d="M143 1H141V17H143V1Z"/>
<path d="M145 1H147V17H145V1Z"/>
<path d="M151 1H149V17H151V1Z"/>
<path d="M153 1H155V17H153V1Z"/>
<path d="M159 1H157V17H159V1Z"/>
<path d="M161 1H163V17H161V1Z"/>
<path d="M167 1H165V17H167V1Z"/>
<path d="M169 1H171V17H169V1Z"/>
<path d="M175 1H173V17H175V1Z"/>
<path d="M177 1H179V17H177V1Z"/>
<path d="M183 1H181V17H183V1Z"/>
<path d="M185 1H187V17H185V1Z"/>
<path d="M191 1H189V17H191V1Z"/>
<path d="M193 1H195V17H193V1Z"/>
<path d="M199 1H197V17H199V1Z"/>
<path d="M201 1H203V17H201V1Z"/>
<path d="M207 1H205V17H207V1Z"/>
<path d="M209 1H211V17H209V1Z"/>
<path d="M215 1H213V17H215V1Z"/>
<path d="M217 1H219V17H217V1Z"/>
<path d="M223 1H221V17H223V1Z"/>
<path d="M225 1H227V17H225V1Z"/>
<path d="M231 1H229V17H231V1Z"/>
<path d="M233 1H235V17H233V1Z"/>
<path d="M239 1H237V17H239V1Z"/>
<path d="M241 1H243V17H241V1Z"/>
<path d="M247 1H245V17H247V1Z"/>
<path d="M249 1H251V17H249V1Z"/>
<path d="M255 1H253V17H255V1Z"/>
<path d="M257 1H259V17H257V1Z"/>
<path d="M263 1H261V17H263V1Z"/>
<path d="M265 1H267V17H265V1Z"/>
<path d="M271 1H269V17H271V1Z"/>
<path d="M273 1H275V17H273V1Z"/>
<path d="M279 1H277V17H279V1Z"/>
<path d="M281 1H283V17H281V1Z"/>
<path d="M287 1H285V17H287V1Z"/>
<path d="M289 1H291V17H289V1Z"/>
<path d="M295 1H293V17H295V1Z"/>
<path d="M297 1H299V17H297V1Z"/>
<path d="M303 1H301V17H303V1Z"/>
<path d="M305 1H307V17H305V1Z"/>
<path d="M311 1H309V17H311V1Z"/>
</svg>
