<svg width="48" height="48" viewBox="0 0 48 48" fill="none" xmlns="http://www.w3.org/2000/svg" preserveaspectratio="none">
<path d="M25.4281 16.8735C25.4281 17.2924 25.0771 17.6328 24.6459 17.6328H8.55371C8.12181 17.6328 7.77213 17.2924 7.77213 16.8735V5.01226C7.77213 4.59396 8.12181 4.25356 8.55371 4.25356H24.6459C25.0771 4.25356 25.4281 4.59396 25.4281 5.01226V16.8735ZM42.7015 15.4113C43.1909 15.2844 44.0402 15.0648 44.4442 14.955C44.9236 14.825 45.0026 14.6189 44.8578 14.1779C42.783 7.86487 39.2431 3.07044 32.9177 1.06423C32.4371 0.911505 32.1456 1.01577 31.9628 1.54385C31.8319 1.91921 31.7826 2.31052 31.7997 2.82265C31.818 3.35625 31.9445 3.5697 32.1816 3.77946C36.9287 8.01146 38.8542 10.9315 39.4265 17.7647C39.7945 22.1574 41.4273 30.2577 42.6679 33.8022C43.5254 36.25 41.5367 38.9677 38.7828 38.9677C36.5278 38.9677 34.6933 37.1884 34.6933 35.0012V23.5846C34.6933 20.4345 32.0305 18.183 29.2197 18.1873C29.1255 18.1873 28.827 18.1873 28.5538 18.1873V3.76289C28.5538 2.29703 27.3277 1.10838 25.817 1.10838H7.15052C5.63856 1.10838 4.41306 2.29703 4.41306 3.76289C4.41306 5.95004 4.41306 42.9383 4.41306 42.9838C4.41306 43.4026 4.06336 43.732 3.63146 43.732C3.63146 43.732 3.43733 43.732 2.78221 43.732C2.35032 43.732 2 44.0615 2 44.481V46.2417C2 46.6607 2.35032 47 2.78221 47H30.184C30.6165 47 30.9675 46.6607 30.9675 46.2417V44.481C30.9675 44.0615 30.6165 43.732 30.184 43.732C29.5295 43.732 29.336 43.732 29.336 43.732C28.9035 43.732 28.5538 43.4026 28.5538 42.9838V21.1938C28.7587 21.1938 28.9503 21.1938 29.0135 21.1938C30.8398 21.1938 31.5651 22.6113 31.5651 23.5846C31.5651 26.5949 31.5651 31.9014 31.5651 35.0012C31.5651 38.8671 34.797 42.0025 38.7828 42.0025C43.3831 42.0025 47.1886 37.6857 45.6546 32.9018C44.1698 28.2699 42.5434 20.4388 42.3436 15.8499C42.3398 15.6922 42.4536 15.4782 42.7015 15.4113Z" fill="white"/>
</svg>
