<svg width="48" height="48" viewBox="0 0 48 48" fill="none" xmlns="http://www.w3.org/2000/svg" preserveaspectratio="none">
<path d="M38.375 1C36.0883 1.00254 33.896 1.91205 32.279 3.52901C30.6621 5.14596 29.7525 7.33829 29.75 9.625C29.75 10.3875 30.0529 11.1188 30.5921 11.6579C31.1312 12.1971 31.8625 12.5 32.625 12.5C33.3875 12.5 34.1188 12.1971 34.6579 11.6579C35.1971 11.1188 35.5 10.3875 35.5 9.625C35.5 8.8625 35.8029 8.13124 36.3421 7.59207C36.8812 7.0529 37.6125 6.75 38.375 6.75C39.1375 6.75 39.8688 7.0529 40.4079 7.59207C40.9471 8.13124 41.25 8.8625 41.25 9.625V27.0801C39.0653 25.9549 36.5548 25.6329 34.1569 26.1703C31.7589 26.7077 29.6259 28.0703 28.1304 30.0202C26.902 29.2186 25.4669 28.7917 24 28.7917C22.5331 28.7917 21.098 29.2186 19.8696 30.0202C18.3741 28.0703 16.2411 26.7077 13.8431 26.1703C11.4452 25.6329 8.93468 25.9549 6.75 27.0801V9.625C6.75 8.8625 7.0529 8.13124 7.59207 7.59207C8.13124 7.0529 8.8625 6.75 9.625 6.75C10.3875 6.75 11.1188 7.0529 11.6579 7.59207C12.1971 8.13124 12.5 8.8625 12.5 9.625C12.5 10.3875 12.8029 11.1188 13.3421 11.6579C13.8812 12.1971 14.6125 12.5 15.375 12.5C16.1375 12.5 16.8688 12.1971 17.4079 11.6579C17.9471 11.1188 18.25 10.3875 18.25 9.625C18.25 7.33751 17.3413 5.14371 15.7238 3.5262C14.1063 1.9087 11.9125 1 9.625 1C7.33751 1 5.14371 1.9087 3.5262 3.5262C1.9087 5.14371 1 7.33751 1 9.625L1 36.4583C1 39.2542 2.11064 41.9355 4.08758 43.9124C6.06453 45.8894 8.74584 47 11.5417 47C14.3375 47 17.0188 45.8894 18.9958 43.9124C20.9727 41.9355 22.0833 39.2542 22.0833 36.4583C22.0833 35.95 22.2853 35.4625 22.6447 35.103C23.0042 34.7436 23.4917 34.5417 24 34.5417C24.5083 34.5417 24.9958 34.7436 25.3553 35.103C25.7147 35.4625 25.9167 35.95 25.9167 36.4583C25.9167 39.2542 27.0273 41.9355 29.0042 43.9124C30.9812 45.8894 33.6625 47 36.4583 47C39.2542 47 41.9355 45.8894 43.9124 43.9124C45.8894 41.9355 47 39.2542 47 36.4583V9.625C46.9975 7.33829 46.0879 5.14596 44.471 3.52901C42.854 1.91205 40.6617 1.00254 38.375 1V1ZM11.5417 41.25C10.594 41.25 9.66754 40.969 8.87956 40.4425C8.09157 39.9159 7.47741 39.1676 7.11474 38.292C6.75207 37.4165 6.65718 36.453 6.84207 35.5235C7.02696 34.594 7.48332 33.7402 8.15345 33.0701C8.82357 32.4 9.67737 31.9436 10.6069 31.7587C11.5364 31.5738 12.4998 31.6687 13.3754 32.0314C14.2509 32.3941 14.9993 33.0082 15.5258 33.7962C16.0523 34.5842 16.3333 35.5106 16.3333 36.4583C16.3333 37.7292 15.8285 38.9479 14.9299 39.8466C14.0313 40.7452 12.8125 41.25 11.5417 41.25ZM36.4583 41.25C35.5106 41.25 34.5842 40.969 33.7962 40.4425C33.0082 39.9159 32.3941 39.1676 32.0314 38.292C31.6687 37.4165 31.5738 36.453 31.7587 35.5235C31.9436 34.594 32.4 33.7402 33.0701 33.0701C33.7402 32.4 34.594 31.9436 35.5235 31.7587C36.453 31.5738 37.4165 31.6687 38.292 32.0314C39.1676 32.3941 39.9159 33.0082 40.4425 33.7962C40.969 34.5842 41.25 35.5106 41.25 36.4583C41.25 37.7292 40.7452 38.9479 39.8466 39.8466C38.9479 40.7452 37.7292 41.25 36.4583 41.25Z" fill="white"/>
</svg>
