<svg width="48" height="48" viewBox="0 0 48 48" fill="none" xmlns="http://www.w3.org/2000/svg" preserveaspectratio="none">
<path d="M32.9624 18.653C32.8497 18.4491 32.6993 18.2703 32.52 18.1268C32.3406 17.9832 32.1357 17.8778 31.9171 17.8165C31.6984 17.7552 31.4703 17.7392 31.2456 17.7695C31.021 17.7998 30.8044 17.8757 30.6081 17.9929L28.9155 19.0018C28.0378 18.0784 26.9343 17.4204 25.7235 17.0985V15.0556C25.7235 14.5811 25.542 14.1261 25.2187 13.7906C24.8955 13.4551 24.4571 13.2667 24 13.2667C23.5429 13.2667 23.1045 13.4551 22.7813 13.7906C22.458 14.1261 22.2765 14.5811 22.2765 15.0556V17.0985C21.0639 17.4195 19.9585 18.0776 19.0793 19.0018L17.3868 17.9929C17.1905 17.8755 16.9739 17.7993 16.7493 17.7687C16.5247 17.7381 16.2965 17.7537 16.0777 17.8147C15.8589 17.8757 15.6539 17.9808 15.4742 18.124C15.2946 18.2672 15.1439 18.4458 15.0307 18.6494C14.9175 18.8531 14.8441 19.0779 14.8146 19.311C14.7852 19.5442 14.8003 19.781 14.859 20.0081C14.9177 20.2352 15.019 20.448 15.157 20.6345C15.295 20.821 15.467 20.9774 15.6632 21.0948L17.3747 22.1163C17.2034 22.7287 17.1129 23.3624 17.1058 24C17.1146 24.6379 17.2068 25.2716 17.3799 25.8837L15.6684 26.9052C15.2721 27.1424 14.9828 27.5333 14.8642 27.9919C14.7455 28.4505 14.8073 28.9392 15.0359 29.3506C15.2644 29.7619 15.641 30.0622 16.0829 30.1853C16.5247 30.3084 16.9956 30.2443 17.3919 30.0071L19.0845 28.9982C19.9623 29.9216 21.0657 30.5796 22.2765 30.9015V32.9444C22.2765 33.4189 22.458 33.8739 22.7813 34.2094C23.1045 34.5449 23.5429 34.7333 24 34.7333C24.4571 34.7333 24.8955 34.5449 25.2187 34.2094C25.542 33.8739 25.7235 33.4189 25.7235 32.9444V30.9015C26.9361 30.5805 28.0415 29.9225 28.9207 28.9982L30.6132 30.0071C30.8095 30.1246 31.0261 30.2007 31.2507 30.2313C31.4753 30.2619 31.7035 30.2463 31.9223 30.1853C32.1411 30.1243 32.3461 30.0192 32.5258 29.876C32.7054 29.7328 32.8561 29.5542 32.9693 29.3506C33.0825 29.1469 33.1559 28.9221 33.1854 28.689C33.2148 28.4558 33.1997 28.219 33.141 27.9919C33.0823 27.7648 32.981 27.552 32.843 27.3655C32.705 27.179 32.533 27.0226 32.3368 26.9052L30.6253 25.8837C30.7967 25.2713 30.8871 24.6376 30.8942 24C30.8854 23.3621 30.7932 22.7284 30.6201 22.1163L32.3316 21.0948C32.727 20.8576 33.0155 20.4672 33.1338 20.0094C33.2521 19.5516 33.1904 19.0637 32.9624 18.653ZM24 27.5778C23.3182 27.5778 22.6518 27.3679 22.0849 26.9748C21.518 26.5817 21.0762 26.0229 20.8153 25.3692C20.5544 24.7154 20.4861 23.996 20.6192 23.302C20.7522 22.608 21.0805 21.9705 21.5625 21.4701C22.0446 20.9698 22.6588 20.629 23.3275 20.491C23.9962 20.3529 24.6893 20.4238 25.3191 20.6946C25.949 20.9654 26.4874 21.4239 26.8662 22.0123C27.2449 22.6007 27.4471 23.2924 27.4471 24C27.4471 24.9489 27.0839 25.8589 26.4375 26.5299C25.791 27.2008 24.9142 27.5778 24 27.5778Z" fill="white"/>
<path d="M24.0001 4.83373C26.5523 4.84207 29.0775 5.35454 31.4295 6.34149C33.7816 7.32844 35.9138 8.77026 37.7028 10.5835H31.6961C31.1858 10.5835 30.6964 10.7855 30.3356 11.1449C29.9748 11.5043 29.7721 11.9918 29.7721 12.5001C29.7721 13.0084 29.9748 13.4959 30.3356 13.8554C30.6964 14.2148 31.1858 14.4167 31.6961 14.4167H39.6672C40.6146 14.4162 41.5231 14.0411 42.193 13.3737C42.863 12.7064 43.2396 11.8014 43.2401 10.8576V2.91713C43.2401 2.40881 43.0374 1.92132 42.6765 1.56189C42.3157 1.20246 41.8263 1.00053 41.3161 1.00053C40.8058 1.00053 40.3164 1.20246 39.9556 1.56189C39.5948 1.92132 39.3921 2.40881 39.3921 2.91713V6.89982C36.212 4.04687 32.2975 2.13211 28.0868 1.36995C23.8762 0.607795 19.5357 1.02834 15.5514 2.5845C11.5671 4.14065 8.09632 6.77097 5.52778 10.1809C2.95923 13.5908 1.39432 17.6457 1.00828 21.8915C0.983429 22.1584 1.01466 22.4275 1.09998 22.6817C1.18531 22.9359 1.32285 23.1696 1.50386 23.368C1.68486 23.5663 1.90535 23.7249 2.15129 23.8337C2.39722 23.9425 2.6632 23.999 2.93228 23.9997C3.40287 24.0057 3.85875 23.8365 4.2107 23.5253C4.56264 23.214 4.78531 22.7831 4.83512 22.3169C5.26342 17.546 7.4671 13.1071 11.0132 9.87216C14.5594 6.6372 19.1916 4.84004 24.0001 4.83373Z" fill="white"/>
<path d="M45.0697 24.0002C44.5991 23.9943 44.1432 24.1634 43.7912 24.4747C43.4393 24.7859 43.2166 25.2168 43.1668 25.683C42.8488 29.3308 41.487 32.8111 39.2431 35.7111C36.9992 38.6111 33.9673 40.809 30.5072 42.0442C27.047 43.2794 23.3038 43.4999 19.7216 42.6796C16.1394 41.8594 12.8686 40.0328 10.2972 37.4165H16.3039C16.8142 37.4165 17.3036 37.2145 17.6644 36.8551C18.0252 36.4957 18.2279 36.0082 18.2279 35.4998C18.2279 34.9915 18.0252 34.504 17.6644 34.1446C17.3036 33.7852 16.8142 33.5832 16.3039 33.5832H8.33281C7.86354 33.583 7.39882 33.6749 6.96523 33.8537C6.53164 34.0324 6.13767 34.2946 5.80584 34.6251C5.47402 34.9557 5.21086 35.3481 5.03139 35.7801C4.85193 36.212 4.75969 36.6749 4.75994 37.1424V45.0829C4.75994 45.5912 4.96265 46.0787 5.32347 46.4381C5.68429 46.7975 6.17366 46.9995 6.68394 46.9995C7.19421 46.9995 7.68359 46.7975 8.04441 46.4381C8.40523 46.0787 8.60794 45.5912 8.60794 45.0829V41.1002C11.788 43.9531 15.7025 45.8679 19.9132 46.63C24.1238 47.3922 28.4643 46.9717 32.4486 45.4155C36.4329 43.8593 39.9037 41.229 42.4722 37.8191C45.0408 34.4092 46.6057 30.3543 46.9917 26.1085C47.0166 25.8416 46.9853 25.5725 46.9 25.3182C46.8147 25.064 46.6772 24.8303 46.4961 24.632C46.3151 24.4336 46.0947 24.275 45.8487 24.1663C45.6028 24.0575 45.3387 24.0009 45.0697 24.0002Z" fill="white"/>
</svg>
