<svg width="48" height="48" viewBox="0 0 48 48" fill="none" xmlns="http://www.w3.org/2000/svg" preserveaspectratio="none">
<g clip-path="url(#clip0_48_4601)">
<path d="M45.6025 19.0528C42.6298 14.2113 35.8678 6.08847 23.9998 6.08847C12.1318 6.08847 5.36979 14.2113 2.39704 19.0528C1.47805 20.5392 0.991272 22.2522 0.991272 23.9997C0.991272 25.7473 1.47805 27.4602 2.39704 28.9466C5.36979 33.7881 12.1318 41.911 23.9998 41.911C35.8678 41.911 42.6298 33.7881 45.6025 28.9466C46.5215 27.4602 47.0083 25.7473 47.0083 23.9997C47.0083 22.2522 46.5215 20.5392 45.6025 19.0528ZM42.3346 26.9399C39.7816 31.0914 34.0029 38.0776 23.9998 38.0776C13.9967 38.0776 8.21796 31.0914 5.66496 26.9399C5.11897 26.0564 4.82977 25.0383 4.82977 23.9997C4.82977 22.9611 5.11897 21.943 5.66496 21.0596C8.21796 16.9081 13.9967 9.9218 23.9998 9.9218C34.0029 9.9218 39.7816 16.9004 42.3346 21.0596C42.8806 21.943 43.1698 22.9611 43.1698 23.9997C43.1698 25.0383 42.8806 26.0564 42.3346 26.9399Z" fill="white"/>
<path d="M23.9996 14.4164C22.1042 14.4164 20.2514 14.9784 18.6754 16.0314C17.0994 17.0845 15.8711 18.5812 15.1458 20.3323C14.4204 22.0834 14.2306 24.0103 14.6004 25.8693C14.9702 27.7283 15.8829 29.4359 17.2232 30.7761C18.5634 32.1164 20.271 33.0291 22.13 33.3989C23.989 33.7687 25.9159 33.5789 27.667 32.8535C29.4181 32.1282 30.9148 30.8999 31.9678 29.3239C33.0209 27.7479 33.5829 25.8951 33.5829 23.9997C33.5799 21.459 32.5692 19.0232 30.7727 17.2266C28.9761 15.43 26.5403 14.4194 23.9996 14.4164ZM23.9996 29.7497C22.8624 29.7497 21.7507 29.4125 20.8051 28.7806C19.8595 28.1488 19.1225 27.2508 18.6873 26.2001C18.2521 25.1494 18.1382 23.9933 18.3601 22.8779C18.5819 21.7625 19.1296 20.738 19.9337 19.9338C20.7379 19.1297 21.7624 18.582 22.8778 18.3602C23.9932 18.1383 25.1494 18.2522 26.2 18.6874C27.2507 19.1226 28.1487 19.8596 28.7805 20.8052C29.4124 21.7507 29.7496 22.8624 29.7496 23.9997C29.7496 25.5247 29.1438 26.9872 28.0655 28.0656C26.9871 29.1439 25.5246 29.7497 23.9996 29.7497Z" fill="white"/>
</g>
<defs>
<clipPath id="clip0_48_4601">
<rect width="46" height="46" fill="white" transform="translate(1 1)"/>
</clipPath>
</defs>
</svg>
