<svg width="48" height="48" viewBox="0 0 48 48" fill="none" xmlns="http://www.w3.org/2000/svg" preserveaspectratio="none">
<path d="M34.2128 16.9439V14.9184H29.0068V11.9949H32.9276V10.8673H16.0825V11.9949H20.0358V14.9184H14.8986V16.9439H34.2128ZM32.1022 8.17857L30.5527 3.92857H18.5515L17.0853 8.17857H32.1022ZM17.1758 19.8571V23.4388H12.0495V11.7653H8.11062C7.72687 11.7857 7.49879 11.6837 7.37932 11.5102L7.28158 10.8418L7.54586 9.88775L9.76871 7.5102H13.6134L16.3576 1H32.9276L35.6935 7.5102H39.5382L41.7285 9.88775L42 10.8418L41.9095 11.5102C41.8335 11.6837 41.6126 11.7857 41.2723 11.7653H37.3407V23.4388H32.1022V19.8571H17.1758ZM35.8854 45.0561L35.0093 44.4694C34.6762 44.2398 34.3793 44.0357 34.0644 43.801L33.1702 43.0765L32.3737 42.449L31.5229 41.7602L31.0632 40.9796L31.2297 40.2449C31.4216 40.0153 31.7619 39.7806 32.2977 39.5561C32.8045 39.3214 33.3367 39.1225 33.9449 38.9133C34.5748 38.7296 35.1541 38.5612 35.7369 38.4031C36.3343 38.2245 36.8954 38.0714 37.4023 37.8878C37.9272 37.7551 38.3652 37.5867 38.7128 37.398C39.3681 37.1173 39.8061 36.7602 40.0704 36.3776L40.5265 35.148L40.3854 33.8469L39.8966 32.5612C39.6758 32.0969 39.4079 31.6429 39.1436 31.148C38.8829 30.6378 38.6187 30.1786 38.3652 29.7398C38.0829 29.2602 37.7896 28.7653 37.4928 28.2347H33.7494C33.9449 28.5408 34.1874 28.949 34.459 29.4133C34.7124 29.898 34.9767 30.4082 35.2228 30.9184C35.469 31.4643 35.6935 31.9949 35.86 32.5357C36.0265 33.0816 36.1496 33.5663 36.1677 34.0255L36.0265 35.1684C35.8854 35.5102 35.6138 35.7347 35.2228 35.8418C34.0644 36.1429 32.9783 36.4592 31.9755 36.7857C30.9871 37.1173 30.0459 37.398 29.1734 37.6888C28.7353 37.8673 28.3298 38.0969 27.9099 38.3265C27.5334 38.5969 27.2438 38.9133 27.0483 39.25L26.8781 40.4235C26.9469 40.8622 27.2691 41.3418 27.7904 41.8622C28.2864 42.4235 28.7353 42.8827 29.1444 43.2653C29.5825 43.648 30.0205 44.0051 30.4839 44.3622C30.969 44.75 31.4722 45.1327 32.0587 45.5255C32.638 45.9286 33.3367 46.4184 34.144 47H38.6187L35.8854 45.0561ZM14.9747 45.0561L14.1275 44.4694L13.1826 43.801L12.2377 43.0765L11.4014 42.449L10.5977 41.7602L10.1597 40.9796L10.3045 40.2449C10.4747 40.0153 10.8113 39.7806 11.3254 39.5561C11.854 39.3214 12.4405 39.1225 13.0342 38.9133C13.6424 38.7296 14.2434 38.5612 14.8371 38.4031C15.4308 38.2245 15.992 38.0714 16.506 37.8878C17.031 37.7551 17.4582 37.5867 17.8057 37.398C18.461 37.1173 18.9244 36.7602 19.1887 36.3776L19.6448 35.148L19.5036 33.8469L19.0149 32.5612C18.794 32.0969 18.5334 31.6429 18.2655 31.148C17.9976 30.6378 17.7261 30.1786 17.4871 29.7398C17.2011 29.2602 16.9079 28.7653 16.6472 28.2347H12.893C13.0921 28.5408 13.3021 28.949 13.5736 29.4133C13.8343 29.898 14.0768 30.4082 14.3194 30.9184C14.5656 31.4643 14.7755 31.9949 14.9493 32.5357C15.1448 33.0816 15.2643 33.5663 15.3113 34.0255L15.1448 35.1684C15.029 35.5102 14.7574 35.7347 14.3411 35.8418C13.1826 36.1429 12.1219 36.4592 11.1046 36.7857C10.0837 37.1173 9.14964 37.398 8.27715 37.6888C7.83548 37.8673 7.42277 38.0969 7.03902 38.3265C6.65527 38.5969 6.36203 38.9133 6.17377 39.25L6 40.4235C6.07241 40.8622 6.38737 41.3418 6.91955 41.8622C7.40105 42.4235 7.86444 42.8827 8.27715 43.2653C8.68986 43.648 9.12792 44.0051 9.60217 44.3622C10.0656 44.75 10.5977 45.1327 11.1553 45.5255C11.7381 45.9286 12.4405 46.4184 13.2261 47H17.7261" fill="white"/>
</svg>
