<svg width="48" height="48" viewBox="0 0 48 48" fill="none" xmlns="http://www.w3.org/2000/svg" preserveaspectratio="none">
<path d="M37.3898 47C36.8815 47 36.394 46.7981 36.0345 46.4386C35.6751 46.0792 35.4732 45.5917 35.4732 45.0833V39.3333C35.4732 38.825 35.6751 38.3375 36.0345 37.978C36.394 37.6186 36.8815 37.4167 37.3898 37.4167C37.8982 37.4167 38.3857 37.6186 38.7451 37.978C39.1046 38.3375 39.3065 38.825 39.3065 39.3333V45.0833C39.3065 45.5917 39.1046 46.0792 38.7451 46.4386C38.3857 46.7981 37.8982 47 37.3898 47ZM29.7232 47C29.2148 47 28.7273 46.7981 28.3679 46.4386C28.0084 46.0792 27.8065 45.5917 27.8065 45.0833V39.3333C27.8065 38.825 28.0084 38.3375 28.3679 37.978C28.7273 37.6186 29.2148 37.4167 29.7232 37.4167C30.2315 37.4167 30.719 37.6186 31.0785 37.978C31.4379 38.3375 31.6398 38.825 31.6398 39.3333V45.0833C31.6398 45.5917 31.4379 46.0792 31.0785 46.4386C30.719 46.7981 30.2315 47 29.7232 47ZM22.0565 47C21.5482 47 21.0607 46.7981 20.7012 46.4386C20.3418 46.0792 20.1398 45.5917 20.1398 45.0833V39.3333C20.1398 38.825 20.3418 38.3375 20.7012 37.978C21.0607 37.6186 21.5482 37.4167 22.0565 37.4167C22.5648 37.4167 23.0523 37.6186 23.4118 37.978C23.7712 38.3375 23.9732 38.825 23.9732 39.3333V45.0833C23.9732 45.5917 23.7712 46.0792 23.4118 46.4386C23.0523 46.7981 22.5648 47 22.0565 47ZM16.3333 44.1001C15.9184 44.1012 15.5146 43.9666 15.1833 43.7168C13.9803 42.8268 13.1148 41.5551 12.7281 40.1096C12.3004 38.5465 12.4529 36.8814 13.1576 35.4221C13.8622 33.9627 15.0713 32.8078 16.5614 32.1707C16.2167 30.4382 16.2533 28.6514 16.6687 26.9344C17.2505 24.5834 18.5596 22.4761 20.4095 20.9129C22.2593 19.3497 24.5555 18.4104 26.9706 18.229C29.3857 18.0476 31.7964 18.6332 33.8591 19.9025C35.9217 21.1718 37.531 23.0599 38.4574 25.2976C38.7181 25.9186 39.0056 25.9837 39.5825 26.1141L39.9237 26.1965C42.331 26.8526 44.3887 28.4196 45.6611 30.566C46.9335 32.7123 47.3209 35.2696 46.7412 37.6965C46.385 39.2304 45.6488 40.6501 44.6003 41.825C44.2628 42.2062 43.7876 42.4378 43.2794 42.4687C42.7711 42.4996 42.2714 42.3274 41.8902 41.9898C41.5089 41.6523 41.2774 41.1771 41.2465 40.6689C41.2155 40.1606 41.3878 39.6609 41.7253 39.2797C42.3471 38.5864 42.7847 37.7481 42.998 36.8417C43.3508 35.3807 43.1217 33.8398 42.3591 32.5447C41.5966 31.2496 40.3603 30.3017 38.9117 29.9014C38.0311 29.775 37.1992 29.4193 36.4995 28.87C35.7997 28.3206 35.2568 27.5969 34.925 26.7715C34.1993 24.9983 32.836 23.5612 31.1036 22.743C29.3712 21.9248 27.3952 21.7849 25.5648 22.3509C23.7344 22.9169 22.1822 24.1477 21.214 25.8009C20.2457 27.4542 19.9316 29.41 20.3334 31.2833C20.5329 32.1665 20.4159 33.0916 20.0029 33.8973C19.5899 34.7029 18.9071 35.338 18.0737 35.6917C17.4249 35.9654 16.8998 36.4685 16.5985 37.1049C16.2973 37.7413 16.2411 38.4664 16.4407 39.1417C16.6074 39.7465 16.9726 40.2777 17.4776 40.6501C17.7994 40.8914 18.0371 41.228 18.1571 41.6119C18.277 41.9959 18.2731 42.4079 18.1459 42.7895C18.0187 43.1712 17.7746 43.5031 17.4483 43.7383C17.1219 43.9735 16.7299 44.1001 16.3276 44.1001H16.3333ZM4.97325 27.8333C4.55134 27.8333 4.14123 27.6941 3.80651 27.4372C3.47179 27.1804 3.23118 26.8203 3.12198 26.4127C3.01278 26.0052 3.0411 25.573 3.20255 25.1832C3.36399 24.7934 3.64954 24.4678 4.01492 24.2568L8.32358 21.7652C8.14057 21.2443 7.99894 20.7098 7.9 20.1667H2.91667C2.40833 20.1667 1.92082 19.9647 1.56138 19.6053C1.20193 19.2458 1 18.7583 1 18.25C1 17.7417 1.20193 17.2542 1.56138 16.8947C1.92082 16.5353 2.40833 16.3333 2.91667 16.3333H7.87892C7.92108 16.088 7.97475 15.8427 8.03417 15.5973C8.09358 15.352 8.18175 15.0492 8.27183 14.7808L3.97467 12.3371C3.54809 12.0783 3.23922 11.6634 3.1137 11.1805C2.98818 10.6977 3.0559 10.1849 3.30246 9.75113C3.54903 9.31739 3.95502 8.99689 4.43414 8.85773C4.91327 8.71858 5.42778 8.77174 5.86833 9.00592L10.1597 11.4439C10.5355 10.996 10.9477 10.5799 11.3922 10.2L8.9235 5.92967C8.67334 5.48968 8.60737 4.96861 8.73998 4.48016C8.87259 3.99171 9.19302 3.57554 9.63134 3.32247C10.0697 3.0694 10.5903 2.99998 11.0796 3.12934C11.5689 3.25871 11.9872 3.57637 12.2432 4.013L14.7157 8.29675C14.9993 8.19708 15.2907 8.10508 15.5801 8.038C15.8312 7.97667 16.0822 7.923 16.3333 7.87892V2.91667C16.3333 2.40833 16.5353 1.92082 16.8947 1.56138C17.2542 1.20193 17.7417 1 18.25 1C18.7583 1 19.2458 1.20193 19.6053 1.56138C19.9647 1.92082 20.1667 2.40833 20.1667 2.91667V7.9C20.6872 7.99686 21.1998 8.13268 21.7 8.30633L24.1572 3.98425C24.4159 3.55767 24.8308 3.2488 25.3137 3.12328C25.7966 2.99776 26.3094 3.06548 26.7431 3.31205C27.1769 3.55862 27.4974 3.9646 27.6365 4.44373C27.7757 4.92286 27.7225 5.43736 27.4883 5.87792L25.035 10.1962C25.4573 10.5523 25.8514 10.9406 26.2137 11.3577L30.5703 8.92925C31.0116 8.67661 31.5351 8.60959 32.0257 8.74295C32.5164 8.8763 32.9339 9.1991 33.1866 9.64033C33.4392 10.0816 33.5062 10.6051 33.3729 11.0957C33.2395 11.5864 32.9167 12.0039 32.4755 12.2566L28.1534 14.7233C27.3725 15.161 26.4639 15.314 25.5827 15.1564C24.7015 14.9987 23.9023 14.5402 23.3215 13.8589C22.4986 12.9016 21.4223 12.196 20.2163 11.823C19.0103 11.4501 17.7235 11.425 16.5039 11.7506C15.3557 12.045 14.3083 12.644 13.4723 13.4843C12.6363 14.3247 12.0428 15.3752 11.7544 16.525C11.4381 17.7251 11.4597 18.9893 11.8169 20.1779C12.1741 21.3665 12.8529 22.4332 13.7784 23.2602C14.1244 23.6072 14.3243 24.0734 14.3371 24.5633C14.3499 25.0531 14.1747 25.5292 13.8473 25.8938C13.52 26.2584 13.0655 26.4838 12.5772 26.5237C12.0888 26.5636 11.6037 26.415 11.2216 26.1083C10.8688 25.7924 10.5378 25.453 10.2307 25.0925L5.92967 27.5842C5.6384 27.7501 5.30845 27.836 4.97325 27.8333Z" fill="white"/>
</svg>
