<svg width="48" height="48" viewBox="0 0 48 48" fill="none" xmlns="http://www.w3.org/2000/svg" preserveaspectratio="none">
<path d="M43.0477 2.61C42.994 2.633 37.4968 4.83333 32.6244 4.83333C30.3032 4.83333 27.2767 3.921 24.3498 3.03933C21.0243 2.03692 17.5837 1 14.4153 1C8.05938 1 2.41073 5.08825 2.17497 5.26267L1 6.12325V47H6.75024V32.1535C8.35072 31.222 11.3619 29.75 14.4153 29.75C16.7365 29.75 19.763 30.6623 22.6899 31.544C26.0155 32.5464 29.456 33.5833 32.6244 33.5833C38.6027 33.5833 44.9376 31.0495 45.2021 30.9422L47 30.2157V1.0115L43.0477 2.61ZM41.2498 14.7444C39.4269 15.3348 36.4694 16.1474 33.5828 16.3046V10.5354C36.3448 10.4166 39.1088 9.84542 41.2498 9.24933V14.7444ZM27.8325 9.96042V15.5322C26.6863 15.2312 25.5133 14.8901 24.3479 14.5393C22.964 14.1215 21.5609 13.7152 20.1655 13.3625V7.80608C21.0051 8.04183 21.8485 8.291 22.6899 8.544C24.392 9.05767 26.1228 9.57325 27.8325 9.96042ZM14.4153 6.75V12.5C11.5785 12.5 8.88741 13.3146 6.75216 14.2307V9.1535C8.35264 8.222 11.3619 6.75 14.4153 6.75ZM6.75024 25.7288V20.6593C8.34306 19.7277 11.3389 18.25 14.4134 18.25V24C11.5785 24 8.8855 24.8127 6.75024 25.7288ZM20.1655 24.8625V19.3061C21.0032 19.5418 21.8485 19.791 22.688 20.044C24.3901 20.5577 26.1209 21.0732 27.8325 21.4623V27.0322C26.6863 26.7312 25.5152 26.3901 24.3498 26.0393C22.9659 25.6215 21.5629 25.2152 20.1655 24.8625ZM33.5828 27.8007V22.0584C36.3467 21.9396 39.1088 21.3435 41.2498 20.7474V26.2483C39.4231 26.8386 36.4656 27.6455 33.5828 27.8007Z" fill="white"/>
</svg>
