<svg width="48" height="48" viewBox="0 0 48 48" fill="none" xmlns="http://www.w3.org/2000/svg">
<path d="M24.1087 47H16.4017L20.4085 31.6667H12.1285C11.3283 31.6664 10.5393 31.487 9.8245 31.1429C9.10969 30.7988 8.48892 30.2994 8.0118 29.6849C7.53467 29.0703 7.21442 28.3574 7.07663 27.6033C6.93885 26.8492 6.98734 26.0747 7.21825 25.3417L14.9132 1H33.8792L27.8691 16.3333H35.9287C36.8456 16.3339 37.7453 16.5722 38.5321 17.0228C39.3189 17.4734 39.9633 18.1196 40.3969 18.8926C40.8305 19.6657 41.037 20.5366 40.9946 21.413C40.9521 22.2893 40.6622 23.1383 40.1558 23.8697L24.1087 47Z" fill="white"/>
</svg>
