<svg width="48" height="48" viewBox="0 0 48 48" fill="none" xmlns="http://www.w3.org/2000/svg">
<path d="M37.4167 3H10.5833C8.04261 3.00303 5.60682 4.00968 3.81025 5.79915C2.01369 7.58861 1.00304 10.0148 1 12.5455L1 27.8182C1.00304 30.3489 2.01369 32.775 3.81025 34.5645C5.60682 36.354 8.04261 37.3606 10.5833 37.3636H22.0833V41.1818H14.4167C13.9083 41.1818 13.4208 41.383 13.0614 41.741C12.7019 42.099 12.5 42.5846 12.5 43.0909C12.5 43.5972 12.7019 44.0828 13.0614 44.4408C13.4208 44.7989 13.9083 45 14.4167 45H33.5833C34.0917 45 34.5792 44.7989 34.9386 44.4408C35.2981 44.0828 35.5 43.5972 35.5 43.0909C35.5 42.5846 35.2981 42.099 34.9386 41.741C34.5792 41.383 34.0917 41.1818 33.5833 41.1818H25.9167V37.3636H37.4167C39.9574 37.3606 42.3932 36.354 44.1897 34.5645C45.9863 32.775 46.997 30.3489 47 27.8182V12.5455C46.997 10.0148 45.9863 7.58861 44.1897 5.79915C42.3932 4.00968 39.9574 3.00303 37.4167 3ZM10.5833 6.81818H37.4167C38.9417 6.81818 40.4042 7.42159 41.4825 8.49566C42.5609 9.56973 43.1667 11.0265 43.1667 12.5455V25.9091H4.83333V12.5455C4.83333 11.0265 5.43914 9.56973 6.51747 8.49566C7.5958 7.42159 9.05834 6.81818 10.5833 6.81818ZM37.4167 33.5455H10.5833C9.39833 33.5406 8.24379 33.1711 7.27766 32.4876C6.31153 31.8042 5.58099 30.8401 5.186 29.7273H42.814C42.419 30.8401 41.6885 31.8042 40.7223 32.4876C39.7562 33.1711 38.6017 33.5406 37.4167 33.5455Z" fill="white"/>
</svg>
