<svg width="48" height="34" viewBox="0 0 48 34" fill="none" xmlns="http://www.w3.org/2000/svg">
<path d="M27.0703 9.82489L23.4201 9.82489L30 3.24495L27.7551 1L21.1751 7.57994V3.92966L18 3.92891L18 10.354C18 10.7014 18.0684 11.0456 18.2013 11.3666C18.3343 11.6877 18.5292 11.9794 18.7749 12.2251C19.0206 12.4708 19.3123 12.6657 19.6334 12.7987C19.9544 12.9316 20.2986 13 20.646 13L27.0711 13L27.0703 9.82489Z" fill="white"/>
<path d="M44.0703 9.82489L40.4201 9.82489L47 3.24495L44.7551 1L38.1751 7.57994V3.92966L35 3.92891L35 10.354C35 10.7014 35.0684 11.0456 35.2013 11.3666C35.3343 11.6877 35.5292 11.9794 35.7749 12.2251C36.0206 12.4708 36.3123 12.6657 36.6334 12.7987C36.9544 12.9316 37.2986 13 37.646 13L44.0711 13L44.0703 9.82489Z" fill="white"/>
<path d="M1 15.0003C3.09965 15.0013 5.2002 14.9985 7.29984 15.0013C7.30074 16.8969 7.30254 18.7925 7.29895 20.6882C5.25949 20.6835 3.24789 21.6133 1.88586 23.1761C1.58937 22.86 1.29289 22.543 1 22.2223V15.0003Z" fill="white"/>
<path d="M13.9663 20.6761C16.233 19.1216 18.9427 18.266 21.6641 18.2503C22.4538 18.2512 23.2426 18.2493 24.0323 18.2512C24.0341 20.2098 24.0314 22.1685 24.0332 24.1272C26.3027 24.129 28.5722 24.1262 30.8407 24.1281C29.591 26.1044 29.3161 28.6906 30.1426 30.894C24.8032 30.8949 19.4638 30.894 14.1244 30.894C14.6536 29.4461 14.7461 27.8313 14.3643 26.3333C13.9618 24.7121 13.0085 23.2493 11.7211 22.2343C12.4677 21.7115 13.217 21.1934 13.9663 20.6761Z" fill="white"/>
<path d="M43.7683 25.4842C44.8447 26.2045 45.9255 26.9182 47 27.6431V30.8939C45.93 30.8939 44.8608 30.8949 43.7917 30.8939C44.4269 29.167 44.417 27.2056 43.7683 25.4842Z" fill="white"/>
<path d="M41.5645 28.2378C41.5645 30.8679 39.4979 33 36.9487 33C34.3995 33 32.333 30.8679 32.333 28.2378C32.333 25.6076 34.3995 23.4755 36.9487 23.4755C39.4979 23.4755 41.5645 25.6076 41.5645 28.2378Z" fill="white"/>
<path d="M11.8486 28.2378C11.8486 30.8679 9.7821 33 7.23291 33C4.68372 33 2.61719 30.8679 2.61719 28.2378C2.61719 25.6076 4.68372 23.4755 7.23291 23.4755C9.7821 23.4755 11.8486 25.6076 11.8486 28.2378Z" fill="white"/>
</svg>
