<svg width="48" height="48" viewBox="0 0 48 48" fill="none" xmlns="http://www.w3.org/2000/svg">
<path fill-rule="evenodd" clip-rule="evenodd" d="M8.05489 1.12453C9.91342 1.5018 11.5435 2.84829 12.2596 4.60579C12.7717 5.81119 12.8254 7.17763 12.5003 8.43977C12.5807 8.35967 12.6604 8.27793 12.7404 8.19593C13.1859 7.73946 13.6392 7.27491 14.2423 7.0396C15.4445 6.51818 16.9412 6.81263 17.852 7.75733C18.4877 8.39474 19.1246 9.03094 19.7615 9.6671C20.876 10.7804 21.9904 11.8936 23.0979 13.0129C22.3987 13.7077 21.7025 14.4039 21.0063 15.1017C21.7385 15.8387 22.4737 16.5728 23.2088 17.3068L23.2106 17.3086C23.6512 17.7485 24.0918 18.1884 24.5317 18.629C24.7469 18.5261 24.9638 18.391 25.184 18.2539C25.8502 17.8388 26.5465 17.4051 27.3164 17.7901C28.3331 18.2379 28.4113 19.8267 27.4406 20.3665L17.9088 25.8798C17.4257 26.185 16.771 26.1988 16.291 25.8767C15.6884 25.5025 15.4415 24.6667 15.7482 24.0257C15.9344 23.5774 16.3579 23.3423 16.7655 23.116C16.8613 23.0628 16.9562 23.0101 17.047 22.9552C16.4014 22.3019 15.7543 21.6532 15.1026 21.0091C14.7799 21.3297 14.4579 21.6516 14.1357 21.9736L14.1324 21.9769C13.7576 22.3516 13.3826 22.7264 13.0064 23.0994C11.2552 21.3526 9.50706 19.6013 7.76047 17.8499C6.89101 17.0018 6.56285 15.6584 6.94621 14.5051C7.16601 13.7301 7.75376 13.1636 8.31754 12.6202L8.31912 12.6187C8.36054 12.5788 8.40184 12.5389 8.44285 12.4992C6.92781 12.8979 5.25636 12.7108 3.90387 11.9072C1.9794 10.8122 0.809385 8.55173 1.0256 6.34795C1.15748 4.69474 2.03766 3.12434 3.37483 2.14591C4.69358 1.15674 6.44478 0.781009 8.05489 1.12453ZM4.58013 6.13326C4.93282 4.85578 6.46472 4.12579 7.68841 4.615C8.86149 5.01374 9.53161 6.41698 9.12524 7.58404C8.77868 8.78178 7.39245 9.51483 6.20404 9.14524C4.93435 8.83545 4.1569 7.36167 4.58013 6.13326Z" fill="white"/>
<path d="M30.8418 21.4707C31.5794 21.6639 32.067 22.4906 31.8738 23.2297C31.7818 23.696 31.4245 24.0456 31.0212 24.2634L21.5921 29.703C20.7824 30.1984 19.6201 29.6785 19.433 28.7537C19.2643 28.1081 19.6094 27.3996 20.1936 27.0959L29.5323 21.7008C29.9171 21.4569 30.3956 21.3281 30.8418 21.4707Z" fill="white"/>
<path d="M35.6645 26.9318C35.804 26.2402 35.3685 25.4918 34.6999 25.2725C34.2706 25.1115 33.7845 25.1912 33.3981 25.4274L24.1499 30.7612C23.469 31.0603 22.9921 31.8317 23.2237 32.577C23.4307 33.4696 24.5547 33.9542 25.346 33.4895L34.8947 27.9824C35.2888 27.7661 35.5909 27.3796 35.6645 26.9318Z" fill="white"/>
<path fill-rule="evenodd" clip-rule="evenodd" d="M39.1577 29.542C39.6683 30.1693 39.518 31.1968 38.8418 31.6446C38.4481 31.894 38.0426 32.1243 37.637 32.3545C37.327 32.5305 37.0166 32.7068 36.7118 32.8914C37.1418 33.3289 37.5761 33.7624 38.0106 34.1959C38.464 34.6484 38.9175 35.101 39.3662 35.5583C40.4565 35.2485 41.628 35.1948 42.7229 35.5108C44.3852 35.9616 45.802 37.1977 46.4967 38.7712C47.1561 40.2373 47.1683 41.9779 46.5289 43.4517C45.9355 44.8595 44.7593 46.0036 43.3439 46.5726C41.8933 47.1707 40.2019 47.1369 38.7712 46.4974C37.339 45.8671 36.1843 44.6356 35.6537 43.1634C35.2029 41.9565 35.1968 40.6084 35.5617 39.3785C34.9121 38.7328 34.2646 38.085 33.6169 37.4371L33.6159 37.4361C33.0333 36.8532 32.4506 36.2702 31.8661 35.6887C31.4581 35.9204 31.0522 36.156 30.6463 36.3917C30.1416 36.6848 29.6364 36.9781 29.1274 37.2637C28.4082 37.6854 27.3931 37.3357 27.0757 36.5705C26.746 35.8819 27.0619 34.9939 27.7381 34.6504C30.8878 32.827 34.039 31.0066 37.1933 29.1908C37.8159 28.7906 38.7191 28.9393 39.1577 29.542ZM41.5744 38.8018C40.2771 38.5289 38.9016 39.5318 38.7805 40.8569C38.575 42.185 39.6867 43.51 41.0315 43.533C42.2813 43.6265 43.4682 42.5898 43.5265 41.3353C43.6491 40.1514 42.7521 38.9813 41.5744 38.8018Z" fill="white"/>
</svg>
