<svg width="48" height="48" viewBox="0 0 48 48" fill="none" xmlns="http://www.w3.org/2000/svg">
<path d="M26.1412 3.05326C26.2322 1.9194 27.2593 0.976426 28.3706 1.00172C30.4719 0.999425 32.5743 0.999425 34.6756 1.00172C35.7846 0.981026 36.8094 1.924 36.8971 3.05786C36.9342 3.90424 36.9027 4.75291 36.9128 5.60044C33.317 5.60044 29.7213 5.60044 26.1255 5.60044C26.1356 4.75176 26.1041 3.90079 26.1412 3.05326Z" fill="white"/>
<path d="M18.0327 8.81459C18.8789 7.93372 20.0767 7.42658 21.2835 7.44153C26.4952 7.44038 31.7068 7.43923 36.9184 7.44153C38.1174 7.41278 39.1894 8.5133 39.1579 9.73916C39.1624 14.2769 39.1602 18.8135 39.159 23.3513C36.433 22.0794 33.2743 21.8184 30.382 22.6153C27.3301 23.4433 24.613 25.4626 22.8814 28.1616C21.3116 30.5777 20.5588 33.5331 20.7666 36.4264C20.9565 39.4152 22.1814 42.3188 24.1691 44.5164C25.0355 45.4904 26.0536 46.3161 27.1525 46.998C21.3049 47.0003 15.4573 46.9992 9.60962 46.9992C8.4747 47.021 7.33304 46.6013 6.49253 45.817C5.55313 44.9615 4.99691 43.6884 5.00253 42.4016C4.99916 36.2643 4.99916 30.128 5.00253 23.9918C4.99579 22.7855 5.4756 21.5907 6.30937 20.7374C10.2153 16.7609 14.1246 12.7889 18.0327 8.81459ZM22.5803 12.2196C21.8622 12.3496 21.1936 12.7222 20.6835 13.2535C17.517 16.4906 14.3549 19.7324 11.1884 22.9695C10.858 23.2984 10.5749 23.6802 10.385 24.1114C9.69502 25.5834 10.149 27.49 11.4221 28.4732C12.7368 29.5646 14.8078 29.4714 16.0202 28.2594C19.2474 24.9705 22.4645 21.6701 25.685 18.3743C26.7401 17.3404 27.057 15.6189 26.4277 14.2677C25.794 12.7935 24.1242 11.9045 22.5803 12.2196Z" fill="white"/>
<path d="M32.3653 24.0896C34.7936 23.7768 37.3207 24.292 39.431 25.5661C41.7312 26.9346 43.5246 29.1678 44.3875 31.7437C45.3 34.4266 45.1887 37.4556 44.0819 40.0615C42.7638 43.217 39.9962 45.6917 36.7566 46.5841C34.2227 47.3039 31.4439 47.0774 29.0605 45.9389C26.5997 44.7844 24.577 42.6857 23.4882 40.1488C22.3207 37.4706 22.2184 34.3312 23.2017 31.5782C24.0298 29.2253 25.6389 27.1726 27.6964 25.8249C29.0987 24.8957 30.7078 24.3012 32.3653 24.0896ZM33.5699 29.5473C33.2912 29.6186 33.1249 29.8774 32.9518 30.089C31.8821 31.4609 30.8506 32.8776 30.0404 34.4289C29.5977 35.3155 29.1684 36.2884 29.2965 37.3107C29.4504 39.1415 30.7786 40.794 32.5091 41.2908C33.8182 41.6921 35.3037 41.4311 36.4015 40.595C37.6106 39.7038 38.3399 38.1652 38.2466 36.6403C38.15 35.7203 37.7286 34.8797 37.305 34.077C36.4779 32.589 35.4723 31.2136 34.4194 29.8866C34.2306 29.6175 33.8924 29.4484 33.5699 29.5473Z" fill="white"/>
</svg>
