<svg width="606" height="34" viewBox="0 0 606 34" fill="none" xmlns="http://www.w3.org/2000/svg">
<path d="M1 1H5V33H1V1Z" fill="white"/>
<path d="M9 1H13V33H9V1Z" fill="white"/>
<path d="M17 1H21V33H17V1Z" fill="white"/>
<path d="M25 1H29V33H25V1Z" fill="white"/>
<path d="M33 1H37V33H33V1Z" fill="white"/>
<path d="M41 1H45V33H41V1Z" fill="white"/>
<path d="M49 1H53V33H49V1Z" fill="white"/>
<path d="M57 1H61V33H57V1Z" fill="white"/>
<path d="M65 1H69V33H65V1Z" fill="white"/>
<path d="M73 1H77V33H73V1Z" fill="white"/>
<path d="M81 1H85V33H81V1Z" fill="white"/>
<path d="M89 1H93V33H89V1Z" fill="white"/>
<path d="M97 1H101V33H97V1Z" fill="white"/>
<path d="M105 1H109V33H105V1Z" fill="white"/>
<path d="M113 1H117V33H113V1Z" fill="white"/>
<path d="M121 1H125V33H121V1Z" fill="white"/>
<path d="M129 1H133V33H129V1Z" fill="white"/>
<path d="M137 1H141V33H137V1Z" fill="white"/>
<path d="M145 1H149V33H145V1Z" fill="white"/>
<path d="M153 1H157V33H153V1Z" fill="white"/>
<path d="M161 1H165V33H161V1Z" fill="white"/>
<path d="M169 1H173V33H169V1Z" fill="white"/>
<path d="M177 1H181V33H177V1Z" fill="white"/>
<path d="M185 1H189V33H185V1Z" fill="white"/>
<path d="M193 1H197V33H193V1Z" fill="white"/>
<path d="M201 1H205V33H201V1Z" fill="white"/>
<path d="M209 1H213V33H209V1Z" fill="white"/>
<path d="M217 1H221V33H217V1Z" fill="white"/>
<path d="M225 1H229V33H225V1Z" fill="white"/>
<path d="M233 1H237V33H233V1Z" fill="white"/>
<path d="M241 1H245V33H241V1Z" fill="white"/>
<path d="M249 1H253V33H249V1Z" fill="white"/>
<path d="M257 1H261V33H257V1Z" fill="white"/>
<path d="M265 1H269V33H265V1Z" fill="white"/>
<path d="M273 1H277V33H273V1Z" fill="white"/>
<path d="M281 1H285V33H281V1Z" fill="white"/>
<path d="M289 1H293V33H289V1Z" fill="white"/>
<path d="M297 1H301V33H297V1Z" fill="white"/>
<path d="M305 1H309V33H305V1Z" fill="white"/>
<path d="M313 1H317V33H313V1Z" fill="white"/>
<path d="M321 1H325V33H321V1Z" fill="white"/>
<path d="M329 1H333V33H329V1Z" fill="white"/>
<path d="M337 1H341V33H337V1Z" fill="white"/>
<path d="M345 1H349V33H345V1Z" fill="white"/>
<path d="M353 1H357V33H353V1Z" fill="white"/>
<path d="M361 1H365V33H361V1Z" fill="white"/>
<path d="M369 1H373V33H369V1Z" fill="white"/>
<path d="M377 1H381V33H377V1Z" fill="white"/>
<path d="M385 1H389V33H385V1Z" fill="white"/>
<path d="M393 1H397V33H393V1Z" fill="white"/>
<path d="M401 1H405V33H401V1Z" fill="white"/>
<path d="M409 1H413V33H409V1Z" fill="white"/>
<path d="M417 1H421V33H417V1Z" fill="white"/>
<path d="M425 1H429V33H425V1Z" fill="white"/>
<path d="M433 1H437V33H433V1Z" fill="white"/>
<path d="M441 1H445V33H441V1Z" fill="white"/>
<path d="M449 1H453V33H449V1Z" fill="white"/>
<path d="M457 1H461V33H457V1Z" fill="white"/>
<path d="M465 1H469V33H465V1Z" fill="white"/>
<path d="M473 1H477V33H473V1Z" fill="white"/>
<path d="M481 1H485V33H481V1Z" fill="white"/>
<path d="M489 1H493V33H489V1Z" fill="white"/>
<path d="M497 1H501V33H497V1Z" fill="white"/>
<path d="M505 1H509V33H505V1Z" fill="white"/>
<path d="M513 1H517V33H513V1Z" fill="white"/>
<path d="M521 1H525V33H521V1Z" fill="white"/>
<path d="M529 1H533V33H529V1Z" fill="white"/>
<path d="M537 1H541V33H537V1Z" fill="white"/>
<path d="M545 1H549V33H545V1Z" fill="white"/>
<path d="M553 1H557V33H553V1Z" fill="white"/>
<path d="M561 1H565V33H561V1Z" fill="white"/>
<path d="M569 1H573V33H569V1Z" fill="white"/>
<path d="M577 1H581V33H577V1Z" fill="white"/>
<path d="M585 1H589V33H585V1Z" fill="white"/>
<path d="M593 1H597V33H593V1Z" fill="white"/>
<path d="M601 1H605V33H601V1Z" fill="white"/>
</svg>
