<svg width="84" height="96" viewBox="0 0 84 96" fill="none" xmlns="http://www.w3.org/2000/svg">
<path d="M40.7816 93C16.4885 93 4.79932 83.6335 5.00261 64.6968H23.2987C23.6036 73.5543 30.3122 76.7104 40.4766 76.7104C51.4543 76.7104 59.0776 72.7398 59.0776 65.3077C59.0776 59.1991 53.5888 52.9887 38.1388 52.9887H34.8862V40.5679H38.1388C53.3855 40.5679 57.3497 34.1538 57.3497 29.1652C57.3497 22.7511 50.946 19.1878 41.3914 19.1878C31.1253 19.1878 25.0266 23.1584 24.925 31.5068H6.73057C6.62892 12.672 19.2329 3 41.4931 3C63.7533 3 75.7474 12.672 75.7474 26.1109C75.7474 35.681 69.9536 41.6878 62.0253 45.0475V46.371C71.7832 48.9163 79 56.1448 79 67.4457C79 83.2262 63.9566 93 40.7816 93Z" fill="white"/>
</svg>
