<svg width="84" height="96" viewBox="0 0 84 96" fill="none" xmlns="http://www.w3.org/2000/svg">
<path d="M40.7557 93C17.2688 93 4.69389 82.9768 5.00566 64.3921H23.6082C24.3356 72.9536 31.9221 76.3991 40.6518 76.3991C52.1874 76.3991 59.4622 70.0302 59.4622 60.7378C59.4622 51.2367 52.7071 45.5986 41.795 45.5986C33.6889 45.5986 28.0769 48.8353 24.9592 52.6984H6.04491L14.4628 3H71.5174V19.0789H29.8436L26.7259 38.7077C29.7397 35.993 36.8066 32.7564 47.5108 32.7564C64.8662 32.7564 79 42.6752 79 61.6775C79 80.993 64.9702 93 40.7557 93Z" fill="white"/>
</svg>
