<svg width="84" height="96" viewBox="0 0 84 96" fill="none" xmlns="http://www.w3.org/2000/svg">
<path d="M45.7755 35.4774C64.8041 35.4774 79 44.5385 79 63.3733C79 81.2919 65.8109 93 42.8558 93C15.9741 93 5 75.9977 5 48.1018C5 14.0973 22.619 3 43.4599 3C63.6966 3 77.0871 12.2647 77.4898 29.6742H61.0789C59.468 22.0385 52.6218 18.5769 43.4599 18.5769C34.1973 18.5769 23.5252 22.3439 23.7265 42.095C29.0626 37.1063 37.419 35.4774 45.7755 35.4774ZM42.6544 77.5249C53.2258 77.5249 60.7769 72.0271 60.7769 62.9661C60.7769 53.8032 53.6286 48.6109 42.6544 48.6109C31.6803 48.6109 24.7333 53.905 24.7333 62.9661C24.7333 72.0271 32.083 77.5249 42.6544 77.5249Z" fill="white"/>
</svg>
