<svg width="88" height="96" viewBox="0 0 88 96" fill="none" xmlns="http://www.w3.org/2000/svg">
<path d="M44 94C16.0984 94 5 81.9276 5 66.629C5 56.1177 10.4973 48.5204 20.2473 43.733V42.3801C14.4388 38.7376 10.9122 32.5973 10.9122 25.1041C10.9122 11.991 21.3883 2 44 2C66.6117 2 77.1915 11.991 77.1915 25.1041C77.1915 32.5973 73.5612 38.7376 67.7527 42.3801V43.733C77.5027 48.5204 83 56.1177 83 66.629C83 81.9276 71.9016 94 44 94ZM44 38.1131C53.8537 38.1131 58.7287 34.0543 58.7287 27.3937C58.7287 20.733 53.6463 16.6742 44 16.6742C34.25 16.6742 29.2713 20.733 29.2713 27.3937C29.2713 34.0543 34.1463 38.1131 44 38.1131ZM44 78.0769C56.3431 78.0769 62.8777 72.457 62.8777 64.2353C62.8777 56.0136 56.3431 50.7059 44 50.7059C31.6569 50.7059 25.1223 56.0136 25.1223 64.2353C25.1223 72.457 31.6569 78.0769 44 78.0769Z" fill="white"/>
</svg>
