<svg width="84" height="96" viewBox="0 0 84 96" fill="none" xmlns="http://www.w3.org/2000/svg">
<path d="M41.1442 3C68.0259 3 79 20.0023 79 47.8982C79 81.9027 61.381 93 40.5401 93C20.3034 93 6.91293 83.7353 6.5102 66.3258H22.9211C24.532 73.9615 31.3782 77.4231 40.5401 77.4231C49.8027 77.4231 60.4748 73.6561 60.2735 53.905C54.9374 58.8937 46.581 60.5226 38.2245 60.5226C19.1959 60.5226 5 51.4615 5 32.6267C5 14.7081 18.1891 3 41.1442 3ZM41.3456 47.3891C52.3197 47.3891 59.2667 42.095 59.2667 33.0339C59.2667 23.9729 51.917 18.4751 41.3456 18.4751C30.7742 18.4751 23.2231 23.9729 23.2231 33.0339C23.2231 42.1968 30.3714 47.3891 41.3456 47.3891Z" fill="white"/>
</svg>
