<svg width="80" height="96" viewBox="0 0 80 96" fill="none" xmlns="http://www.w3.org/2000/svg">
<path d="M29.9451 62.0433C27.3534 37.0319 55.3632 43.0797 55.3632 29.549C55.3632 23.2961 49.1831 19.5034 40.0127 19.5034C31.0416 19.5034 23.0672 23.1936 23.0672 33.9567H5.02535C4.3276 12.533 18.0833 3 40.0127 3C60.7459 3 75 10.5854 75 27.4989C75 50.7677 48.8841 43.4897 48.7844 62.0433H29.9451ZM39.3149 93C33.5335 93 28.749 88.0797 28.749 82.2369C28.749 76.2916 33.5335 71.3713 39.3149 71.3713C45.196 71.3713 49.9806 76.2916 49.9806 82.2369C49.9806 88.0797 45.196 93 39.3149 93Z" fill="white"/>
</svg>
