<svg width="95" height="96" viewBox="0 0 95 96" fill="none" xmlns="http://www.w3.org/2000/svg">
<path d="M74.6914 45.75C84.4333 49.7143 90 56.7857 90 67.6071C90 82.5 79.6159 93 53.0668 93H5V3H53.2809C78.9736 3 87.1096 13.6071 87.1096 26.0357C87.1096 35.5714 82.3992 40.9286 74.6914 44.3571V45.75ZM51.6751 19.7143H26.3035V39.6429H51.6751C61.4169 39.6429 66.6625 36.3214 66.6625 29.7857C66.6625 23.25 61.4169 19.7143 51.6751 19.7143ZM52.7456 76.2857C62.7015 76.2857 68.3753 71.5714 68.3753 64.3929C68.3753 57.1071 62.7015 53.1429 52.7456 53.1429H26.3035V76.2857H52.7456Z" fill="white"/>
</svg>
