<svg width="104" height="96" viewBox="0 0 104 96" fill="none" xmlns="http://www.w3.org/2000/svg">
<path d="M99 45.4286V93H85.768L85.5563 79.9286C79.4167 89.3571 68.1959 96 52.4234 96C25.536 96 5 76.2857 5 48C5 19.7143 24.9009 0 54.1171 0C73.3829 0 92.8604 9.10714 97.6239 31.7143H76.5586C73.1712 23.5714 65.1261 18.5357 54.4347 18.5357C37.9212 18.5357 25.8536 30.6429 25.8536 48C25.8536 65.25 38.027 77.4643 54.0113 77.4643C62.9031 77.4643 75.2883 73.5 78.3581 59.8929H52.5293V45.4286H99Z" fill="white"/>
</svg>
