<svg width="108" height="96" viewBox="0 0 108 96" fill="none" xmlns="http://www.w3.org/2000/svg">
<path d="M31.5746 93L22.4859 86.6283L76.5242 3L85.6129 9.27212L31.5746 93ZM25.9435 46.8053C11.9153 46.8053 5 37.4469 5 25.8982C5 14.4491 11.9153 5.09071 25.9435 5.09071C40.0706 5.09071 46.9859 14.4491 46.9859 25.8982C46.9859 37.4469 40.0706 46.8053 25.9435 46.8053ZM25.9435 33.9624C31.2782 33.9624 33.8468 30.2788 33.8468 25.8982C33.8468 21.4181 31.2782 17.9336 25.9435 17.9336C20.6089 17.9336 18.1391 21.4181 18.1391 25.8982C18.1391 30.2788 20.6089 33.9624 25.9435 33.9624ZM82.0564 91.1084C67.9294 91.1084 61.0141 81.75 61.0141 70.2013C61.0141 58.7522 67.9294 49.3938 82.0564 49.3938C96.0847 49.3938 103 58.7522 103 70.2013C103 81.75 96.0847 91.1084 82.0564 91.1084ZM82.0564 78.2655C87.3911 78.2655 89.8609 74.5819 89.8609 70.2013C89.8609 65.7212 87.3911 62.1372 82.0564 62.1372C76.7218 62.1372 74.1532 65.7212 74.1532 70.2013C74.1532 74.5819 76.7218 78.2655 82.0564 78.2655Z" fill="white"/>
</svg>
