<svg width="102" height="96" viewBox="0 0 102 96" fill="none" xmlns="http://www.w3.org/2000/svg">
<path d="M97 44.3386C97 55.9749 92.714 65.5047 85.4377 73.1285L96.6013 84.5643C93.312 88.9781 89.7237 92.5893 85.4377 96L73.078 84.3636C66.9978 87.4734 59.1235 89.8809 50.9502 89.8809C23.6392 89.8809 5 71.4232 5 44.9404C5 18.4577 23.6392 0 50.9502 0C78.3608 0 97 18.4577 97 44.3386ZM24.636 44.9404C24.636 61.4922 36.0986 72.5266 50.9502 72.5266C65.9014 72.5266 77.2644 61.4922 77.2644 44.9404C77.2644 28.3887 65.9014 17.3542 50.9502 17.3542C36.0986 17.3542 24.636 28.3887 24.636 44.9404Z" fill="white"/>
</svg>
