<svg width="92" height="96" viewBox="0 0 92 96" fill="none" xmlns="http://www.w3.org/2000/svg">
<path d="M45.5326 95C18.927 95 4.89665 85.4531 5.00057 64.7857H23.7077C24.4352 73.0737 31.1905 78.3192 45.5326 78.4241C59.0433 78.4241 66.4222 73.808 66.4222 66.8839C66.4222 60.7991 61.5376 57.7567 51.1447 55.9732L40.3362 54.0848C23.8116 51.1473 7.39092 46.7411 7.39092 27.5424C7.39092 10.8616 21.3173 1 45.7405 1C68.5008 1 84.2979 9.07813 84.5057 30.8996H65.9026C64.5515 22.9263 58.4197 17.5759 45.3248 17.5759C33.4769 17.5759 27.2412 21.6674 27.2412 28.4866C27.2412 33.8371 31.5023 37.1942 40.4401 38.8728L49.8976 40.5513C66.5261 43.5938 87 46.4263 87 67.5134C87 85.0335 72.7618 95 45.5326 95Z" fill="white"/>
</svg>
