<svg width="90" height="96" viewBox="0 0 90 96" fill="none" xmlns="http://www.w3.org/2000/svg">
<path d="M43.6828 93C17.42 93 4.78304 83.6335 5.00282 64.6968H24.7823C25.112 73.5543 32.3645 76.7104 43.3531 76.7104C55.2208 76.7104 63.4623 72.7398 63.4623 65.3077C63.4623 59.1991 57.5284 52.9887 40.8257 52.9887H37.3094V40.5679H40.8257C57.3087 40.5679 61.5942 34.1538 61.5942 29.1652C61.5942 22.7511 54.6714 19.1878 44.3421 19.1878C33.2436 19.1878 26.6504 23.1584 26.5405 31.5068H6.87088C6.761 12.672 20.3869 3 44.452 3C68.5171 3 81.4836 12.672 81.4836 26.1109C81.4836 35.681 75.2201 41.6878 66.649 45.0475V46.371C77.1981 48.9163 85 56.1448 85 67.4457C85 83.2262 68.7368 93 43.6828 93Z" fill="white"/>
</svg>
