<svg width="90" height="96" viewBox="0 0 90 96" fill="none" xmlns="http://www.w3.org/2000/svg">
<path d="M43.6548 93C18.2635 93 4.66907 82.9768 5.00612 64.3921H25.1169C25.9034 72.9536 34.105 76.3991 43.5425 76.3991C56.0135 76.3991 63.878 70.0302 63.878 60.7378C63.878 51.2367 56.5752 45.5986 44.7784 45.5986C36.015 45.5986 29.948 48.8353 26.5775 52.6984H6.12963L15.2301 3H76.9107V19.0789H31.858L28.4875 38.7077C31.7456 35.993 39.3855 32.7564 50.9577 32.7564C69.7203 32.7564 85 42.6752 85 61.6775C85 80.993 69.8326 93 43.6548 93Z" fill="white"/>
</svg>
