<svg width="90" height="96" viewBox="0 0 90 96" fill="none" xmlns="http://www.w3.org/2000/svg">
<path d="M49.0816 35.4774C69.6531 35.4774 85 44.5385 85 63.3733C85 81.2919 70.7415 93 45.9252 93C16.8639 93 5 75.9977 5 48.1018C5 14.0973 24.0476 3 46.5782 3C68.4558 3 82.932 12.2647 83.3673 29.6742H65.6259C63.8844 22.0385 56.483 18.5769 46.5782 18.5769C36.5646 18.5769 25.0272 22.3439 25.2449 42.095C31.0136 37.1063 40.0476 35.4774 49.0816 35.4774ZM45.7075 77.5249C57.1361 77.5249 65.2993 72.0271 65.2993 62.9661C65.2993 53.8032 57.5714 48.6109 45.7075 48.6109C33.8435 48.6109 26.3333 53.905 26.3333 62.9661C26.3333 72.0271 34.2789 77.5249 45.7075 77.5249Z" fill="white"/>
</svg>
