<svg width="90" height="96" viewBox="0 0 90 96" fill="none" xmlns="http://www.w3.org/2000/svg">
<path d="M45 94C16.383 94 5 81.9276 5 66.629C5 56.1177 10.6383 48.5204 20.6383 43.733V42.3801C14.6809 38.7376 11.0638 32.5973 11.0638 25.1041C11.0638 11.991 21.8085 2 45 2C68.1915 2 79.0426 11.991 79.0426 25.1041C79.0426 32.5973 75.3191 38.7376 69.3617 42.3801V43.733C79.3617 48.5204 85 56.1177 85 66.629C85 81.9276 73.617 94 45 94ZM45 38.1131C55.1064 38.1131 60.1064 34.0543 60.1064 27.3937C60.1064 20.733 54.8936 16.6742 45 16.6742C35 16.6742 29.8936 20.733 29.8936 27.3937C29.8936 34.0543 34.8936 38.1131 45 38.1131ZM45 78.0769C57.6596 78.0769 64.3617 72.457 64.3617 64.2353C64.3617 56.0136 57.6596 50.7059 45 50.7059C32.3404 50.7059 25.6383 56.0136 25.6383 64.2353C25.6383 72.457 32.3404 78.0769 45 78.0769Z" fill="white"/>
</svg>
