<svg width="90" height="96" viewBox="0 0 90 96" fill="none" xmlns="http://www.w3.org/2000/svg">
<path d="M44.0748 3C73.1361 3 85 20.0023 85 47.8982C85 81.9027 65.9524 93 43.4218 93C21.5442 93 7.06803 83.7353 6.63265 66.3258H24.3742C26.1156 73.9615 33.517 77.4231 43.4218 77.4231C53.4354 77.4231 64.9728 73.6561 64.7551 53.905C58.9864 58.8937 49.9524 60.5226 40.9184 60.5226C20.3469 60.5226 5 51.4615 5 32.6267C5 14.7081 19.2585 3 44.0748 3ZM44.2925 47.3891C56.1565 47.3891 63.6667 42.095 63.6667 33.0339C63.6667 23.9729 55.7211 18.4751 44.2925 18.4751C32.8639 18.4751 24.7007 23.9729 24.7007 33.0339C24.7007 42.1968 32.4286 47.3891 44.2925 47.3891Z" fill="white"/>
</svg>
