<svg width="90" height="96" viewBox="0 0 90 96" fill="none" xmlns="http://www.w3.org/2000/svg">
<path d="M33.5087 62.0433C30.5468 37.0319 62.558 43.0797 62.558 29.549C62.558 23.2961 55.495 19.5034 45.0145 19.5034C34.7618 19.5034 25.6483 23.1936 25.6483 33.9567H5.02897C4.23154 12.533 19.9523 3 45.0145 3C68.7096 3 85 10.5854 85 27.4989C85 50.7677 55.1533 43.4897 55.0393 62.0433H33.5087ZM44.2171 93C37.6098 93 32.1417 88.0797 32.1417 82.2369C32.1417 76.2916 37.6098 71.3713 44.2171 71.3713C50.9383 71.3713 56.4064 76.2916 56.4064 82.2369C56.4064 88.0797 50.9383 93 44.2171 93Z" fill="white"/>
</svg>
