<svg width="90" height="96" viewBox="0 0 90 96" fill="none" xmlns="http://www.w3.org/2000/svg">
<path d="M70.5919 45.75C79.7607 49.7143 85 56.7857 85 67.6071C85 82.5 75.2267 93 50.2393 93H5V3H50.4408C74.6222 3 82.2796 13.6071 82.2796 26.0357C82.2796 35.5714 77.8463 40.9286 70.5919 44.3571V45.75ZM48.9295 19.7143H25.0504V39.6429H48.9295C58.0982 39.6429 63.0353 36.3214 63.0353 29.7857C63.0353 23.25 58.0982 19.7143 48.9295 19.7143ZM49.937 76.2857C59.3073 76.2857 64.6474 71.5714 64.6474 64.3929C64.6474 57.1071 59.3073 53.1429 49.937 53.1429H25.0504V76.2857H49.937Z" fill="white"/>
</svg>
