<svg width="90" height="96" viewBox="0 0 90 96" fill="none" xmlns="http://www.w3.org/2000/svg">
<path d="M85 45.4286V93H73.7387L73.5586 79.9286C68.3333 89.3571 58.7838 96 45.3604 96C22.4775 96 5 76.2857 5 48C5 19.7143 21.9369 0 46.8018 0C63.1982 0 79.7748 9.10714 83.8288 31.7143H65.9009C63.018 23.5714 56.1712 18.5357 47.0721 18.5357C33.018 18.5357 22.7477 30.6429 22.7477 48C22.7477 65.25 33.1081 77.4643 46.7117 77.4643C54.2793 77.4643 64.8198 73.5 67.4324 59.8929H45.4504V45.4286H85Z" fill="white"/>
</svg>
