<svg width="90" height="96" viewBox="0 0 90 96" fill="none" xmlns="http://www.w3.org/2000/svg">
<path d="M26.6936 93L19.2742 86.6283L63.3871 3L70.8065 9.27212L26.6936 93ZM22.0968 46.8053C10.6452 46.8053 5 37.4469 5 25.8982C5 14.4491 10.6452 5.09071 22.0968 5.09071C33.629 5.09071 39.2742 14.4491 39.2742 25.8982C39.2742 37.4469 33.629 46.8053 22.0968 46.8053ZM22.0968 33.9624C26.4516 33.9624 28.5484 30.2788 28.5484 25.8982C28.5484 21.4181 26.4516 17.9336 22.0968 17.9336C17.7419 17.9336 15.7258 21.4181 15.7258 25.8982C15.7258 30.2788 17.7419 33.9624 22.0968 33.9624ZM67.9032 91.1084C56.371 91.1084 50.7258 81.75 50.7258 70.2013C50.7258 58.7522 56.371 49.3938 67.9032 49.3938C79.3548 49.3938 85 58.7522 85 70.2013C85 81.75 79.3548 91.1084 67.9032 91.1084ZM67.9032 78.2655C72.2581 78.2655 74.2742 74.5819 74.2742 70.2013C74.2742 65.7212 72.2581 62.1372 67.9032 62.1372C63.5484 62.1372 61.4516 65.7212 61.4516 70.2013C61.4516 74.5819 63.5484 78.2655 67.9032 78.2655Z" fill="white"/>
</svg>
