<svg width="90" height="96" viewBox="0 0 90 96" fill="none" xmlns="http://www.w3.org/2000/svg">
<path d="M85 44.3386C85 55.9749 81.273 65.5047 74.9458 73.1285L84.6533 84.5643C81.7931 88.9781 78.6728 92.5893 74.9458 96L64.1983 84.3636C58.9112 87.4734 52.0639 89.8809 44.9567 89.8809C21.208 89.8809 5 71.4232 5 44.9404C5 18.4577 21.208 0 44.9567 0C68.792 0 85 18.4577 85 44.3386ZM22.0748 44.9404C22.0748 61.4922 32.0423 72.5266 44.9567 72.5266C57.9577 72.5266 67.8386 61.4922 67.8386 44.9404C67.8386 28.3887 57.9577 17.3542 44.9567 17.3542C32.0423 17.3542 22.0748 28.3887 22.0748 44.9404Z" fill="white"/>
</svg>
