<svg width="90" height="96" viewBox="0 0 90 96" fill="none" xmlns="http://www.w3.org/2000/svg">
<path d="M44.544 95C18.5873 95 4.89917 85.4531 5.00056 64.7857H23.2514C23.9611 73.0737 30.5517 78.3192 44.544 78.4241C57.7252 78.4241 64.9241 73.808 64.9241 66.8839C64.9241 60.7991 60.1586 57.7567 50.0193 55.9732L39.4743 54.0848C23.3528 51.1473 7.33261 46.7411 7.33261 27.5424C7.33261 10.8616 20.9193 1 44.7468 1C66.952 1 82.3638 9.07813 82.5666 30.8996H64.4171C63.099 22.9263 57.1168 17.5759 44.3412 17.5759C32.7824 17.5759 26.6988 21.6674 26.6988 28.4866C26.6988 33.8371 30.8559 37.1942 39.5757 38.8728L48.8025 40.5513C65.0255 43.5938 85 46.4263 85 67.5134C85 85.0335 71.1091 95 44.544 95Z" fill="white"/>
</svg>
